<?xml version="1.0" encoding="UTF-8"?>
<svg id="_图层_1" data-name="图层_1" xmlns="http://www.w3.org/2000/svg" viewBox="0 0 318.46 106.48">
  <defs>
    <style>
      .cls-1 {
        fill: #903;
      }

      .cls-2 {
        fill: #56a0d3;
      }

      .cls-3 {
        fill: #ffb310;
      }
    </style>
  </defs>
  <g>
    <path d="M83.95,58.38h7.01c.45,0,.67.14.67.41,0,.26-.19.39-.57.39h-13.48c-.38,0-.57-.13-.57-.39,0-.27.26-.41.77-.41h5.75c-.02-.07-.03-.18-.05-.34-.22-1.37-.34-4.94-.34-10.7.03-5.31.11-9.1.23-11.37.07-.33.15-.49.26-.49s.19.13.26.39c.09,1.05.16,2.18.23,3.4h3.14c1.13,0,2.21-.31,3.22-.93.17,0,.26.11.26.34l-.21.21c-.65.88-1.66,1.31-3.02,1.31h-3.38c.09,2.01.13,4.39.13,7.14,0,6.31-.09,9.91-.28,10.8-.02.09-.03.16-.05.23Z"/>
    <path d="M103.3,39.72c.14,0,.28.03.44.1l2.63,1.34c.17.05.26.18.26.39v9.1c0,1.58-.3,3.09-.9,4.54-.77,1.79-1.67,3.2-2.68,4.23-.1.14-.19.21-.26.21-.1,0-.15-.07-.15-.21,1.77-2.2,2.79-5.09,3.07-8.66v-8.66c0-.14-.07-.24-.21-.31l-2.29-1.26c-.15-.14-.23-.27-.23-.41,0-.19.11-.32.33-.39ZM104.05,36.42c1.22.53,2.2,1.07,2.94,1.62.14.14.21.28.21.44,0,.21-.1.31-.31.31-1.17-.5-2.2-1.09-3.09-1.78-.1-.07-.15-.2-.15-.39.03-.14.17-.21.41-.21ZM116.22,56.32h-8.76c-.34,0-.52-.18-.52-.54.76-1.08,1.33-2.62,1.73-4.61.36-1.72.58-4.09.64-7.11,0-.41,0-.79-.03-1.13h-1.47c-.33,0-.49-.15-.49-.44,0-.19.24-.32.72-.39h1.24c-.02-.62-.04-1.21-.08-1.78.03-.46.15-.81.36-1.03l.18-.21c.21.07.35.17.44.31l.03.1h6.68c.46,0,.7.21.7.62v1.98h.95c.41.07.62.2.62.39,0,.29-.18.44-.54.44h-1.03v9.38c0,1.17-.08,2.23-.23,3.2h1.42c.36,0,.54.13.54.39,0,.29-.2.44-.59.44h-1.52c-.41,1.58-1.09,2.82-2.04,3.71-.1.05-.21.08-.31.08-.07,0-.1-.06-.1-.18.69-.96,1.18-2.17,1.47-3.61ZM110.13,37.02h7.16c.41.07.62.22.62.44,0,.28-.17.41-.52.41h-7.42c-.09.33-.23.64-.44.93-.4.55-1.01.89-1.86,1.03-.19,0-.28-.07-.28-.21l.13-.23c.4-.26.73-.52,1.01-.8.43-.48.72-1.04.88-1.68.14-.62.52-1.03,1.13-1.24h.33c0,.07-.07.17-.21.31-.24.29-.42.64-.54,1.03ZM110.34,42.92v1.73c0,3.16-.22,5.46-.67,6.91-.57,1.8-1.03,3.05-1.39,3.74,0,.14.07.21.21.21h3.25c.36-.96.64-2,.82-3.12.22-1.31.33-2.57.33-3.79v-5.67h-2.55ZM110.26,40.21c.03.5.05,1.13.05,1.88h2.58v-1.03c.02-.36.05-.64.1-.85h-2.73ZM116.55,42.92h-2.78v5.57c0,1.84-.15,3.28-.46,4.33-.28,1.03-.63,1.89-1.06,2.58l4.12.1c.12-.96.18-2,.18-3.12v-9.46ZM113.66,40.21c.05.21.09.49.1.85v1.03h2.78v-1.57c0-.21-.11-.31-.34-.31h-2.55Z"/>
    <path d="M131.63,43.82c1.84-.26,3.69-.39,5.57-.39s3.8.09,5.67.28c.09-.26.16-.52.23-.8.09-.15.19-.23.31-.23.05,0,.08.03.08.1-.17,2.35-.26,4.94-.26,7.76.05,1.36.2,2.72.44,4.1.26,1.51.64,3.17,1.16,4.97,0,.14-.04.21-.13.21-.12,0-.21-.07-.26-.21-.74-1.31-1.3-2.78-1.68-4.43-.33-1.31-.52-2.85-.57-4.64,0-2.28.16-4.29.49-6.01-1.8-.12-3.65-.18-5.54-.18-1.77,0-3.55.09-5.34.28.07.36.1.77.1,1.24v5.46c-.07,3.52-.8,6.21-2.19,8.07-.17.27-.32.41-.44.41-.1,0-.15-.1-.15-.31,1.13-2.2,1.72-4.92,1.75-8.17v-5.36c0-1.36-.05-2.38-.15-3.07,0-.15.05-.23.15-.23.12,0,.21.08.28.23.19.28.34.58.46.9ZM136.63,36.63v-.54c0-.33.15-.52.44-.59.24,0,.38.2.41.59v.54h5.41c.43,0,.64.13.64.39,0,.29-.18.44-.54.44h-11.39c-.34,0-.52-.15-.52-.44,0-.26.23-.39.7-.39h4.85ZM134.08,38.8c1-.14,2-.21,3.02-.21,1.07,0,2.13.07,3.2.21.02-.07.03-.14.03-.21.03-.36.18-.58.44-.64.29.07.44.32.44.75,0,.89-.1,1.62-.31,2.16-.33,1.08-1.56,1.62-3.71,1.62-1.94,0-3.14-.58-3.61-1.73-.19-.36-.28-1.05-.28-2.06.03-.43.15-.64.36-.64.24,0,.38.18.41.54,0,.07,0,.14.03.21ZM137.12,41.55c1.58,0,2.51-.3,2.78-.9.14-.15.25-.54.33-1.16-1.05-.07-2.1-.1-3.17-.1-.98,0-1.96.03-2.94.1.07.55.18.94.34,1.16.46.6,1.35.9,2.65.9ZM135.34,45.99c.58-.07,1.17-.1,1.75-.1s1.19.03,1.78.1c.05-.53.21-.8.46-.8.33,0,.49.45.49,1.34v8.12c-.07,2.7-.95,4.05-2.63,4.05-1.8,0-2.72-1.44-2.73-4.33v-7.73c0-.96.15-1.44.44-1.44.24,0,.39.27.44.8ZM137.14,57.87c1.15-.07,1.73-1.14,1.73-3.22v-7.91c-.6-.07-1.2-.1-1.8-.1-.57,0-1.13.03-1.7.1v7.63c0,2.27.59,3.44,1.78,3.51Z"/>
    <path d="M159.15,38.15c.03.43.06.88.08,1.34.96.29,1.53.91,1.7,1.86.4,2.27.59,5.94.59,11.03,0,2.41-.06,4.54-.18,6.42,0,.55-.09.82-.26.82s-.26-.27-.26-.82c-.12-1.94-.18-4.05-.18-6.31,0-4.66-.21-8.3-.64-10.93-.15-.6-.4-.98-.75-1.13.09,2.2.13,4.74.13,7.63,0,6.67-.09,10.49-.26,11.47-.07.34-.15.52-.23.52-.07-.07-.14-.28-.21-.62-.21-1.44-.31-5.23-.31-11.37,0-3.02.03-5.6.08-7.73-.34.22-.62.64-.82,1.24-.43,2.7-.67,6.37-.72,11.03,0,2.06-.05,4.17-.15,6.31,0,.48-.09.72-.26.72-.15,0-.25-.21-.28-.62-.14-2.01-.21-4.11-.21-6.31.03-5.22.27-8.97.7-11.24.27-1.08.86-1.74,1.75-1.96.02-.46.03-.91.05-1.34h-2.35c-.33,0-.49-.13-.49-.39,0-.27.24-.41.72-.41h2.16c0-.41,0-.8.03-1.16.07-.34.15-.52.26-.52.05,0,.11.14.18.41.03.43.07.85.1,1.26h1.98c.4,0,.59.14.59.41,0,.26-.16.39-.49.39h-2.06ZM167.12,37.02h3.25c.43,0,.64.15.64.44,0,.28-.18.41-.54.41h-1.86v.08c.12,1.32,1,2.67,2.63,4.05,0,.14-.07.21-.21.21-.03,0-.14-.03-.31-.1-.93-.43-1.62-.99-2.06-1.68-.46-.69-.7-1.51-.7-2.47v-.08h-2.58c0,1.17-.23,2.1-.7,2.78-.4.67-1.07,1.19-2.04,1.55-.28,0-.41-.07-.41-.21s.11-.28.34-.44c.52-.26.95-.74,1.31-1.44.36-.62.61-1.37.75-2.24h-1.68c-.34,0-.52-.14-.52-.41,0-.29.24-.44.72-.44h3.02v-.59c0-.43.16-.68.49-.75.26,0,.4.25.44.75v.59ZM165.8,49.18c-.24-.4-.5-.77-.77-1.13-.79-1.31-1.33-2.98-1.62-5.03,0-.22.05-.33.15-.33.12,0,.2.08.23.23.52,1.58,1.25,3.13,2.22,4.64.17.21.34.4.52.59.64-.89,1.14-1.78,1.52-2.65.55-1.12.89-2.18,1.03-3.2,0-.34.11-.52.33-.52.12,0,.18.17.18.52,0,1.01-.22,2.11-.67,3.3-.38,1.1-.98,2.23-1.8,3.4.79,1.03,1.49,2.06,2.09,3.09,1.34,2.34,2.16,4.64,2.45,6.91,0,.34-.07.52-.21.52-.09,0-.18-.17-.28-.52-.7-2.41-1.63-4.51-2.78-6.31-.65-.89-1.3-1.78-1.93-2.65-.7,1.17-1.31,2.36-1.8,3.58-.7,1.94-1.17,3.74-1.39,5.39-.12.41-.25.62-.39.62-.15,0-.23-.21-.23-.62.17-1.92.52-3.64,1.03-5.15.53-1.74,1.25-3.29,2.14-4.66Z"/>
    <path d="M190.31,37.46c.02.33.04.7.08,1.13,1.31,0,2.61.03,3.92.1,0-.07,0-.1.03-.1.03-.43.18-.67.44-.72.33.05.49.29.49.72,0,1.51-.13,2.68-.39,3.51-.41,1.58-1.85,2.43-4.3,2.55v.44c.05,0,.1.03.15.1.96.46,1.73,1.25,2.29,2.37.52.89.99,2.3,1.42,4.23.24,1.58.58,2.88,1.01,3.89.74,1.73,1.74,3.08,2.99,4.05,0,.14-.04.21-.13.21-.26,0-.42-.1-.49-.31-1.12-.62-2.13-1.65-3.04-3.09-.64-1.03-1.12-2.61-1.44-4.74-.19-1.8-.58-3.28-1.16-4.43-.46-.84-1-1.46-1.6-1.86.02.82.03,1.64.03,2.45,0,6.74-.09,10.59-.28,11.57-.07.34-.15.52-.26.52-.05,0-.11-.17-.18-.52-.21-1.51-.31-5.37-.31-11.57v-2.55c-.72.4-1.33,1.08-1.83,2.06-.58,1.08-.98,2.49-1.19,4.23-.31,2.04-.81,3.56-1.49,4.54-.93,1.37-1.97,2.36-3.12,2.96-.07.15-.23.23-.49.23-.09,0-.13-.08-.13-.23,1.31-.88,2.34-2.14,3.09-3.79.43-.96.77-2.2,1.03-3.71.45-1.86.93-3.23,1.44-4.12.57-1.05,1.32-1.8,2.27-2.27.17-.07.32-.14.44-.21v-.44c-2.44-.12-3.95-.94-4.54-2.45-.29-.64-.44-1.7-.44-3.2.05-.5.19-.75.41-.75.21,0,.34.15.41.44,1.39-.07,2.81-.1,4.25-.1,0-.43,0-.81.03-1.13h-5.72c-.38,0-.57-.15-.57-.44,0-.26.26-.42.77-.49h5.54c0-.22,0-.4.03-.54.07-.33.15-.49.23-.49.07,0,.14.13.21.39.02.21.03.42.05.64h5.18c.45.07.67.23.67.49,0,.29-.19.44-.57.44h-5.23ZM185.6,40.52h4.05c0-.4,0-.81.03-1.24-1.39,0-2.78.03-4.15.1.02.43.04.81.08,1.13ZM189.59,43.82c.02-.89.03-1.72.03-2.47h-3.89c.09.43.2.75.34.95.64.95,1.81,1.45,3.53,1.52ZM194.28,39.49c-1.27-.14-2.55-.21-3.84-.21.02.43.03.84.05,1.24h3.69c.03-.27.07-.62.1-1.03ZM194.08,41.35h-3.56c.02.76.03,1.58.05,2.47,1.8-.07,2.87-.61,3.2-1.62.1-.14.21-.42.31-.85Z"/>
    <path d="M215.08,37.94h-5.62c-.36,0-.54-.13-.54-.39,0-.29.25-.44.75-.44h6.44v-.49c0-.5.15-.75.46-.75s.48.25.52.75v.49h6.7c.41,0,.62.15.62.44,0,.26-.17.39-.52.39h-8.25c-.95.76-1.56,1.8-1.86,3.12.07-.07.15-.1.26-.1h6.78c.48,0,.72.23.72.7v10.82c0,3.32-.88,5.58-2.63,6.8-.1.15-.21.23-.31.23-.05,0-.08-.08-.08-.23,1.32-1.58,1.98-3.81,1.98-6.7v-10.49c0-.21-.12-.31-.36-.31h-6.06c-.19,0-.34-.04-.44-.13-.07.48-.1.97-.1,1.47l-.15,5.57c-.31,5.7-1.95,9.31-4.92,10.82-.12.07-.23.1-.33.1-.05,0-.08-.03-.08-.1,2.46-1.74,3.87-5.31,4.23-10.72l.23-5.88c.07-1.92.92-3.58,2.55-4.97Z"/>
    <path d="M240.29,37.02c.22,2.7.34,6.52.34,11.47,0,6.44-.09,10.12-.26,11.03-.07.34-.15.52-.26.52-.07-.07-.15-.28-.23-.62-.21-1.44-.31-5.09-.31-10.93,0-2.27.02-4.24.05-5.9h-2.55l.1,5.8c-.02,4.24-.4,7.16-1.16,8.76l2.37-.52c.27,0,.41.06.41.18,0,.22-.15.34-.46.34l-3.79,1.13c-.26,0-.39-.08-.39-.23,0-.12.11-.25.33-.39.02-.14.04-.21.08-.21,1.03-.82,1.56-3.71,1.6-8.66l.13-10.44c.03-.6.15-.9.36-.9.19,0,.3.27.33.8l.03.64h2.68c.02-.76.04-1.38.08-1.88h-4.56c-.33,0-.49-.13-.49-.39,0-.29.22-.44.67-.44h5.8c.38,0,.57.15.57.44,0,.26-.15.39-.46.39h-1.01ZM237.06,41.89h2.55c.02-.82.03-1.58.05-2.27h-2.65l.05,2.27ZM244.85,46.32l.05-1.96c.07-.96.22-1.44.46-1.44.21,0,.34.45.41,1.34l.05,2.06c0,4.79-.41,8.02-1.24,9.66-.76,1.53-1.69,2.74-2.81,3.63-.15.14-.25.21-.28.21-.09,0-.13-.07-.13-.21.96-1.12,1.76-2.49,2.4-4.12.62-1.65.97-4.26,1.06-7.83h-2.76c-.26,0-.39-.1-.39-.31.17-.29.31-.71.41-1.26.09-.4.14-.97.15-1.73,0-.27.04-.52.13-.75.03-.4.13-.7.28-.93l.15-.1c.15.07.27.18.34.33-.07.07-.1.68-.1,1.83,0,.62-.03,1.11-.1,1.47-.09.34-.15.54-.21.59,0,.14.06.21.18.21h1.91c.02-.19.03-.42.03-.7ZM243.61,38.8c.05-.07.11-.1.18-.1.43-.36.79-.67,1.08-.93.26-.21.39-.46.39-.75-.02-.14-.04-.23-.08-.28,0-.07.04-.14.13-.21.12,0,.22.03.31.1.24.19.36.53.36,1.03-.03.26-.27.57-.7.93-.52.4-1.13.88-1.86,1.44-.31.19-.57.35-.77.49-.15.22-.23.4-.23.54,0,.12.08.25.23.39h1.16c.74,0,1.17-.07,1.29-.21.19-.12.28-.28.28-.49,0-.22-.17-.44-.52-.64,0-.12.07-.21.21-.28.1,0,.23.03.39.1.48.19.72.5.72.93,0,.46-.17.81-.52,1.03-.33.27-.96.41-1.91.41-.89,0-1.5-.1-1.83-.31-.34-.14-.52-.45-.52-.93,0-.36.19-.74.57-1.13.36-.29.73-.58,1.11-.85-.33-.05-.64-.15-.95-.28-.34-.14-.52-.39-.52-.75,0-.12.09-.28.28-.49.22-.22.5-.44.82-.64.52-.26.77-.53.77-.82,0-.07-.04-.17-.13-.31.03-.12.09-.18.18-.18.05,0,.12.03.21.08.22.21.34.46.34.75,0,.26-.13.52-.39.8-.26.29-.54.51-.85.64-.12.05-.22.11-.28.18,0,.14.08.24.23.31.27.22.54.37.8.44ZM248.17,39.18c.26-.19.52-.35.8-.49.41-.36.77-.67,1.08-.93.26-.21.39-.46.39-.75-.03-.14-.07-.23-.1-.28,0-.07.05-.14.15-.21.09,0,.18.03.28.1.24.19.36.53.36,1.03-.02.26-.23.57-.64.93-.53.4-1.15.88-1.86,1.44-.27.19-.52.35-.72.49-.14.22-.21.4-.21.54,0,.12.06.21.18.28h1.11c.72,0,1.15-.06,1.29-.18.17-.07.26-.21.26-.41,0-.22-.21-.44-.62-.64,0-.12.07-.21.21-.28.1,0,.22.03.36.1.57.19.85.5.85.93,0,.4-.17.7-.52.93-.33.27-.95.41-1.88.41-.88,0-1.47-.07-1.78-.21-.33-.22-.49-.53-.49-.93,0-.36.19-.74.57-1.13.14-.07.28-.17.44-.31-.24-.09-.46-.2-.67-.33-.27-.14-.41-.4-.41-.8,0-.22.09-.43.28-.62.24-.21.55-.46.93-.75.55-.4.82-.74.82-1.03,0-.07-.04-.17-.13-.31.03-.12.09-.18.18-.18.07,0,.15.03.23.08.22.21.34.46.34.75,0,.33-.15.67-.44,1.03-.31.28-.63.51-.95.7-.12.14-.23.25-.34.34,0,.14.07.27.21.41.14.12.28.22.44.28ZM248.53,47.66c.03,1.08.05,2.31.05,3.69,0,4.54-.09,7.15-.26,7.84-.09.36-.18.54-.28.54-.07,0-.14-.21-.21-.64-.24-1.01-.36-3.59-.36-7.73.03-3.78.12-6.49.26-8.12.07-.29.15-.44.26-.44.07,0,.14.15.21.44.14,1.01.24,2.24.31,3.69h1.31c.26,0,.39-.06.39-.18,0-.14-.03-.39-.08-.75-.07-.4-.1-.77-.1-1.13,0-.46.15-1.01.44-1.62.14-.36.27-.54.39-.54s.18.11.18.33c-.03.76-.05,1.44-.05,2.06.05.67.11,1.35.18,2.04,0,.36-.23.54-.7.54h-1.93Z"/>
    <path d="M269.13,35.6c.17,0,.35.06.54.18,2.82,2.08,4.74,3.66,5.77,4.74,1.29,1.19,1.93,1.87,1.93,2.06,0,.36-.09.54-.26.54-.24,0-.42-.11-.54-.33-3.11-2.8-5.36-4.72-6.75-5.77-.29-.14-.51-.21-.64-.21-.09,0-.32.1-.7.31-1.92,1.51-4.24,3.51-6.96,6.01-.1.21-.24.31-.41.31-.12,0-.18-.14-.18-.41.34-1.05,2.92-3.46,7.73-7.24.15-.12.31-.18.46-.18ZM265,43.61c1.37-.12,2.77-.18,4.18-.18s2.71.09,4.05.28c.03-.62.2-.93.49-.93.34,0,.52.46.52,1.37v9.07c-.1,4.26-1.69,6.39-4.77,6.39-3.59,0-5.4-2.23-5.44-6.7v-8.56c0-1.05.16-1.61.49-1.68.27,0,.44.31.49.93ZM269.41,58.69c2.54-.07,3.81-1.92,3.81-5.57v-8.58c-1.34-.19-2.7-.28-4.07-.28s-2.77.07-4.15.21v8.45c0,3.78,1.47,5.7,4.41,5.77ZM266.11,40.11h6.26c.43.07.64.25.64.54,0,.28-.18.41-.54.41h-6.57c-.34,0-.52-.14-.52-.41,0-.29.24-.47.72-.54Z"/>
    <path d="M291.55,38.8c-1.25.55-2.74.86-4.46.93-.14,0-.21-.03-.21-.1,0-.09.13-.16.39-.23,2.77-.82,5.14-1.99,7.11-3.51.48-.33.76-.49.82-.49.17,0,.39.13.64.39,1.94,1.87,4.42,2.95,7.42,3.22.38.05.57.11.57.18,0,.14-.54.21-1.62.21-1.29,0-2.57-.3-3.84-.9-.02.21-.16.31-.44.31h-6.39ZM290.52,40.11c1.55-.19,3.1-.28,4.67-.28s3.16.07,4.74.21c.07-.27.17-.41.31-.41.33,0,.51.61.54,1.83v.44c0,2.47-1.78,3.71-5.34,3.71-3.8,0-5.7-1.31-5.7-3.94v-.49c0-.96.16-1.44.49-1.44.1,0,.2.13.28.39ZM299.67,46.91c.07-.4.18-.59.34-.59.31,0,.48.58.52,1.73v4.87c0,4.47-1.67,6.7-5,6.7-3.51,0-5.26-2.38-5.26-7.14v-4.92c0-.89.17-1.34.52-1.34.12-.09.21.11.28.59,1.46-.05,2.94-.08,4.43-.08,1.39,0,2.78.06,4.18.18ZM295.03,44.65c-.15-.26-.23-.88-.23-1.86.03-.89.1-1.54.21-1.93.02-.07.03-.14.03-.21-1.46,0-2.92.07-4.38.21v.7c0,1.99,1.46,3.02,4.38,3.09ZM299.62,49.28v-1.52c-1.37-.14-2.77-.21-4.18-.21s-2.88.03-4.3.1v1.62h8.48ZM291.14,50.11v2.37c0,4.14,1.45,6.21,4.36,6.21,2.75,0,4.12-1.92,4.12-5.77v-2.81h-8.48ZM291.75,41.45c.1,0,.25.07.44.21l1.57.93c.15.07.23.21.23.44,0,.21-.13.31-.39.31-.15,0-.3-.07-.44-.21l-1.52-.82c-.21-.14-.31-.27-.31-.41,0-.22.14-.37.41-.44ZM297.55,38.05c-.6-.4-1.2-.83-1.8-1.31l-.59-.64c-.34.36-.81.74-1.39,1.13-.27.29-.58.57-.9.82h4.69ZM299.82,40.86c-1.46-.14-2.95-.21-4.46-.21l.03.1c.21.46.31,1.14.31,2.04,0,.98-.04,1.6-.13,1.86,2.82,0,4.23-.92,4.23-2.76v-.44c0-.26,0-.46.03-.59ZM298.35,41.45c.26,0,.41.11.46.34,0,.14-.06.27-.18.41-.55.48-1.19.92-1.91,1.31-.22-.05-.34-.18-.34-.39,0-.22.08-.4.23-.54.45-.4,1.02-.77,1.73-1.13Z"/>
  </g>
  <g>
    <path d="M86.4,72.95c-1.13,0-1.85-.35-2.11-.5-.16-.3-.34-1.26-.36-1.89.07-.09.27-.12.32-.04.2.69.76,2.01,2.32,2.01,1.13,0,1.69-.74,1.69-1.55,0-.59-.12-1.26-1.11-1.89l-1.28-.84c-.68-.45-1.46-1.22-1.46-2.32,0-1.28,1-2.32,2.76-2.32.42,0,.91.08,1.26.18.18.05.36.08.47.08.12.32.24,1.08.24,1.65-.05.08-.27.12-.34.04-.18-.65-.54-1.53-1.84-1.53s-1.61.88-1.61,1.5c0,.78.65,1.35,1.15,1.66l1.08.68c.85.53,1.69,1.31,1.69,2.59,0,1.49-1.12,2.5-2.88,2.5Z"/>
    <path d="M91.17,65.11c0-.8-.01-.88-.42-1.12l-.14-.08c-.07-.04-.07-.23,0-.27.34-.11.97-.31,1.46-.57.05,0,.11.03.14.08-.01.41-.04,1.08-.04,1.68v2.84c0,.12.01.23.05.26.49-.38,1.13-.7,1.82-.7,1.28,0,1.74.8,1.74,1.74v2.26c0,.97.03,1.12.51,1.18l.36.04c.09.07.07.3-.03.34-.49-.03-.88-.04-1.35-.04s-.89.01-1.26.04c-.09-.04-.12-.27-.03-.34l.27-.04c.5-.08.51-.2.51-1.18v-1.93c0-.86-.42-1.45-1.28-1.45-.46,0-.81.16-1.05.36-.24.2-.28.27-.28.74v2.27c0,.97.03,1.11.51,1.18l.28.04c.09.05.07.3-.03.34-.41-.03-.8-.04-1.27-.04s-.89.01-1.32.04c-.09-.04-.12-.27-.03-.34l.34-.04c.5-.05.51-.2.51-1.18v-6.11Z"/>
    <path d="M100.14,69.93c.2-.07.23-.19.23-.39v-.62c.03-.5-.14-1.18-.97-1.18-.38,0-.84.19-.86.61-.01.22-.03.38-.14.46-.2.16-.57.26-.77.26-.12,0-.19-.07-.19-.19,0-.7,1.53-1.66,2.51-1.66s1.45.57,1.41,1.58l-.08,2.35c-.03.62.09,1.18.62,1.18.14,0,.26-.04.34-.08.07-.04.14-.09.18-.09.05,0,.09.08.09.18,0,.07-.47.59-1.13.59-.32,0-.65-.12-.88-.42-.05-.08-.14-.19-.22-.19-.09,0-.26.12-.53.27-.3.16-.59.34-.97.34s-.72-.11-.95-.31c-.26-.23-.42-.57-.42-.95,0-.53.26-.84,1.12-1.15l1.61-.58ZM99.3,72.31c.27,0,.69-.2.82-.34.16-.16.16-.35.18-.63l.03-.8c0-.15-.05-.18-.14-.18s-.31.05-.55.14c-.8.27-1.19.47-1.19,1,0,.23.16.81.85.81Z"/>
    <path d="M103.72,68.85c0-.53,0-.59-.36-.84l-.12-.08c-.05-.05-.05-.2.01-.24.31-.11,1.08-.46,1.35-.66.05,0,.12.03.15.09-.03.31-.03.51-.03.64,0,.08.05.15.15.15.57-.35,1.2-.69,1.89-.69,1.12,0,1.58.77,1.58,1.68v2.32c0,.97.03,1.11.51,1.18l.3.04c.09.07.07.3-.03.34-.41-.03-.8-.04-1.27-.04s-.89.01-1.26.04c-.09-.04-.12-.27-.03-.34l.26-.04c.5-.08.51-.2.51-1.18v-2.01c0-.77-.35-1.34-1.27-1.34-.51,0-.96.22-1.15.47-.18.23-.2.42-.2.81v2.07c0,.97.03,1.09.51,1.18l.24.04c.09.07.07.3-.03.34-.36-.03-.76-.04-1.23-.04s-.89.01-1.27.04c-.09-.04-.12-.27-.03-.34l.28-.04c.5-.07.51-.2.51-1.18v-2.36Z"/>
    <path d="M115.51,67.71c.15.07.12.53-.08.55h-.97c.03.23.03.46.03.69,0,.93-.55,2.15-2.27,2.15-.24,0-.43-.03-.59-.04-.16.09-.59.35-.59.74,0,.31.31.57.95.57.46,0,1.01-.04,1.61-.04.76,0,1.89.14,1.89,1.49,0,1.47-1.61,2.55-3.36,2.55-1.66,0-2.24-.89-2.24-1.57,0-.22.05-.39.15-.5.23-.24.61-.59.92-.91.12-.12.23-.24.11-.32-.53-.14-.99-.59-.99-1.07,0-.07.05-.12.2-.23.23-.15.49-.38.72-.62.07-.08.14-.19.14-.26-.46-.24-1.01-.77-1.01-1.63,0-1.16,1-2.04,2.2-2.04.51,0,.99.14,1.3.27.43.19.53.22.82.22h1.09ZM112.69,73.16c-.43,0-.97.03-1.16.15-.32.2-.65.62-.65,1.13,0,.73.58,1.34,1.81,1.34s2-.68,2-1.45c0-.82-.57-1.18-1.54-1.18h-.46ZM113.52,69.3c0-.92-.38-1.69-1.2-1.69-.65,0-1.13.59-1.13,1.51s.58,1.58,1.23,1.58c.73,0,1.11-.58,1.11-1.41Z"/>
    <path d="M116.7,65.11c0-.8-.01-.88-.42-1.12l-.14-.08c-.07-.04-.07-.23,0-.27.34-.11.97-.31,1.46-.57.05,0,.11.03.14.08-.01.41-.04,1.08-.04,1.68v2.84c0,.12.01.23.05.26.49-.38,1.13-.7,1.82-.7,1.28,0,1.74.8,1.74,1.74v2.26c0,.97.03,1.12.51,1.18l.36.04c.09.07.07.3-.03.34-.49-.03-.88-.04-1.35-.04s-.89.01-1.26.04c-.09-.04-.12-.27-.03-.34l.27-.04c.5-.08.51-.2.51-1.18v-1.93c0-.86-.42-1.45-1.28-1.45-.46,0-.81.16-1.05.36-.24.2-.28.27-.28.74v2.27c0,.97.03,1.11.51,1.18l.28.04c.09.05.07.3-.03.34-.41-.03-.8-.04-1.27-.04s-.89.01-1.32.04c-.09-.04-.12-.27-.03-.34l.34-.04c.5-.05.51-.2.51-1.18v-6.11Z"/>
    <path d="M125.67,69.93c.2-.07.23-.19.23-.39v-.62c.03-.5-.14-1.18-.97-1.18-.38,0-.84.19-.86.61-.01.22-.03.38-.14.46-.2.16-.57.26-.77.26-.12,0-.19-.07-.19-.19,0-.7,1.53-1.66,2.51-1.66s1.45.57,1.41,1.58l-.08,2.35c-.03.62.09,1.18.62,1.18.14,0,.26-.04.34-.08.07-.04.14-.09.18-.09.05,0,.09.08.09.18,0,.07-.47.59-1.13.59-.32,0-.65-.12-.88-.42-.05-.08-.14-.19-.22-.19-.09,0-.26.12-.53.27-.3.16-.59.34-.97.34s-.72-.11-.95-.31c-.26-.23-.42-.57-.42-.95,0-.53.26-.84,1.12-1.15l1.61-.58ZM124.83,72.31c.27,0,.69-.2.82-.34.16-.16.16-.35.18-.63l.03-.8c0-.15-.05-.18-.14-.18s-.31.05-.55.14c-.8.27-1.19.47-1.19,1,0,.23.16.81.85.81Z"/>
    <path d="M129.25,68.85c0-.53,0-.59-.36-.84l-.12-.08c-.05-.05-.05-.2.01-.24.31-.11,1.08-.46,1.39-.66.07,0,.12.03.14.08-.03.47-.05,1.12-.05,1.68v2.43c0,.97.03,1.11.51,1.18l.28.04c.09.07.07.3-.03.34-.41-.03-.8-.04-1.27-.04s-.89.01-1.27.04c-.09-.04-.12-.27-.03-.34l.28-.04c.5-.07.51-.2.51-1.18v-2.36ZM130.37,65c0,.49-.34.7-.72.7-.42,0-.69-.31-.69-.68,0-.45.32-.73.73-.73s.68.32.68.7Z"/>
    <path d="M137.07,64.75c.99-.77,2.24-1.15,3.65-1.15.73,0,1.76.15,2.39.32.16.04.26.07.38.05.01.31.08,1.16.19,1.99-.07.09-.27.11-.36.03-.2-.92-.81-1.97-2.77-1.97-2.07,0-3.82,1.31-3.82,4.11s1.8,4.4,4.01,4.4c1.74,0,2.51-1.13,2.82-1.93.09-.07.3-.04.35.05-.09.7-.45,1.59-.65,1.85-.16.03-.32.08-.47.14-.3.11-1.27.31-2.13.31-1.22,0-2.38-.24-3.36-.91-1.08-.74-1.92-1.97-1.92-3.72,0-1.5.68-2.78,1.7-3.58Z"/>
    <path d="M150.26,70.02c0,1.69-1.16,2.9-2.85,2.9-1.55,0-2.77-1.09-2.77-2.78s1.28-2.92,2.88-2.92,2.74,1.13,2.74,2.8ZM147.36,67.62c-.89,0-1.55.85-1.55,2.34,0,1.23.55,2.55,1.74,2.55s1.55-1.24,1.55-2.28c0-1.15-.46-2.61-1.74-2.61Z"/>
    <path d="M152.92,71.22c0,.97.03,1.11.51,1.18l.32.04c.09.07.07.3-.03.34-.45-.03-.84-.04-1.31-.04s-.89.01-1.3.04c-.09-.04-.12-.27-.03-.34l.31-.04c.5-.07.51-.2.51-1.18v-6.11c0-.8-.01-.88-.42-1.12l-.14-.08c-.07-.04-.07-.23,0-.27.34-.11.97-.31,1.46-.57.05,0,.11.03.14.08-.01.41-.04,1.08-.04,1.68v6.39Z"/>
    <path d="M156.26,71.22c0,.97.03,1.11.51,1.18l.32.04c.09.07.07.3-.03.34-.45-.03-.84-.04-1.31-.04s-.89.01-1.3.04c-.09-.04-.12-.27-.03-.34l.31-.04c.5-.07.51-.2.51-1.18v-6.11c0-.8-.01-.88-.42-1.12l-.14-.08c-.07-.04-.07-.23,0-.27.34-.11.97-.31,1.46-.57.05,0,.11.03.14.08-.01.41-.04,1.08-.04,1.68v6.39Z"/>
    <path d="M159.16,69.27c-.35,0-.36.03-.36.36,0,1.36.8,2.53,2.24,2.53.45,0,.82-.14,1.24-.66.14-.04.23.04.24.16-.45.92-1.42,1.26-2.12,1.26-.88,0-1.57-.38-1.96-.89-.41-.53-.57-1.16-.57-1.76,0-1.66,1.09-3.05,2.72-3.05,1.16,0,1.92.8,1.92,1.61,0,.19-.03.3-.05.35-.04.08-.23.09-.8.09h-2.5ZM160,68.87c1,0,1.3-.05,1.41-.14.04-.03.08-.08.08-.26,0-.38-.26-.85-1.04-.85s-1.49.73-1.5,1.18c0,.03,0,.07.09.07h.96Z"/>
    <path d="M168.78,67.71c.15.07.12.53-.08.55h-.97c.03.23.03.46.03.69,0,.93-.55,2.15-2.27,2.15-.24,0-.43-.03-.59-.04-.16.09-.59.35-.59.74,0,.31.31.57.95.57.46,0,1.01-.04,1.61-.04.76,0,1.89.14,1.89,1.49,0,1.47-1.61,2.55-3.36,2.55-1.66,0-2.24-.89-2.24-1.57,0-.22.05-.39.15-.5.23-.24.61-.59.92-.91.12-.12.23-.24.11-.32-.53-.14-.99-.59-.99-1.07,0-.07.05-.12.2-.23.23-.15.49-.38.72-.62.07-.08.14-.19.14-.26-.46-.24-1.01-.77-1.01-1.63,0-1.16,1-2.04,2.2-2.04.51,0,.99.14,1.3.27.43.19.53.22.82.22h1.09ZM165.96,73.16c-.43,0-.97.03-1.16.15-.32.2-.65.62-.65,1.13,0,.73.58,1.34,1.81,1.34s2-.68,2-1.45c0-.82-.57-1.18-1.54-1.18h-.46ZM166.8,69.3c0-.92-.38-1.69-1.2-1.69-.65,0-1.13.59-1.13,1.51s.58,1.58,1.23,1.58c.73,0,1.11-.58,1.11-1.41Z"/>
    <path d="M170.1,68.85c0-.53,0-.59-.36-.84l-.12-.08c-.05-.05-.05-.2.01-.24.31-.11,1.08-.46,1.39-.66.07,0,.12.03.14.08-.03.47-.05,1.12-.05,1.68v2.43c0,.97.03,1.11.51,1.18l.28.04c.09.07.07.3-.03.34-.41-.03-.8-.04-1.27-.04s-.89.01-1.27.04c-.09-.04-.12-.27-.03-.34l.28-.04c.5-.07.51-.2.51-1.18v-2.36ZM171.23,65c0,.49-.34.7-.72.7-.42,0-.69-.31-.69-.68,0-.45.32-.73.73-.73s.68.32.68.7Z"/>
    <path d="M175.45,69.93c.2-.07.23-.19.23-.39v-.62c.03-.5-.14-1.18-.97-1.18-.38,0-.84.19-.86.61-.01.22-.03.38-.14.46-.2.16-.57.26-.77.26-.12,0-.19-.07-.19-.19,0-.7,1.53-1.66,2.51-1.66s1.45.57,1.4,1.58l-.08,2.35c-.03.62.09,1.18.62,1.18.14,0,.26-.04.34-.08.07-.04.14-.09.18-.09.05,0,.09.08.09.18,0,.07-.47.59-1.13.59-.32,0-.65-.12-.88-.42-.05-.08-.14-.19-.22-.19-.09,0-.26.12-.53.27-.3.16-.59.34-.97.34s-.72-.11-.95-.31c-.26-.23-.42-.57-.42-.95,0-.53.26-.84,1.12-1.15l1.61-.58ZM174.62,72.31c.27,0,.69-.2.82-.34.16-.16.16-.35.18-.63l.03-.8c0-.15-.05-.18-.14-.18s-.31.05-.55.14c-.8.27-1.19.47-1.19,1,0,.23.16.81.85.81Z"/>
    <path d="M180.14,67.98c-.23,0-.24.04-.24.32v2.53c0,.78.09,1.5.99,1.5.14,0,.26-.03.36-.07.12-.04.3-.19.34-.19.11,0,.16.15.14.23-.24.28-.73.62-1.42.62-1.16,0-1.41-.65-1.41-1.46v-3.09c0-.36-.01-.39-.28-.39h-.38c-.08-.05-.09-.2-.04-.28.39-.12.73-.3.86-.42.18-.16.43-.53.57-.8.07-.03.23-.03.28.07v.61c0,.24.01.26.24.26h1.5c.16.12.14.49.01.57h-1.53Z"/>
    <path d="M183.61,69.27c-.35,0-.36.03-.36.36,0,1.36.8,2.53,2.24,2.53.45,0,.82-.14,1.24-.66.14-.04.23.04.24.16-.45.92-1.42,1.26-2.12,1.26-.88,0-1.57-.38-1.96-.89-.41-.53-.57-1.16-.57-1.76,0-1.66,1.09-3.05,2.72-3.05,1.16,0,1.92.8,1.92,1.61,0,.19-.03.3-.05.35-.04.08-.23.09-.8.09h-2.5ZM184.45,68.87c1,0,1.3-.05,1.41-.14.04-.03.08-.08.08-.26,0-.38-.26-.85-1.04-.85s-1.49.73-1.5,1.18c0,.03,0,.07.09.07h.96Z"/>
    <path d="M195.55,70.7c0,1.42.03,1.62.81,1.69l.43.04c.08.05.05.3-.03.34-.77-.03-1.23-.04-1.77-.04s-1.01.01-1.88.04c-.08-.04-.11-.27,0-.34l.49-.04c.77-.07.84-.27.84-1.69v-6.04c0-.42,0-.43-.41-.43h-.74c-.58,0-1.32.03-1.66.34-.32.3-.46.59-.61.93-.11.08-.3.01-.35-.09.22-.61.42-1.47.51-2.01.04-.03.22-.04.26,0,.08.43.53.42,1.15.42h5.47c.73,0,.85-.03,1.05-.38.07-.03.22-.01.24.04-.15.55-.24,1.65-.2,2.05-.05.11-.28.11-.35.03-.04-.34-.14-.84-.34-.99-.31-.23-.82-.34-1.57-.34h-.96c-.41,0-.39.01-.39.46v6.01Z"/>
    <path d="M205.59,70.02c0,1.69-1.16,2.9-2.85,2.9-1.55,0-2.77-1.09-2.77-2.78s1.28-2.92,2.88-2.92,2.74,1.13,2.74,2.8ZM202.68,67.62c-.89,0-1.55.85-1.55,2.34,0,1.23.55,2.55,1.74,2.55s1.55-1.24,1.55-2.28c0-1.15-.46-2.61-1.74-2.61Z"/>
    <path d="M208.21,70.74c0,.93.23,1.55,1.26,1.55.36,0,.8-.15,1.09-.41.18-.16.27-.36.27-.78v-2.22c0-.88-.09-.91-.5-1.07l-.18-.07c-.09-.05-.09-.24.01-.3.54-.01,1.28-.11,1.58-.24.07.01.11.04.12.09-.03.26-.04.68-.04,1.18v2.27c0,1.07.04,1.47.42,1.47.16,0,.34-.03.53-.07.08.07.09.34-.01.39-.53.11-1.31.24-1.77.5-.07,0-.14-.04-.16-.09v-.55c0-.12-.04-.19-.12-.19-.41.26-1.07.7-1.86.7-1.19,0-1.63-.59-1.63-1.69v-2.26c0-.85,0-.97-.41-1.15l-.16-.07c-.08-.07-.07-.26.03-.3.62-.01,1.15-.14,1.45-.24.08.01.12.04.14.09-.03.23-.04.51-.04,1.18v2.26Z"/>
    <path d="M214.16,65.11c0-.8-.01-.88-.42-1.12l-.14-.08c-.07-.04-.07-.23,0-.27.34-.11.97-.31,1.46-.57.05,0,.11.03.14.08-.01.41-.04,1.08-.04,1.68v2.84c0,.12.01.23.05.26.49-.38,1.13-.7,1.82-.7,1.28,0,1.74.8,1.74,1.74v2.26c0,.97.03,1.12.51,1.18l.36.04c.09.07.07.3-.03.34-.49-.03-.88-.04-1.35-.04s-.89.01-1.26.04c-.09-.04-.12-.27-.03-.34l.27-.04c.5-.08.51-.2.51-1.18v-1.93c0-.86-.42-1.45-1.28-1.45-.46,0-.81.16-1.05.36-.24.2-.28.27-.28.74v2.27c0,.97.03,1.11.51,1.18l.28.04c.09.05.07.3-.03.34-.41-.03-.8-.04-1.27-.04s-.89.01-1.32.04c-.09-.04-.12-.27-.03-.34l.34-.04c.5-.05.51-.2.51-1.18v-6.11Z"/>
    <path d="M226.03,70.02c0,1.69-1.16,2.9-2.85,2.9-1.55,0-2.77-1.09-2.77-2.78s1.28-2.92,2.88-2.92,2.74,1.13,2.74,2.8ZM223.12,67.62c-.89,0-1.55.85-1.55,2.34,0,1.23.55,2.55,1.74,2.55s1.55-1.24,1.55-2.28c0-1.15-.46-2.61-1.74-2.61Z"/>
    <path d="M228.64,70.74c0,.93.23,1.55,1.26,1.55.36,0,.8-.15,1.09-.41.18-.16.27-.36.27-.78v-2.22c0-.88-.09-.91-.5-1.07l-.18-.07c-.09-.05-.09-.24.01-.3.54-.01,1.28-.11,1.58-.24.07.01.11.04.12.09-.03.26-.04.68-.04,1.18v2.27c0,1.07.04,1.47.42,1.47.16,0,.34-.03.53-.07.08.07.09.34-.01.39-.53.11-1.31.24-1.77.5-.07,0-.14-.04-.16-.09v-.55c0-.12-.04-.19-.12-.19-.41.26-1.07.7-1.86.7-1.19,0-1.63-.59-1.63-1.69v-2.26c0-.85,0-.97-.41-1.15l-.16-.07c-.08-.07-.07-.26.03-.3.62-.01,1.15-.14,1.45-.24.08.01.12.04.14.09-.03.23-.04.51-.04,1.18v2.26Z"/>
    <path d="M242.29,69.6c-.09-.3-.15-.34-.55-.34h-2.04c-.34,0-.42.04-.51.32l-.47,1.42c-.2.61-.3.97-.3,1.12,0,.16.07.24.39.27l.45.04c.09.07.09.28-.03.34-.35-.03-.77-.03-1.41-.04-.45,0-.93.03-1.3.04-.08-.05-.11-.27-.03-.34l.45-.04c.32-.03.62-.18.81-.66.24-.62.62-1.5,1.19-3.01l1.38-3.65c.19-.49.27-.74.23-.96.32-.09.55-.34.7-.51.08,0,.18.03.2.12.18.59.39,1.22.59,1.81l1.85,5.43c.39,1.16.57,1.36,1.15,1.43l.36.04c.09.07.07.28,0,.34-.55-.03-1.03-.04-1.63-.04-.65,0-1.16.03-1.55.04-.11-.05-.12-.27-.03-.34l.39-.04c.28-.03.47-.11.47-.24,0-.15-.07-.39-.18-.72l-.59-1.84ZM239.61,68.39c-.11.31-.09.32.28.32h1.66c.39,0,.42-.05.3-.42l-.73-2.2c-.11-.32-.23-.69-.31-.85h-.03c-.04.07-.18.39-.32.8l-.85,2.35Z"/>
    <path d="M248.91,67.46c.12.3.22.73.22,1.09-.05.09-.26.12-.32.04-.23-.59-.63-.99-1.19-.99s-.86.34-.86.82c0,.55.57.85,1.04,1.12.72.41,1.38.86,1.38,1.82,0,1.03-.95,1.54-1.95,1.54-.63,0-1.11-.14-1.45-.41-.11-.26-.19-.92-.16-1.36.07-.08.24-.09.31-.01.23.74.66,1.39,1.43,1.39.49,0,.9-.28.9-.86,0-.62-.54-.96-1.04-1.24-.78-.45-1.34-.92-1.34-1.66,0-.99.81-1.54,1.84-1.54.57,0,1.07.14,1.19.24Z"/>
    <path d="M253.27,67.46c.12.3.22.73.22,1.09-.05.09-.26.12-.32.04-.23-.59-.63-.99-1.19-.99s-.86.34-.86.82c0,.55.57.85,1.04,1.12.72.41,1.38.86,1.38,1.82,0,1.03-.95,1.54-1.95,1.54-.63,0-1.11-.14-1.45-.41-.11-.26-.19-.92-.16-1.36.07-.08.24-.09.31-.01.23.74.66,1.39,1.43,1.39.49,0,.9-.28.9-.86,0-.62-.54-.96-1.04-1.24-.78-.45-1.34-.92-1.34-1.66,0-.99.81-1.54,1.84-1.54.57,0,1.07.14,1.19.24Z"/>
    <path d="M260.02,70.02c0,1.69-1.16,2.9-2.85,2.9-1.55,0-2.77-1.09-2.77-2.78s1.28-2.92,2.88-2.92,2.74,1.13,2.74,2.8ZM257.12,67.62c-.89,0-1.55.85-1.55,2.34,0,1.23.55,2.55,1.74,2.55s1.55-1.24,1.55-2.28c0-1.15-.46-2.61-1.74-2.61Z"/>
    <path d="M265.45,67.45c.11.09.2.31.2.54,0,.24-.14.5-.3.5-.07,0-.14-.03-.19-.09-.3-.36-.8-.72-1.35-.72-.95,0-1.86.74-1.86,2.18,0,1.05.73,2.31,2.17,2.31.78,0,1.19-.35,1.5-.81.11-.03.23.07.24.19-.46,1-1.47,1.38-2.26,1.38-.72,0-1.38-.23-1.85-.69-.47-.46-.78-1.12-.78-2,0-1.46,1.03-3.01,3.27-3.01.31,0,.84.07,1.2.23Z"/>
    <path d="M267.22,68.85c0-.53,0-.59-.36-.84l-.12-.08c-.05-.05-.05-.2.01-.24.31-.11,1.08-.46,1.39-.66.07,0,.12.03.14.08-.03.47-.05,1.12-.05,1.68v2.43c0,.97.03,1.11.51,1.18l.28.04c.09.07.07.3-.03.34-.41-.03-.8-.04-1.27-.04s-.89.01-1.27.04c-.09-.04-.12-.27-.03-.34l.28-.04c.5-.07.51-.2.51-1.18v-2.36ZM268.34,65c0,.49-.34.7-.72.7-.42,0-.69-.31-.69-.68,0-.45.32-.73.73-.73s.68.32.68.7Z"/>
    <path d="M272.57,69.93c.2-.07.23-.19.23-.39v-.62c.03-.5-.14-1.18-.97-1.18-.38,0-.84.19-.86.61-.01.22-.03.38-.14.46-.2.16-.57.26-.77.26-.12,0-.19-.07-.19-.19,0-.7,1.53-1.66,2.51-1.66s1.45.57,1.4,1.58l-.08,2.35c-.03.62.09,1.18.62,1.18.14,0,.26-.04.34-.08.07-.04.14-.09.18-.09.05,0,.09.08.09.18,0,.07-.47.59-1.13.59-.32,0-.65-.12-.88-.42-.05-.08-.14-.19-.22-.19-.09,0-.26.12-.53.27-.3.16-.59.34-.97.34s-.72-.11-.95-.31c-.26-.23-.42-.57-.42-.95,0-.53.26-.84,1.12-1.15l1.61-.58ZM271.73,72.31c.27,0,.69-.2.82-.34.16-.16.16-.35.18-.63l.03-.8c0-.15-.05-.18-.14-.18s-.31.05-.55.14c-.8.27-1.19.47-1.19,1,0,.23.16.81.85.81Z"/>
    <path d="M277.26,67.98c-.23,0-.24.04-.24.32v2.53c0,.78.09,1.5.99,1.5.14,0,.26-.03.36-.07.12-.04.3-.19.34-.19.11,0,.16.15.14.23-.24.28-.73.62-1.42.62-1.16,0-1.41-.65-1.41-1.46v-3.09c0-.36-.01-.39-.28-.39h-.38c-.08-.05-.09-.2-.04-.28.39-.12.73-.3.86-.42.18-.16.43-.53.57-.8.07-.03.23-.03.28.07v.61c0,.24.01.26.24.26h1.5c.16.12.14.49.01.57h-1.53Z"/>
    <path d="M280.3,68.85c0-.53,0-.59-.36-.84l-.12-.08c-.05-.05-.05-.2.01-.24.31-.11,1.08-.46,1.39-.66.07,0,.12.03.14.08-.03.47-.05,1.12-.05,1.68v2.43c0,.97.03,1.11.51,1.18l.28.04c.09.07.07.3-.03.34-.41-.03-.8-.04-1.27-.04s-.89.01-1.27.04c-.09-.04-.12-.27-.03-.34l.28-.04c.5-.07.51-.2.51-1.18v-2.36ZM281.42,65c0,.49-.34.7-.72.7-.42,0-.69-.31-.69-.68,0-.45.32-.73.73-.73s.68.32.68.7Z"/>
    <path d="M288.54,70.02c0,1.69-1.16,2.9-2.85,2.9-1.55,0-2.77-1.09-2.77-2.78s1.28-2.92,2.88-2.92,2.74,1.13,2.74,2.8ZM285.63,67.62c-.89,0-1.55.85-1.55,2.34,0,1.23.55,2.55,1.74,2.55s1.55-1.24,1.55-2.28c0-1.15-.46-2.61-1.74-2.61Z"/>
    <path d="M290.33,68.85c0-.53,0-.59-.36-.84l-.12-.08c-.05-.05-.05-.2.01-.24.31-.11,1.08-.46,1.35-.66.05,0,.12.03.15.09-.03.31-.03.51-.03.64,0,.08.05.15.15.15.57-.35,1.2-.69,1.89-.69,1.12,0,1.58.77,1.58,1.68v2.32c0,.97.03,1.11.51,1.18l.3.04c.09.07.07.3-.03.34-.41-.03-.8-.04-1.27-.04s-.89.01-1.26.04c-.09-.04-.12-.27-.03-.34l.26-.04c.5-.08.51-.2.51-1.18v-2.01c0-.77-.35-1.34-1.27-1.34-.51,0-.96.22-1.15.47-.18.23-.2.42-.2.81v2.07c0,.97.03,1.09.51,1.18l.24.04c.09.07.07.3-.03.34-.36-.03-.76-.04-1.23-.04s-.89.01-1.27.04c-.09-.04-.12-.27-.03-.34l.28-.04c.5-.07.51-.2.51-1.18v-2.36Z"/>
  </g>
  <g>
    <g>
      <path class="cls-3" d="M53.94,43.96c-.49.17-.96.17-1.42.02-.19-.06-.32-.07-.41.15-1.18,2.79-3.32,4.62-5.99,5.89-.02.01-.03.04-.05.07.51.25,1.59-.07,3.07-.93-.5,1.08-2.78,2.65-3.85,2.65.11-.21.24-.4.32-.61.06-.17.1-.33.08-.5-.02-.14-.07-.24-.1-.29-.18-.36.04-.88.17-1.31.17-.57.2-1.02.22-1.42.04-.66-.04-.93.06-1.66.04-.28.06-.42.12-.59.17-.48.44-.69.88-1.24.35-.44.23-.36.61-.84,0,0,1.11-1.68,1.36-2.07,0,0,.08-.13.24-.31.3-.32.38-.3.51.11.18.54.5.97.95,1.3.07-.04.06-.08.03-.11-.82-.74-.95-1.72-.81-2.72.12-.84-.13-1.51-.64-2.13-.23-.29-.46-.58-.72-.85.15.43.35.82.63,1.16.52.65.61,1.34.19,2.06-.4.69-1.06.93-1.89,1,.21-.29.47-.44.59-.83-.79.45-1.58.67-2.46.71.35-.33.69-.61.99-.93.51-.53.51-.74.09-1.34-.25-.36-.27-.73-.05-1.1.11-.19.23-.37.35-.55.11-.18.32-.3.35-.68-.52.54-1.11.84-1.51,1.35-.24.3-.11.63.07.93.41.67.33.97-.3,1.46-.57.45-1.2.74-1.92.85-.16.02-.31.06-.51-.03.13-.09.24-.16.34-.23.54-.38.72-.79.53-1.42-.13-.41-.03-.72.22-1.04.42-.55.88-1.09,1.14-1.74.2-.51.26-1.02.07-1.57.04,1.26-.94,1.92-1.59,2.76-.39.51-.66,1.02-.45,1.68.08.25-.06.44-.26.6-.5.38-1.09.45-1.69.45-.81,0-1.62.04-2.42.25-.41.11-.8.24-1.17.5.25-.48.34-1.02.71-1.45.84-.99,1.81-1.84,2.81-2.67.64-.53,1.21-1.13,1.68-1.82.12-.17.23-.35.23-.58-.67,1.18-1.69,2.02-2.72,2.85-1.26,1.01-2.27,2.23-3.25,3.5-.3.4-.53.83-.61,1.33-.12.72.23,1.3.72,1.74.68.6.77,1.27.48,2.07-.14.39-.21.8.26,1.07.16.09.12.21.02.32-.17.17-.33.38-.53.51-.9.57-1.9.82-3.01.91,1.48-1.14,2.2-2.49,1.31-4.3-.07-.01-.08.04-.07.07.27,1.49-.49,2.49-1.57,3.35-.71.56-1.46,1.05-2.28,1.43-1.06.49-1.61,1.35-1.94,2.43-.42,1.39-.15,1.17-1.63,1.08-.75-.05-1.32.1-1.79.71-.38.49-.87.89-1.16,1.51-.87-1.28-1.03-2.64-.63-4.07.24-.88.67-1.66,1.17-2.42,1.03-1.57,1.6-3.27,1.8-5.15.14-1.31-.2-2.46-.51-3.65-.34-1.29-.46-2.6-.22-3.92.1-.57.37-1.09.68-1.59.67-1.09,1.65-1.87,2.63-2.63,2.51-1.96,5.39-3.08,8.53-3.58,1.31-.21,2.62-.37,3.94-.27,1.22.09,2.34.42,3.13,1.46.1.13.21.22.4.21,1.26-.08,2.24.53,3.19,1.27,1.21.94,2.07,2.13,2.72,3.5.34.72.69,1.43.84,2.23.22,1.23-.08,2.38-.48,3.53-.07.19-.12.39-.22.56-.83,1.52.15,2.89,1.21,3.43.06.03.13.06.19.08Z"/>
      <path class="cls-3" d="M27.26,41.7c-.14,1.19-.59,2.13-1.53,2.75-1.09.72-2.17,1.46-3.02,2.47-1.1,1.32-1.67,2.8-1.38,4.54.05.32.18.61.35.89.95,1.58.36,3.07-1.41,3.61-.71.22-1,.83-1.19,1.46-.44,1.46-.26,2.86.53,4.18.02.03.02.07.05.15-.73-.24-1.35-.58-1.89-1.08-1.96-1.83-3.19-3.97-3.17-6.75.02-3.01,1.28-5.36,3.66-7.14,1.4-1.05,3.01-1.68,4.61-2.31.7-.28,1.4-.56,2.07-.91,1.2-.63,1.44-.81,2.31-1.85Z"/>
      <path class="cls-3" d="M27.48,43.74c-.18,1.25-.6,2.3-1.14,3.29-.36.65-.75,1.28-1.12,1.92-.79,1.38-1.23,2.84-.82,4.57-.97-1.01-1.86-1.93-2.28-3.19-.2-.61-.08-1.17.21-1.72.7-1.32,1.81-2.25,2.97-3.14.7-.54,1.47-.98,2.18-1.73Z"/>
    </g>
    <g>
      <path class="cls-2" d="M34.13,61.96c-.28.43-.51.74-.7,1.07-.61,1.07-.79,2.2-.35,3.39.39,1.08,1.39,1.65,2.5,1.41.35-.08.44.15.5.38.11.41.28.79.4,1.19.19.62.56,1.1,1.04,1.52.68.58,1.55.48,2.06-.24.34-.48.7-.5,1-.07.1.14.08.25.03.4-.4,1.08-.19,1.8.74,2.48.41.3.83.6,1.29.8.58.25.98.67,1.29,1.18.87,1.43,1.54,2.95,2.08,4.54.05.14.12.25-.07.36-1.38.81-2,2.13-2.34,3.62-.06.24-.17.36-.38.47-1.12.55-1.93,1.37-2.21,2.63-.05.25-.13.32-.41.25-1.18-.32-2.31-.12-3.36.45-.27.15-.4.09-.59-.1-.96-.96-1.72-2.08-2.51-3.17-.83-1.16-1.65-2.31-2.78-3.22-.61-.5-1.07-1.14-1.58-1.73-.78-.91-1.73-1.42-2.95-1.43-1.36-.02-2.53-.55-3.57-1.41-.6-.5-1.09-1.09-1.47-1.77-1.41-2.52-2.27-5.19-2.26-8.12,0-1.09-.02-2.17.31-3.23.19-.61.54-1.04,1.24-1.12.54-.07,1.09-.18,1.62-.3.64-.15,1.25-.37,1.77-.8.22-.18.5-.3.76-.42.47-.21.82-.12,1.18.25.09.09.18.19.27.28.74.76,1.59,1.06,2.65.72.71-.23,1.39-.15,2.06.21.37.2.8.24,1.22.09.47-.17.94-.35,1.52-.57Z"/>
      <path class="cls-2" d="M36.81,89.39c-1.3-.02-2.36-.4-3.02-1.57-.52-.91-.71-1.93-1.03-2.9-.06-.19-.11-.39-.19-.58-.14-.36-.38-.53-.78-.39-1.15.39-1.94.14-2.89-1.08-.58-.75-.93-1.64-1.41-2.45-.34-.57-.77-.88-1.45-.81-2.75.3-4.49-1.6-5.34-3.51-.44-.98-.73-2.02-1.01-3.05-.08-.3-.15-.51-.55-.37-.33.12-.57-.12-.76-.37-.61-.83-.76-1.81-.82-2.8-.04-.66-.04-1.33.02-2,.03-.27-.09-.39-.32-.4-.35-.01-.43-.24-.46-.52-.11-.89.12-1.7.58-2.45.15-.25.37-.5.7-.43.34.07.45.37.5.69.14,1.01-.07,1.99-.15,2.99-.09,1.05-.19,2.11-.21,3.17,0,.09-.04.2.06.3.03-.01.09-.01.1-.04.12-.22.24-.45.54-.43.32.02.44.28.56.54.57,1.12.93,2.31,1.34,3.49.46,1.32,1.04,2.59,2.05,3.6.59.6,1.27,1.06,2.07,1.33.16.06.45.24.36-.23-.06-.35.35-.54.77-.38.66.24,1.19.65,1.66,1.16.65.71,1.16,1.53,1.76,2.27.45.55.97.98,1.64,1.23.12-.19-.03-.32-.03-.48,0-.21-.07-.45.15-.6.23-.16.41.03.59.15.37.25.61.62.82,1.01.46.84.87,1.71,1.14,2.63.15.49.35.95.6,1.4.44.77,1.06,1.33,1.91,1.64.17.06.37.08.53.26Z"/>
      <path class="cls-2" d="M24.12,57.54c.55.52,1.1.98,1.77,1.28.35.16.7.07,1.01-.06,1.08-.45,2.18-.86,3.31-1.19.14-.04.27-.12.41-.14.29-.06.55.02.73.27.17.25-.02.44-.13.63-.06.1-.15.18-.22.27-.13.16-.43.25-.31.51.12.27.36.43.68.48,1.32.19,2.46-.26,3.51-.99,1.06-.72,2.01-1.57,2.93-2.46.35-.34.72-.58,1.24-.43.4.12.66.52.5.9-.22.54-.53,1.03-.97,1.43-.19.17-.34.18-.5-.04-.17-.22-.35-.43-.54-.63-.18-.2-.35-.24-.57,0-.53.58-1.12,1.1-1.75,1.57-.9.67-1.89,1.12-3.02,1.23-1.13.11-2.35-.53-2.86-1.54-.15-.31-.31-.33-.57-.16-.33.21-.67.41-1,.61-1.08.66-2.11.48-3.09-.21-.64-.45-1.18-1.02-1.6-1.7-.29-.48-.38-.99-.41-1.53,0-.1-.03-.21.07-.28.13-.09.22.03.3.1.26.21.56.37.86.5.81.37,1.39.27,2.02-.36.24-.23.48-.46.71-.71.56-.61,1.24-.97,2.07-1.08,1.03-.12,1.63-.82,2.05-1.7.49-1.05,1.29-1.77,2.3-2.28.56-.28,1.18-.3,1.78-.37.33-.04.67-.03,1.02,0-.39.24-.81.38-1.25.43-1.53.16-2.55,1.08-3.16,2.37-.63,1.32-1.59,1.97-2.99,2.11-.4.04-.77.2-1.05.48-.5.48-1.06.91-1.45,1.5-.08.12-.18.22-.28.33-.41.47-.84.89-1.56.85Z"/>
      <path class="cls-2" d="M41.57,72.42c.24.44.67.58,1.11.65.29.04.35.12.29.41-.07.37-.26.19-.44.15-.83-.18-1.3-.77-1.68-1.47-.25-.46.02-.86.19-1.23.14-.31.09-.48-.17-.64-.02-.02-.04-.04-.07-.06q-.8-.66-1.43.18c-.47.62-1.1.69-1.71.21-.66-.52-.87-1.28-1.09-2.03-.09-.31-.16-.62-.26-.92-.1-.3-.31-.4-.61-.29-.79.27-1.66-.08-2.1-.85-.47-.84-.48-1.73-.21-2.61.28-.89.85-1.61,1.57-2.2.1-.08.22-.21.34-.08.09.1-.05.21-.11.29-.4.54-.77,1.09-1.03,1.71-.38.93-.38,1.86-.02,2.8.05.13.13.26.22.37.12.15.33.17.48.13.22-.06.07-.25.05-.37-.05-.31-.02-.61.03-.91.06-.34.19-.65.61-.69.06,0,.12-.03.16-.07.65-.52,1.27-.31,1.88.08.64.4,1.24.88,2.08.8-.23.38-.78.54-1.25.37-.47-.16-.82-.49-1.18-.8-.3-.26-.61-.5-1.04-.45-.24.03-.42.06-.19.36.36.47.49,1.05.68,1.59.3.84.55,1.7.87,2.54.18.47.52.83,1.03,1.08-.11-.36-.22-.66-.29-.98-.25-1.13.37-1.75,1.5-1.52q1.07.22,1.64.03c-.3.49-.43.84-2.07.4.21.14.42.29.63.44.23.16.44.33.67.48.71.47,1.29,1.12,2.01,1.59.24.16.41.41.5.69.18.56-.14.98-.73.98-.31,0-.59-.1-.9-.17Z"/>
      <path class="cls-2" d="M52.36,45.74c-.24.72-.7,1.28-1.19,1.85.2.12.31,0,.42-.06.62-.32,1.24-.62,1.9-.86.18-.07.37-.13.51.07.15.2.02.37-.11.5-.34.36-.7.69-1.14,1.12.62-.22,1.11-.39,1.61-.57.18-.06.38-.13.5.09.12.2,0,.36-.12.51-.39.46-.87.81-1.35,1.16-1.98,1.44-3.98,2.87-5.97,4.3-.34.24-.69.47-1.09.6,1.88-2.13,4.3-3.61,6.48-5.39-.47.25-.94.51-1.42.76-.37.2-.74.39-1.12.58-.18.09-.39.18-.55-.04-.17-.23.02-.38.18-.51.81-.66,1.63-1.3,2.45-1.96.18-.14.35-.29.46-.52-.63.3-1.26.62-1.91.9-.21.09-.49.39-.69.1-.19-.27.16-.46.31-.64.59-.68,1.26-1.3,1.82-2.01Z"/>
      <path class="cls-2" d="M21.92,56.45c-.59.43-.81.9-.76,1.5.05.66.53.99,1.13.74.4-.17.68-.08.86.3.38.83,1.03,1.07,1.89.89.28-.06.58-.05.87-.06.56-.02,1.03.16,1.38.6.45.57,1.02.66,1.68.48.2-.05.4-.09.59-.16.66-.24,1.25-.27,1.88.2.64.48,1.37.28,2-.12.48-.31.93-.43,1.46-.15.23.12.51.06.77,0,.65-.16,1.27-.42,1.9-.62.7-.22,1.2-.67,1.6-1.27.35-.53.66-1.09,1.11-1.56.45-.46.74-.43,1.03.14.31.6.26,1.2.03,1.81-.05.12-.11.33-.28.26-.16-.06-.03-.23,0-.35.12-.55.24-1.11.08-1.68-.04-.14-.08-.29-.24-.34-.17-.05-.27.09-.36.2-.29.35-.51.74-.72,1.14-.23.42-.49.82-.8,1.19-.42.51-.97.79-1.63.79-.38,0-.71.1-1.01.32-.55.41-1.13.5-1.76.22-.24-.1-.47-.06-.7.1-.24.17-.48.33-.75.44-.77.31-1.51.24-2.17-.3-.29-.24-.57-.25-.89-.1-.41.18-.82.36-1.26.46-.76.18-1.43,0-1.91-.62-.35-.45-.76-.58-1.29-.52-.3.04-.61.03-.91.08-.87.14-1.5-.2-1.92-.96-.14-.25-.27-.3-.55-.2-.61.23-1.27-.1-1.47-.71-.21-.63-.11-1.24.25-1.79.16-.25.4-.41.87-.37Z"/>
      <path class="cls-2" d="M43.96,53.87c.09-.63.84-1.17,1.41-1.06.4.08.63.44.55.94-.1.59-.4,1.09-.77,1.54-.49.59-1.01,1.16-1.5,1.75-.48.58-.82,1.22-.92,1.98-.07.53.19.75.68.57.19-.07.37-.16.56-.23.18-.06.29-.24.51-.27.12.37.04.64-.31.83-.21.11-.4.24-.61.32-.87.3-1.55-.23-1.49-1.15.06-.9.46-1.67,1-2.36.51-.65,1.07-1.26,1.6-1.89.25-.3.46-.63.57-1.02.06-.2.13-.42-.04-.57-.19-.16-.38,0-.55.11-.24.15-.47.32-.68.52Z"/>
      <path class="cls-2" d="M43.48,85.68c-.87.55-1.2,1.4-1.31,2.37-.03.21,0,.43.2.54.23.11.37-.09.52-.21.02-.02.04-.05.06-.06.14-.1.23-.41.43-.26.24.18.03.43-.1.56-.46.49-.92,1-1.46,1.39-.52.38-1.11.18-1.65-.08-.44-.21-.81-.52-1.18-.82-.15-.12-.23-.15-.38.03-.21.27-1.24.4-1.51.22-.31-.2-.24-.71.14-.89.42-.2.87-.18,1.32-.06.5.13.93.39,1.37.64.56.32,1.15.56,1.82.43.13-.02.25-.08.36-.13.13-.06.2-.15.02-.24-.52-.25-.56-.71-.48-1.19.15-.9.67-1.59,1.37-2.15.14-.12.2-.11.47-.09Z"/>
      <path class="cls-2" d="M37.6,50.38c.51.36.72.85.63,1.44-.11.71.17,1.2.76,1.56.45.27.83.64,1.16,1.04.36.44.43.94.25,1.47-.04.13-.12.25-.28.23-.12-.02-.13-.15-.13-.25,0-.89-.55-1.46-1.17-1.98-.22-.19-.45-.37-.65-.58-.3-.32-.45-.71-.34-1.16.15-.62.21-1.23-.24-1.78Z"/>
    </g>
    <g>
      <g>
        <g>
          <path class="cls-1" d="M70.21,55.73c-.1,1.11-.18,2.16-.28,3.21-.16,1.78-.33,3.55-.5,5.33-.23,2.45-.45,4.91-.68,7.36-.24,2.53-.48,5.05-.7,7.58-.03.37-.16.6-.47.81-3.06,2.03-6.11,4.07-9.16,6.11-2.32,1.55-4.63,3.09-6.94,4.65-.26.17-.41.15-.64-.02-.26-.19-.04-.33.02-.48.55-1.28.57-2.62.48-3.98-.05-.77-.18-1.52-.37-2.27-.14-.57.02-1.15.08-1.73.4-3.78.81-7.55,1.21-11.33.11-1.07.24-2.13.34-3.2.02-.24.12-.39.32-.53,2.31-1.53,4.61-3.08,6.91-4.62,2.45-1.63,4.9-3.26,7.35-4.9.88-.59,1.76-1.18,2.64-1.77.1-.07.21-.13.37-.23Z"/>
          <path class="cls-1" d="M67.96,46.07c-.1,1.03-.19,1.96-.28,2.9-.08.79-.18,1.58-.24,2.38-.03.33-.14.56-.42.75-4.05,2.77-8.09,5.54-12.13,8.31-1.99,1.36-3.96,2.73-5.95,4.1-.04.03-.09.05-.2.12.09-1,.17-1.95.26-2.89.07-.81.18-1.61.22-2.42.02-.33.14-.52.4-.7,3.02-2.06,6.04-4.12,9.05-6.19,2.96-2.02,5.91-4.05,8.87-6.07.12-.08.24-.16.43-.28Z"/>
          <path class="cls-1" d="M67.54,45.69c-.07.22-.2.27-.3.35-1.59,1.09-3.19,2.18-4.78,3.27-1.63,1.12-3.25,2.24-4.88,3.35-2.12,1.45-4.24,2.89-6.37,4.34-.72.49-1.44.98-2.15,1.48-.27.19-.46.19-.73-.02-.83-.66-1.68-1.29-2.53-1.92-.25-.18-.21-.27.02-.43,2.68-1.82,5.35-3.64,8.03-5.46,3.01-2.05,6.01-4.11,9.02-6.17.44-.3.9-.59,1.34-.9.14-.1.24-.11.39,0,.92.68,1.85,1.35,2.78,2.02.06.04.13.07.16.08Z"/>
          <path class="cls-1" d="M69.87,55.19c-1.41.96-2.75,1.87-4.09,2.78-2.68,1.83-5.36,3.67-8.05,5.49-1.67,1.13-3.35,2.24-5.02,3.38-.26.18-.45.16-.7-.02-.85-.6-1.72-1.19-2.59-1.76-.31-.21-.26-.33.02-.52,3.79-2.61,7.57-5.22,11.35-7.83,1.79-1.23,3.59-2.47,5.38-3.7.15-.1.27-.2.46-.07,1.05.74,2.12,1.47,3.23,2.24Z"/>
          <path class="cls-1" d="M46.67,79.83c-.57-1.33-1.13-2.63-1.76-3.91-.33-.68-.7-1.33-1.15-1.94-.12-.16-.16-.32-.14-.53.23-2.25.46-4.5.69-6.75.21-2.13.41-4.27.61-6.41.1-1.05.2-2.11.29-3.16.03-.34.14-.39.42-.19.91.68,1.81,1.35,2.74,2.01.23.16.27.33.24.59-.29,2.84-.57,5.68-.84,8.53-.16,1.66-.29,3.32-.45,4.98-.17,1.72-.35,3.43-.52,5.15-.05.54-.08,1.09-.12,1.63Z"/>
        </g>
        <path class="cls-1" d="M50.57,82.96c-.48-.85-1.03-1.5-1.75-1.99-.43-.3-.89-.56-1.43-.56-.26,0-.28-.13-.26-.33.18-1.69.35-3.37.52-5.06.18-1.82.34-3.63.51-5.45.14-1.41.29-2.82.41-4.24.03-.37.15-.34.39-.17.99.73,1.99,1.45,3,2.17.2.14.23.31.21.52-.21,1.99-.43,3.98-.64,5.96-.25,2.42-.5,4.84-.75,7.26-.06.59-.13,1.17-.21,1.88Z"/>
      </g>
      <path class="cls-1" d="M50.7,86.72c-.01.51.03,2.1-.72,3.36-.16.27-.34.52-.59.73-.18.16-.7.6-1.48.64-.71.04-1.23-.27-1.52-.44-.22-.13-.48-.33-.77-.65-1.04-1.13-1.27-2.62-1.39-3.38-.19-1.21-.12-2.4.22-3.57.25-.84.67-1.58,1.42-2.08.8-.54,1.73-.48,2.51.11.79.6,1.32,1.38,1.69,2.28.42,1.02.65,2.07.62,3Z"/>
    </g>
    <path class="cls-1" d="M39.29,49.92c-1.23-.59-1.36-.93-.85-2.22.17-.43.39-.84.56-1.27.07-.19.17-.3.28-.36.18-.09.38-.03.51.02.56.21.92.55,1.59,1.03.41.3.53.35.68.35.22,0,.43-.17.84-.49.01-.01.07-.06.18-.14.21-.17.37-.3.38-.3.15-.12,1.38-1.03,1.86-.68.11.08.15.24.21.57.05.25.03.61-.02,1.32-.01.18-.02.31-.08.49-.02.05-.09.25-.25.49-.13.19-.29.34-.55.58-.18.17-.27.25-.26.35,0,.05.03.1.2.24.18.15.3.23.37.27.17.13.43.41.44.72,0,.19-.13.39-.4.72-.02.02-.07.1-.16.2-.35.42-.53.63-.72.68-.28.07-.56-.14-.99-.47-.23-.18-.45-.39-.62-.55-.35-.34-.49-.52-.66-.49-.09.02-.12.08-.28.27-.1.12-.25.26-.55.55-.26.25-.41.39-.62.53-.25.16-.78.5-1.18.31-.19-.09-.35-.24-.44-.62-.1-.42-.18-.85-.25-1.28-.05-.3.11-.5.37-.62.13-.06.29-.04.4-.22Z"/>
    <path class="cls-1" d="M46.6,24.59c0,1.05,0,2.09,0,3.14,0,.28-.02.36-.33.23-1.89-.8-3.87-.92-5.89-.81-1.8.1-3.53.47-5.22,1.07-1.77.64-2.6,1.52-4.58,2.61-.04.02-.3.18-.64.17-.1,0-.33,0-.48-.16-.1-.1-.12-.22-.13-.28-.1-.6-.15-3.26-.17-3.69-.04-.98-.04-1.97-.11-2.95-.03-.5.14-.83.53-1.1,1.4-1,2.97-1.56,4.62-1.93,1.83-.41,3.69-.6,5.56-.65,2.15-.05,4.27.21,6.37.68.17.04.29.1.37.19.12.15.11.34.1.42,0,.07,0,.63,0,1.76,0,.24,0,.44,0,.86,0,.22,0,.37,0,.43Z"/>
    <path class="cls-1" d="M25.21,22.16c.63-.36,1.27-.56,1.88-.82,3.78-1.56,7.58-3.09,11.35-4.66.56-.23,1.06-.25,1.62-.07.27.08,5.3,1.62,6.08,1.81.08.02.3.07.42.26.06.1.05.18.05.55,0,.29-.02.58-.02.86,0,.37,0,.43-.06.49-.11.11-.31.04-.7-.06-.37-.09-.75-.15-1.13-.22,0,0-.29-.06-.98-.16-4.03-.61-7.95.12-7.95.12-2.66.49-5.25,1.61-5.99,2.08-.42.26-.81.56-1.22.83-.2.13-.4.22-.65.11-.88-.37-1.76-.73-2.69-1.11Z"/>
    <path class="cls-1" d="M24.47,34.41c-.29-.78-.13-1.49.21-2.19.28-.57.74-.89,1.34-1.01.79-.17,1.59-.31,2.39-.46.2-.04.37,0,.48.21.11.2.27.4.09.64-.11.15-.23.3-.36.44-.92.92-1.85,1.84-2.78,2.77-.76.76-2.25.43-2.64-.58-.09-.24-.04-.48,0-.72.05-.24.03-.49.03-.74,0-.07-.02-.16-.11-.17-.09-.01-.11.07-.14.14-.16.39-.33.77-.49,1.16-.39.98-.77,1.97-1.17,2.95-.12.31-.15.6.06.86,1.07,1.36,2.28,2.58,3.67,3.62,0,0,.03,0,.06-.02-.13-1.08.12-2.11.57-3.1.14-.32.33-.62.61-.84.21-.16.41-.18.43.18,0,.17.03.35.08.51.43,1.51-.28,2.74-.99,3.96-.2.35-.53.24-.8.06-.68-.45-1.3-.97-1.87-1.56-.7-.72-1.35-1.48-1.93-2.3-.37-.53-.44-1.05-.17-1.67.55-1.28,1.18-2.52,1.66-3.83.24-.65.11-1.15-.41-1.61-.04-.04-.08-.08-.14-.11-1.06-.5-1.1-1.42-1-2.4.2-1.83.71-3.58,1.36-5.29.13-.33.34-.65.57-.92.32-.38.79-.29,1.22-.23.35.05.66.22.92.46.89.79,1.96,1.15,3.12,1.3.17.02.4-.02.36.25-.03.23-.25.15-.39.14-1.15-.05-2.18-.42-3.1-1.11-.28-.21-.53-.47-.88-.55-.76-.17-1-.05-1.2.59-.39,1.22-.7,2.45-1.04,3.68-.22.79-.26,1.6-.32,2.41-.03.43.17.74.53.97.65.42,1.07.99,1.22,1.77.06.32.05.63,0,.95-.12.66.23,1.19.92,1.38Z"/>
    <path class="cls-1" d="M24.93,21.94c-.03-1.1-.04-1.11.89-1.52,3.91-1.71,7.83-3.42,11.75-5.13.4-.17.8-.34,1.19-.53.17-.08.22-.06.22.14,0,.39.02.78.04,1.17.01.21-.16.22-.29.27-1.38.57-2.76,1.14-4.14,1.7-3.14,1.27-6.29,2.54-9.43,3.81-.06.03-.13.05-.23.08Z"/>
    <path class="cls-1" d="M50.21,30.54c-.14-.11-.81-.61-1.29-1.08-.09-.09-.24-.24-.32-.47-.08-.23-.06-.42-.05-.48.05-.52.04-1.73.03-2.87,0-1.13.05-2.25.02-3.38,0-.06,0-.26.1-.32.02-.01.07-.03.31.07.13.05.18.09.38.19.15.07.19.09.3.15.18.1.23.14.28.21,0,0,.06.08.09.19.16.74.09,4.3.09,4.3,0,.18,0,.72.03,1.8.01.71.03,1.29.04,1.67Z"/>
    <path class="cls-1" d="M39.27,15.42s0-.07,0-.07c0-.04,0-.07,0-.19,0-.38-.01-.41.02-.44.04-.04.1-.02.56.1.12.03.18.05.18.05,2.06.59,4.08,1.28,6.13,1.91.12.04.21.09.27.15.09.1.1.22.11.29.09.9.09.99.01,1.04-.07.04-.14,0-.42-.1-.24-.08-.48-.14-.72-.22-.34-.12-.69-.22-1.04-.33-.57-.18-.98-.3-1.6-.49-.56-.16-.94-.27-1.64-.47-.56-.16-.85-.24-.94-.26-.18-.04-.36-.1-.54-.14,0,0-.05-.01-.17-.06-.14-.05-.16-.07-.18-.09-.02-.03-.02-.07-.02-.17,0-.05,0-.08,0-.12,0-.26,0-.36,0-.4Z"/>
    <path class="cls-1" d="M53.68,20.69s-.03.04-.17.12c-.14.07-.22.11-.22.11-.12.06-.2.1-.23.11-.16.08-.24.13-.36.19-.21.11-.31.15-.55.26-.51.24-.63.33-1.19.57-.35.15-.47.18-.64.17-.11,0-.14-.03-.55-.19-.24-.1-.43-.17-.71-.3-.2-.1-.31-.16-.38-.28-.06-.1-.06-.19-.07-.29-.01-.35,0-.59,0-.74,0-.37.02-.57.06-.95,0-.05.02-.17.09-.2.03-.01.07,0,.15.03.07.03.15.04.22.07.17.07.47.16.94.31.05.02.1.03.15.05.22.07.38.11.48.14.11.03.27.08.6.18.38.12.35.11.58.19.21.06.49.14,1.05.31.08.02.17.05.29.07.12.03.18.04.25.05.13.02.19.01.19.04Z"/>
    <path class="cls-1" d="M53.81,19.87c-.02.31-.03.46-.08.51-.12.13-.37.04-1.07-.18-.43-.13-.85-.26-1.28-.4-.33-.1-.62-.19-.98-.31-.37-.11-.55-.17-.59-.18-.06-.02-.37-.1-.73-.22-.17-.06-.27-.09-.35-.2-.07-.1-.1-.22-.12-.3-.01-.06-.01-.08-.03-.26-.02-.19-.02-.38-.04-.56-.01-.11-.02-.17.01-.19.04-.03.1.01.2.06.11.05.24.07.35.12.11.04.13.05.39.12.32.1,1.23.38,1.98.62.86.28.8.28,1.09.36.13.04.29.09.61.19.43.14.54.19.6.3.04.07.03.22.01.52Z"/>
    <g>
      <path class="cls-1" d="M47.01,23.4c0-.42,0-1.14-.03-2.55,0-.72-.02-1.31-.03-1.72h0c0-.9-.12-1.59-.1-1.59.03,0,0,.94.54,1.29.24.15.6.2.78.05.13-.11.12-.37.15-.36.01,0,.01.04.02.08.03.35.03.42.03.42,0,.19,0,.25,0,.25-.01.64,0,.57-.02.77-.01.28-.02.28-.03.55,0,.21,0,.2-.01.44,0,0,0,0,0,0-.01.38-.01.41-.01.46,0,.08,0,.19,0,.19h0c-.07,3.88-.13,6.75-.13,6.84,0,.12-.07.16-.07.16-.03.02-.07.05-.13.07-.08.02-.15,0-.19-.02-.18-.06-.26-.14-.47-.29-.28-.19-.33-.23-.36-.32,0-.02,0-.03,0-.29,0-.18,0-.42.01-.49,0-.3,0-.42,0-.84,0-.2,0-.47,0-1.01.01-1.08.03-1.38.03-2.08Z"/>
      <path class="cls-1" d="M48.35,18.55s0,.03,0,.06c0,.04-.02.08-.04.12,0,0-.07.15-.25.23-.31.14-.85-.12-1.02-.5-.04-.1-.07-.23-.12-.5-.02-.11-.03-.19-.05-.34,0,0-.01-.15-.01-.37,0-.09,0-.16.05-.19.03-.02.08-.02.17.01.32.12.65.23.98.34.06.02.11.05.14.09.05.06.06.13.06.16.03.28.06.57.09.85,0,0,0,.01,0,.03Z"/>
    </g>
  </g>
</svg>