<?xml version="1.0" encoding="UTF-8"?>
<svg id="_图层_1" data-name="图层_1" xmlns="http://www.w3.org/2000/svg" viewBox="0 0 1000 1000">
  <defs>
    <style>
      .cls-1, .cls-2, .cls-3 {
        fill: none;
      }

      .cls-2 {
        stroke-width: 6px;
      }

      .cls-2, .cls-3, .cls-4 {
        stroke: #903;
        stroke-miterlimit: 10;
      }

      .cls-3 {
        stroke-width: 12px;
      }

      .cls-4 {
        stroke-width: .5px;
      }

      .cls-4, .cls-5 {
        fill: #903;
      }

      .cls-6 {
        fill: #fff;
      }

      .cls-7 {
        fill: #56a0d3;
      }

      .cls-8 {
        fill: #ffb310;
      }
    </style>
  </defs>
  <circle class="cls-6" cx="500.55" cy="499.55" r="411"/>
  <circle class="cls-3" cx="500.55" cy="499.55" r="411"/>
  <circle class="cls-2" cx="500.55" cy="499.55" r="393.5"/>
  <circle class="cls-2" cx="500.55" cy="499.55" r="282"/>
  <g>
    <circle class="cls-1" cx="500.55" cy="499.55" r="300.84"/>
    <path class="cls-4" d="M205.76,718.67l11.72,15.66c.75,1,.81,1.73.2,2.19-.58.43-1.18.22-1.81-.62l-22.54-30.11c-.63-.84-.66-1.48-.08-1.91.61-.46,1.35-.11,2.21,1.04l9.61,12.84c.12-.15.34-.38.66-.68,2.7-2.8,10.47-9.01,23.33-18.63,11.92-8.8,20.51-14.96,25.77-18.49.84-.39,1.35-.47,1.52-.24s.03.64-.43,1.22c-2.2,1.94-4.6,4.01-7.21,6.21.09.12.17.23.26.34l5,6.68c1.9,2.53,4.38,4.41,7.46,5.64.29.38.18.76-.32,1.14l-.81-.12c-3.05,0-5.71-1.51-7.98-4.54l-5.08-6.79c-.2-.27-.39-.52-.56-.75-4.35,3.55-9.59,7.63-15.73,12.22-14.08,10.54-22.28,16.35-24.59,17.42-.22.1-.42.2-.6.27Z"/>
    <path class="cls-4" d="M282.54,728.16c.29.25.54.58.75,1.01l3.23,7.57c.27.42.23.85-.14,1.29l-16.29,19.47c-2.83,3.38-6.18,6.08-10.05,8.09-4.85,2.44-9.29,3.85-13.3,4.25-.47.11-.77.1-.92-.02-.22-.18-.21-.42.04-.72,7.72-1.54,15.08-5.88,22.07-13.04l15.51-18.53c.25-.29.28-.64.11-1.03l-2.65-6.81c-.08-.57,0-1,.24-1.3.34-.4.81-.48,1.41-.23ZM280.45,786.79l-18.75-15.69c-.74-.62-.78-1.31-.13-2.08,3.56-.96,7.54-3.22,11.96-6.78,3.85-3.03,8.55-7.72,14.12-14.07.74-.88,1.4-1.71,1.98-2.47l-3.14-2.63c-.7-.58-.79-1.19-.26-1.81.34-.4,1.08-.25,2.24.46l2.65,2.22c1.07-1.35,2.08-2.67,3.02-3.94.9-.93,1.78-1.45,2.62-1.56l.75-.12c.32.52.45,1,.38,1.45l-.13.27.06.05,14.23,11.91c.99.83,1.12,1.69.38,2.57l-3.55,4.25,2.04,1.71c.76.89.97,1.53.63,1.93-.52.63-1.17.61-1.94-.03l-2.21-1.85-16.8,20.07c-2.09,2.5-4.17,4.64-6.22,6.42l3.03,2.54c.77.65.93,1.24.47,1.8-.52.63-1.21.58-2.05-.12l-3.25-2.72c-3.71,2.64-7.38,4.08-11,4.3-.31-.07-.58-.2-.8-.39-.15-.12-.11-.31.1-.57,3.19-.83,6.39-2.53,9.6-5.09ZM291.88,747.6c-.95,1.14-1.98,2.37-3.09,3.7-5.66,6.76-10.26,11.29-13.8,13.58-4.44,2.84-7.67,4.68-9.67,5.5-.25.29-.22.56.07.81l6.95,5.81c2.49-1.41,4.94-3.14,7.35-5.2,2.81-2.39,5.32-4.9,7.5-7.51l10.15-12.13-5.46-4.57ZM305.17,758.72l-5.96-4.98-9.97,11.91c-3.29,3.93-6.21,6.75-8.75,8.43-2.43,1.71-4.73,2.92-6.88,3.62l8.64,7.6c1.98-1.84,3.97-3.96,5.97-6.35l16.94-20.24ZM290.05,722.44c1.66,3.32,2.78,6.24,3.38,8.74.05.54-.07.98-.34,1.31-.37.44-.77.48-1.22.11-1.61-3.16-2.75-6.27-3.43-9.34-.1-.33.02-.7.36-1.1.32-.23.74-.13,1.25.3ZM302,734.6c.07.06.15.12.22.18l15.11,12.64c.76.89.94,1.57.54,2.04-.49.59-1.11.57-1.84-.04l-15.83-13.24-.06-.05c-.77.54-1.64.95-2.6,1.2-1.83.47-3.77.1-5.82-1.12-.4-.34-.48-.65-.24-.95l.69-.27c1.31.16,2.5.19,3.58.09,1.78-.26,3.4-.93,4.87-2.02,1.4-1.08,2.95-1.28,4.64-.62l.72.6c-.12.15-.46.25-1,.29-1.04.19-2.04.61-3,1.24ZM296.56,741.67c-.82,1.13-1.91,2.5-3.26,4.12l5.52,4.61,1.85-2.21c.68-.74,1.26-1.29,1.74-1.63l-5.79-4.85-.06-.05ZM303.84,747.76c-.26.53-.69,1.2-1.3,2l-1.85,2.21,5.96,4.98,2.81-3.36c.37-.44.31-.86-.16-1.26l-5.46-4.57Z"/>
    <path class="cls-4" d="M340.81,784.95c4.91,1.65,9.7,3.65,14.37,5.99,4.76,2.38,9.35,4.98,13.79,7.79.54-.54,1.06-1.1,1.58-1.7.41-.28.76-.34,1.06-.19.13.06.15.18.06.35-3.37,5.66-6.81,12-10.34,19.03-1.57,3.45-2.91,7.04-4.03,10.77-1.25,4.09-2.35,8.71-3.32,13.86-.17.34-.37.46-.58.35-.3-.15-.43-.43-.39-.84-.21-4.18.24-8.56,1.36-13.15.82-3.67,2.28-7.76,4.38-12.28,2.85-5.7,5.76-10.49,8.72-14.37-4.35-2.55-8.88-5.01-13.6-7.37-4.42-2.21-8.97-4.2-13.66-5.96-.28.99-.71,2.06-1.29,3.21l-6.83,13.63c-4.57,8.7-9.75,14.5-15.54,17.39-.77.47-1.31.63-1.61.48-.26-.13-.26-.45,0-.96,5.58-4.07,10.44-10.13,14.58-18.19l6.7-13.37c1.7-3.38,2.84-6,3.45-7.84.19-.39.42-.51.68-.39.3.15.44.46.42.93.13.92.14,1.87.03,2.83ZM347.36,794.99c1.54.56,3.04,1.2,4.5,1.93,1.5.75,2.94,1.58,4.31,2.48.79-1.26,1.51-1.74,2.16-1.41.81.41.66,1.73-.45,3.96l-10.14,20.25c-3.54,6.64-7.41,8.91-11.61,6.81-4.5-2.25-4.97-6.99-1.41-14.21l9.66-19.29c1.2-2.4,2.17-3.42,2.9-3.05.6.3.63,1.15.09,2.54ZM337.02,826.88c2.96,1.27,5.73-.69,8.33-5.88l9.89-19.74c-1.42-.92-2.87-1.76-4.37-2.51-1.41-.71-2.87-1.33-4.37-1.87l-9.53,19.03c-2.83,5.66-2.81,9.31.06,10.97ZM362.27,773.26l.68-1.35c.41-.81,1.02-1.12,1.83-.93.6.3.7.96.29,1.99l-.68,1.35,13.5,6.76c1.07.54,1.45,1.13,1.12,1.77-.37.73-1,.87-1.9.42l-28.42-14.23c-.86-.43-1.1-1.01-.74-1.74.32-.64,1.06-.67,2.22-.09l12.09,6.05ZM353.2,775.47c2.66.9,5.25,1.99,7.78,3.25,2.66,1.33,5.23,2.83,7.71,4.51.13-.15.24-.31.32-.48.54-.86,1.17-1.21,1.9-1.06.64.54.7,1.34.16,2.41-1.12,2.23-2.28,3.9-3.48,5.01-2.17,2.29-5.93,2.1-11.29-.59-4.84-2.43-7.12-5.36-6.84-8.82-.02-1.14.6-2.97,1.87-5.5.62-1.03,1.19-1.41,1.71-1.16.6.3.72.92.35,1.87-.09.17-.15.35-.19.55ZM357.34,786.15c3.94,1.98,6.63,2.38,8.07,1.23.54-.21,1.3-1.04,2.29-2.47-2.53-1.48-5.12-2.89-7.78-4.22-2.44-1.22-4.93-2.36-7.46-3.41-.52,1.46-.72,2.56-.61,3.31.41,2.08,2.24,3.94,5.5,5.57Z"/>
    <path class="cls-4" d="M417.63,799.44c-.18,1.19-.39,2.42-.64,3.69,2.43,1.41,3.57,3.45,3.44,6.12-.37,6.41-2.17,16.53-5.41,30.34-1.53,6.54-3.06,12.31-4.57,17.32-.35,1.49-.76,2.19-1.22,2.08-.47-.11-.53-.91-.18-2.4.91-5.35,2.08-11.11,3.53-17.27,2.96-12.65,4.7-22.68,5.2-30.1-.04-1.73-.47-2.92-1.31-3.56-1.17,6.03-2.67,12.96-4.5,20.81-4.24,18.11-6.91,28.44-8,30.99-.41.89-.73,1.31-.96,1.25-.14-.23-.2-.83-.17-1.81.36-4.05,2.49-14.41,6.39-31.07,1.92-8.21,3.63-15.2,5.13-20.96-1.08.39-2.08,1.33-3.03,2.84-2.88,7.05-5.88,16.89-8.98,29.51-1.31,5.6-2.79,11.29-4.44,17.05-.31,1.31-.69,1.91-1.16,1.8-.42-.1-.55-.72-.38-1.86.9-5.55,2.06-11.31,3.46-17.29,3.42-14.17,6.43-24.19,9.04-30.08,1.43-2.77,3.44-4.17,6.01-4.21.34-1.25.67-2.45.99-3.61l-6.37-1.49c-.89-.21-1.25-.66-1.08-1.36.17-.75.92-.97,2.22-.66l5.88,1.38c.26-1.12.53-2.17.81-3.13.4-.89.75-1.3,1.03-1.24.14.03.22.44.23,1.23-.18,1.19-.35,2.35-.52,3.5l5.39,1.26c1.07.25,1.52.75,1.35,1.5-.16.7-.69.95-1.58.74l-5.6-1.31ZM428.67,833.64c-.4-1.23-.86-2.42-1.38-3.57-1.32-4.05-1.72-8.94-1.21-14.69.14-.61.35-.88.63-.81.33.08.49.34.48.78.39,4.62,1.42,9.29,3.07,14.01.33.67.68,1.32,1.02,1.94,2.29-2.02,4.23-4.1,5.82-6.24,2.2-2.68,3.81-5.36,4.83-8.03.22-.93.63-1.33,1.24-1.19.33.08.38.58.16,1.51-.65,2.75-1.95,5.6-3.92,8.54-1.73,2.75-4.08,5.45-7.07,8.09,1.49,3.3,2.73,6.55,3.7,9.73,2.15,7.2,2.91,13.97,2.26,20.32-.22.93-.52,1.36-.89,1.27-.23-.05-.38-.58-.44-1.58-.38-6.98-1.56-13.29-3.54-18.92-1.21-2.84-2.39-5.66-3.56-8.44-2.66,2.73-5.05,5.59-7.18,8.58-3.15,4.83-5.55,9.41-7.21,13.75-.59,1.04-1.07,1.52-1.44,1.43-.42-.1-.5-.71-.24-1.83,1.69-5.12,3.72-9.57,6.08-13.35,2.55-4.38,5.48-8.14,8.78-11.31ZM439.98,801.43l8.82,2.07c1.17.27,1.66.81,1.47,1.6-.17.75-.75,1-1.73.78l-5.04-1.18-.05.21c-.52,3.67,1.01,7.89,4.57,12.67-.09.37-.32.52-.69.43-.09-.02-.35-.18-.77-.48-2.25-1.76-3.76-3.71-4.54-5.86-.82-2.16-.93-4.55-.32-7.16l.05-.21-7-1.64c-.74,3.17-1.96,5.55-3.66,7.12-1.5,1.57-3.67,2.54-6.51,2.91-.75-.17-1.08-.45-.99-.82.09-.37.48-.7,1.19-.98,1.56-.37,3.06-1.4,4.49-3.08,1.37-1.45,2.53-3.32,3.46-5.62l-4.55-1.07c-.93-.22-1.31-.7-1.14-1.45.19-.79.93-1.04,2.24-.73l8.19,1.92.38-1.61c.27-1.17.87-1.74,1.81-1.72.7.16.94.93.71,2.31l-.38,1.61Z"/>
    <path class="cls-4" d="M502.42,808.42c.06.91.15,1.96.27,3.16,3.64-.06,7.29-.02,10.93.11,0-.19.02-.29.07-.29.08-1.2.47-1.88,1.19-2.03.91.13,1.38.79,1.4,1.99.07,4.22-.24,7.48-.92,9.8-1.08,4.43-5.04,6.87-11.89,7.31,0,.38.01.79.02,1.22.14,0,.29.09.44.28,2.71,1.25,4.87,3.42,6.51,6.51,1.48,2.47,2.86,6.38,4.15,11.73.74,4.4,1.74,8,2.98,10.81,2.14,4.81,4.98,8.52,8.52,11.15,0,.38-.11.58-.35.58-.72.01-1.18-.27-1.38-.84-3.14-1.67-6.02-4.5-8.62-8.49-1.82-2.85-3.23-7.24-4.24-13.16-.61-5.02-1.75-9.13-3.44-12.31-1.33-2.33-2.85-4.03-4.54-5.1.08,2.3.15,4.58.18,6.83.3,18.79.21,29.55-.27,32.3-.18.96-.41,1.44-.7,1.45-.14,0-.32-.47-.53-1.43-.64-4.21-1.11-14.96-1.39-32.27-.04-2.44-.08-4.82-.12-7.12-2,1.14-3.67,3.08-5.01,5.83-1.58,3.05-2.62,7-3.12,11.84-.77,5.72-2.09,9.96-3.96,12.72-2.53,3.88-5.38,6.68-8.57,8.41-.19.43-.64.66-1.36.67-.24,0-.36-.21-.37-.64,3.6-2.5,6.42-6.07,8.46-10.71,1.15-2.7,2.06-6.17,2.71-10.4,1.16-5.2,2.44-9.05,3.84-11.57,1.53-2.95,3.61-5.09,6.22-6.43.48-.2.88-.4,1.21-.59,0-.43-.01-.84-.02-1.22-6.81-.22-11.07-2.43-12.76-6.62-.84-1.76-1.3-4.73-1.37-8.9.12-1.39.49-2.09,1.12-2.1.58,0,.96.39,1.17,1.2,3.88-.25,7.83-.41,11.86-.48-.02-1.2-.01-2.25.02-3.17l-15.96.26c-1.05.02-1.59-.38-1.6-1.2-.01-.72.7-1.19,2.13-1.4l15.46-.25c-.01-.62,0-1.13.05-1.51.18-.91.38-1.37.62-1.38.19,0,.39.35.59,1.07.06.57.11,1.17.17,1.79l14.45-.23c1.25.17,1.88.62,1.89,1.34.01.82-.51,1.23-1.56,1.25l-14.6.24ZM489.4,817.19l11.29-.18c-.02-1.1-.01-2.25.02-3.45-3.88.06-7.74.22-11.57.48.07,1.2.16,2.25.27,3.16ZM500.69,826.21c0-2.49,0-4.79-.04-6.9l-10.86.18c.26,1.2.58,2.08.98,2.65,1.82,2.61,5.12,3.97,9.92,4.08ZM513.58,813.92c-3.55-.33-7.13-.46-10.72-.4.07,1.2.13,2.35.2,3.45l10.28-.17c.08-.77.16-1.73.24-2.88ZM513.09,819.11l-9.92.16c.08,2.11.17,4.41.25,6.9,5.03-.27,7.98-1.83,8.84-4.67.28-.39.56-1.18.82-2.39Z"/>
    <path class="cls-4" d="M569.41,802.16l-15.25,3.63c-.98.23-1.55,0-1.72-.7-.19-.79.39-1.35,1.75-1.67l17.49-4.16-.32-1.33c-.32-1.35-.06-2.13.78-2.33.84-.2,1.47.37,1.88,1.7l.32,1.33,18.19-4.33c1.12-.27,1.77,0,1.96.79.17.7-.22,1.16-1.15,1.38l-22.39,5.33c-2.08,2.66-3.08,5.88-3.02,9.66.14-.23.35-.38.63-.45l18.4-4.38c1.3-.31,2.11.16,2.41,1.42l6.99,29.38c2.14,9,1.23,15.72-2.74,20.17-.18.49-.41.76-.69.83-.14.03-.26-.16-.36-.58,2.57-5.15,2.92-11.63,1.06-19.47l-6.78-28.47c-.13-.56-.53-.76-1.18-.61l-16.44,3.91c-.51.12-.94.1-1.27-.07.12,1.35.35,2.7.67,4.05l3.18,15.21c2.84,15.68.72,26.54-6.37,32.56-.28.26-.56.43-.84.5-.14.03-.23-.04-.28-.23,5.55-6.3,7.06-16.91,4.55-31.83l-3.17-16.1c-1.06-5.27.18-10.32,3.71-15.15Z"/>
    <path class="cls-4" d="M633.19,777.32c3.95,6.44,9.04,15.82,15.26,28.14,8.11,16.05,12.52,25.31,13.24,27.79.26.94.26,1.48,0,1.61-.26-.08-.71-.5-1.36-1.25-2.33-3.33-7.17-12.28-14.52-26.83-2.85-5.65-5.29-10.57-7.3-14.76l-6.35,3.21,7.55,14.31c5.3,10.59,8.01,18.35,8.14,23.28l5.26-4.27c.68-.34,1.1-.37,1.25-.07.28.56.04,1.03-.73,1.42l-8.01,7.59c-.64.32-1.06.29-1.25-.09-.15-.3-.04-.76.35-1.38-.13-.36-.15-.57-.07-.61,1.53-3.35-.78-11.21-6.92-23.58l-12.81-26.16c-.67-1.54-.75-2.44-.24-2.7.47-.24,1.08.29,1.84,1.57l.87,1.57,6.68-3.37c-.91-1.9-1.63-3.5-2.17-4.78l-11.36,5.74c-.81.41-1.38.29-1.71-.35-.37-.73,0-1.37,1.12-1.93l14.44-7.29c.94-.48,1.6-.35,1.96.38.32.64.1,1.16-.67,1.55l-2.5,1.26ZM631.29,793.5l6.35-3.21c-1-2.08-1.9-3.98-2.72-5.71l-6.61,3.34,2.98,5.58ZM643.7,777.56c.04-.24.15-.4.32-.48.62-1.44,1.12-2.66,1.53-3.67.38-.84.39-1.62.02-2.35-.22-.32-.4-.52-.55-.61-.09-.17-.07-.4.06-.68.3-.15.6-.19.9-.13.84.17,1.57.87,2.2,2.11.24.68.05,1.75-.57,3.19-.79,1.63-1.72,3.61-2.81,5.93-.53.86-.97,1.59-1.31,2.19-.1.75-.07,1.3.1,1.64.15.3.51.52,1.06.67.43-.22,1.39-.7,2.89-1.46,1.84-.93,2.82-1.64,2.95-2.13.32-.54.35-1.06.09-1.58-.28-.56-.98-.88-2.09-.96-.15-.3-.1-.62.16-.97.26-.13.62-.21,1.09-.23,1.44-.13,2.42.33,2.96,1.4.58,1.16.59,2.23.01,3.22-.47,1.1-1.88,2.24-4.23,3.43-2.22,1.12-3.87,1.63-4.95,1.53-1.03.09-1.85-.46-2.45-1.66-.45-.9-.46-2.08-.01-3.54.53-1.18,1.09-2.35,1.69-3.51-.88.28-1.79.45-2.73.49-1.03.09-1.77-.31-2.22-1.21-.15-.3-.12-.82.09-1.58.27-.84.69-1.72,1.24-2.64.96-1.29,1.26-2.3.89-3.03-.09-.17-.32-.37-.71-.61-.07-.34,0-.57.22-.68.13-.07.33-.09.61-.07.82.23,1.41.71,1.77,1.44.32.64.34,1.47.04,2.48-.27,1.05-.71,1.94-1.31,2.67-.24.28-.39.55-.48.81.17.34.5.5.97.48.96.21,1.81.24,2.54.09ZM656.25,794.75l-2.34-4.94c-1.04-2.48-1.26-3.88-.66-4.18.51-.26,1.42.68,2.71,2.82l2.72,5.07c6.03,11.94,9.06,20.48,9.08,25.62.04,4.76-.77,8.95-2.42,12.58-.21.54-.36.83-.45.87-.21.11-.41,0-.58-.35.99-3.99,1.25-8.42.78-13.28-.53-4.89-2.94-11.83-7.22-20.84-.04.02-.09.04-.13.07l-6.74,3.4c-.64.32-1.09.23-1.35-.28.06-.94-.13-2.16-.56-3.66-.28-1.09-.88-2.59-1.79-4.5-.35-.68-.55-1.36-.62-2.02-.41-1.03-.57-1.92-.46-2.67l.26-.45c.47-.02.89.12,1.26.41-.08.26.6,1.82,2.04,4.69.78,1.54,1.31,2.8,1.59,3.79.22.96.3,1.54.23,1.74.17.34.41.44.71.29l4.75-2.4c-.2-.49-.47-1.08-.81-1.76ZM655.55,772.79c.4-.79.86-1.54,1.37-2.22.57-1.42,1.08-2.64,1.53-3.67.38-.84.39-1.62.02-2.35-.26-.3-.46-.49-.61-.58-.09-.17-.04-.41.13-.71.21-.11.49-.14.83-.1.84.17,1.57.87,2.2,2.11.28.66.14,1.7-.44,3.12-.83,1.65-1.77,3.63-2.81,5.93-.45.82-.84,1.53-1.18,2.13-.06.73,0,1.27.17,1.61.15.3.42.46.81.48.43-.22,1.35-.68,2.76-1.39,1.8-.91,2.79-1.6,2.98-2.07.34-.39.38-.84.12-1.35-.28-.56-1.06-.83-2.35-.83-.15-.3-.1-.62.16-.97.26-.13.6-.19,1.03-.2,1.65-.24,2.75.17,3.29,1.24.5.98.46,1.97-.12,2.96-.47,1.1-1.86,2.23-4.17,3.39-2.18,1.1-3.74,1.68-4.69,1.72-1.09-.14-1.89-.71-2.39-1.69-.45-.9-.46-2.08-.01-3.54.26-.34.49-.78.7-1.32-.71.09-1.4.09-2.09,0-.86,0-1.53-.49-2.03-1.47-.28-.56-.3-1.19-.07-1.9.34-.82.8-1.82,1.37-3.03.87-1.67,1.12-2.88.76-3.6-.09-.17-.32-.37-.71-.61-.07-.34,0-.57.22-.68.17-.09.4-.12.67-.1.81.23,1.41.71,1.77,1.44.41.81.48,1.85.21,3.12-.42,1.07-.92,2.05-1.5,2.93-.13.49-.26.91-.41,1.26.17.34.52.6,1.03.77.49.13.98.18,1.45.15ZM667.11,793.45c1.45,2.65,3.04,5.69,4.76,9.11,5.71,11.3,8.78,17.91,9.21,19.84.24,1.01.23,1.57-.03,1.7-.17.09-.61-.36-1.32-1.34-1.88-2.22-5.42-8.49-10.62-18.8-4.67-9.46-7.86-16.3-9.57-20.54-.2-.81-.17-1.29.09-1.42.17-.09.53.19,1.06.83,1.62,2.35,3.42,5.28,5.41,8.79l3.27-1.65c.64-.32.89-.64.74-.94-.17-.34-.55-.93-1.13-1.76-.67-.9-1.23-1.8-1.68-2.69-.58-1.16-.9-2.69-.95-4.59-.11-1.07-.02-1.68.28-1.83.3-.15.59.05.87.61.87,1.93,1.69,3.66,2.47,5.2.97,1.6,1.97,3.22,3.01,4.84.45.9.1,1.64-1.05,2.22l-4.81,2.43Z"/>
    <path class="cls-4" d="M696.29,731.78c.37-.31.86-.5,1.48-.59,9.75-.63,16.7-.72,20.84-.26,4.88.21,7.49.52,7.83.92.65.77.79,1.31.42,1.62-.51.43-1.1.52-1.76.26-11.67-.38-19.93-.44-24.79-.18-.87.23-1.45.47-1.75.72-.18.15-.49.79-.93,1.91-1.39,6.69-2.74,15.13-4.05,25.32.15.62.04,1.09-.32,1.4-.26.22-.63.03-1.13-.56-1.15-2.85,0-12.64,3.48-29.35.11-.53.34-.94.67-1.22ZM697.97,746.83l13.36-11.26c1.04-.62,1.82-.63,2.35,0,.49.59.36,1.2-.41,1.85l-14.02,11.81c-.73.62-1.35.63-1.84.05-.53-.62-.34-1.44.57-2.45ZM701.9,756.3c2.72-2.73,5.58-5.36,8.58-7.89,2.9-2.44,5.94-4.66,9.14-6.67-1.04-1.38-1.25-2.33-.62-2.86.73-.62,1.92.04,3.56,1.99l16.31,19.36c7.44,9.28,7.88,16.68,1.32,22.21-7.66,6.46-15.55,4.95-23.65-4.52l-15.38-18.26c-1.88-2.24-2.54-3.72-1.97-4.46.59-.49,1.49-.13,2.71,1.1ZM738.41,780.54c5.3-4.72,4.68-10.96-1.87-18.74l-15.43-18.31c-3.2,2.01-6.27,4.24-9.2,6.71-2.97,2.5-5.8,5.14-8.48,7.9l15.2,18.04c6.8,8.07,13.39,9.53,19.78,4.4Z"/>
    <path class="cls-4" d="M745.16,694.57c-.86,3.72-2.64,7.57-5.34,11.53-.23.31-.42.41-.57.29-.19-.14-.15-.56.12-1.25,2.76-7.57,4.09-14.82,3.99-21.76.07-1.62.16-2.51.28-2.66.29-.38.93-.65,1.94-.8,7.43-1.23,13.95-4.98,19.57-11.26.74-.76,1.19-1.08,1.35-.97.31.23-.44,1.55-2.24,3.98-2.14,2.89-4.95,5.25-8.41,7.1.43.38.42.88-.04,1.5l-10.64,14.31ZM746.38,699.07c2.15-3.78,4.53-7.42,7.13-10.92,2.63-3.54,5.42-6.96,8.35-10.28-.5-.61-.64-1.07-.41-1.38.54-.73,2.21-.12,5,1.83l.98.73c5.54,4.12,5.35,10.16-.57,18.12-6.32,8.5-12.42,10.57-18.31,6.19l-1.1-.81c-2.15-1.6-2.96-2.77-2.42-3.5.17-.23.62-.23,1.34,0ZM753.48,679.88c-1.89.69-3.87,1.31-5.95,1.85l-2.43.25c.24,1.37.31,3.04.22,5,.2,1.1.31,2.23.35,3.39l7.81-10.5ZM764.05,696.51c-.83-.08-2.35-.94-4.54-2.57-1.94-1.56-3.27-2.79-3.99-3.68-.12-.15-.26-.29-.42-.4-2.43,3.27-4.71,6.66-6.83,10.15.15.12.38.29.69.51l.87.64c4.46,3.32,9.2,1.76,14.22-4.66ZM751.44,698.53c.17-.23.57-.44,1.19-.64l4.69-1.98c.41-.23.87-.16,1.37.21.46.34.48.8.05,1.38-.26.35-.65.56-1.19.64l-4.38,2.03c-.65.23-1.13.24-1.44,0-.5-.37-.6-.92-.29-1.65ZM763.54,679.47c-2.74,3.04-5.37,6.26-7.88,9.64l.27.11c1.38.31,3.07,1.21,5.07,2.7,2.19,1.63,3.51,2.76,3.94,3.38,4.69-6.31,4.98-11,.86-14.05l-.98-.73c-.58-.43-1-.78-1.28-1.04ZM776.85,689.9c-.77-.81-1.03-1.39-.77-1.74.51-.69,2.09-.12,4.72,1.72l10.91,8.11c10,7.43,12.23,14.88,6.68,22.35-5.83,7.85-14.08,7.81-24.74-.11l-11.02-8.19c-2-1.49-2.72-2.61-2.14-3.38,0-.41.61-.29,1.8.35,2.31-3.36,4.72-6.71,7.21-10.06,2.32-3.12,4.77-6.13,7.35-9.05ZM762.42,683.75c.43-.58.94-.74,1.52-.48.31.23.52.59.62,1.09.16,2.03.08,4.19-.23,6.46-.49.41-.96.45-1.42.11-.5-.37-.78-.84-.83-1.42-.14-1.66-.03-3.58.33-5.75ZM782.07,693.96l-2.77-2.06c-.27-.2-.48-.36-.63-.47-2.6,2.85-5.07,5.85-7.41,9.01-2.4,3.23-4.71,6.5-6.93,9.81l3.64,2.7,14.11-18.99ZM769.81,714.32l5.31,3.95c9.27,6.89,16.33,7.09,21.16.58,4.57-6.16,2.55-12.44-6.07-18.84l-6.29-4.67-14.11,18.99Z"/>
  </g>
  <g>
    <circle class="cls-1" cx="500.55" cy="499.55" r="303.09"/>
    <path class="cls-5" d="M194.21,583.53c1.21,4.5.69,7.62.38,8.8-.83,1.22-4.17,2.8-7.49,3.69-.73-.17-1.08-1.28-.65-1.82,2.91-1.83,6.53-6.31,5.41-10.47-.97-3.62-3.91-4.61-6.35-3.95-3.96,1.06-5.3,5.41-5.98,8.73-.81,3.99-2.71,8.64-7.54,9.94-5.51,1.53-10.48-1.74-12.38-8.83-.43-1.61-.78-3.67-.72-5.78.02-.69,0-1.15-.06-1.77.97-.68,3.48-1.88,6.75-2.76.65.09,1.03,1.29.66,1.87-2.27,1.5-5.27,4.56-4.32,8.08.87,3.22,3.44,4.42,5.88,3.76,2.25-.6,3.76-3.16,4.37-5.94l.84-3.68c.8-3.46,2.59-8.08,7.97-9.53,6.01-1.62,11.25,2.27,13.23,9.65Z"/>
    <path class="cls-5" d="M171.05,557.22c.32,2.05.38,2.09,1.78,1.87l7.2-1.14c4.65-.73,5.05-1.1,5-3.4l-.05-1.63c.24-.45,1.39-.63,1.75-.27.35,2.87.69,5.37,1.05,7.62.38,2.4.82,4.89,1.33,7.42-.24.45-1.39.63-1.75.28l-.34-1.18c-.66-2.25-1.2-2.42-5.85-1.69l-18.6,2.93c-4.65.73-5.11,1.06-5.05,3.41l.04,1.22c-.24.45-1.39.63-1.75.28-.29-2.46-.65-5.07-1.03-7.47-.35-2.25-.8-4.74-1.25-6.93.24-.45,1.39-.63,1.75-.28l.32,1.03c.64,2.1,1.19,2.32,5.83,1.59l5.8-.92c1.45-.23,1.49-.29,1.17-2.34l-1.64-10.4c-.33-2.1-.38-2.09-1.83-1.86l-5.8.92c-4.65.73-5.01,1.05-5,3.4v1.38c-.22.45-1.37.63-1.74.28-.33-2.77-.67-5.22-1.05-7.62-.39-2.45-.8-4.74-1.26-7.03.24-.45,1.39-.63,1.75-.28l.31.98c.71,2.24,1.21,2.47,5.86,1.74l18.6-2.94c4.65-.73,4.95-1.09,4.99-3.45v-1.23c.25-.45,1.4-.63,1.76-.27.29,2.51.63,4.97.99,7.27.39,2.5.83,4.94,1.31,7.32-.24.45-1.39.63-1.75.28l-.32-1.08c-.66-2.25-1.2-2.42-5.85-1.69l-7.2,1.14c-1.4.22-1.45.23-1.12,2.33l1.64,10.4Z"/>
    <path class="cls-5" d="M171.26,519.01c.05,1.21.11,1.36,1.08,1.62l5.95,1.73c1.02.26,1.43.29,1.83.28.3-.01.58-.68.77-2.11l.19-1.53c.34-.32,1.5-.47,1.77.03-.03,1.77.05,3.59.09,5.72.07,1.72.27,2.88.37,5.2-.28.57-1.34.56-1.76.23l-.21-1.36c-.2-1.21-.65-2.2-2.66-2.98-2.06-.77-4.52-1.63-8.22-2.85l-12.53-4.08c-3.23-1.03-5.04-1.81-6.5-1.6-.66-2.4-3.21-4.17-3.22-4.27-.03-.66.21-.97.96-1.21,1.45-.47,3.29-1.15,6.83-2.57l19.53-7.71c2.99-1.19,4.13-1.69,4.36-3.58l.22-1.93c.24-.31,1.45-.47,1.77-.02,0,2.43.06,5.16.17,7.79.11,2.53.24,4.5.44,6.82-.28.57-1.34.71-1.76.18l-.32-1.61c-.25-1.15-.61-1.34-.92-1.33-.35.01-1.55.42-3.4,1.1l-4.29,1.55c-.8.29-.88.7-.81,2.46l.25,6.02ZM168.34,513.35c-.05-1.16-.21-1.41-1.51-.95l-4.04,1.49c-2.14.8-4.84,1.82-5.88,2.32,1.18.36,3.95,1.25,6.31,1.91l3.84,1.11c1.38.4,1.52.14,1.47-1.13l-.2-4.75Z"/>
    <path class="cls-5" d="M175.25,463.39c3.28.22,6.46.43,8.14.44.58.39,1.04,1.84.96,3.06,0,.05-2.69,1.54-5.78,3.72l-15.22,10.7c-3.78,2.69-6.01,4.21-6.83,5.07.49.29,1.35.34,3.21.47l9.8.65c4.09.27,7.89.32,9.29-.14,1.09-.38,1.52-1.52,1.81-2.82l.3-1.4c.43-.38,1.48-.21,1.77.12-.28,2.72-.47,4.74-.6,6.76-.12,1.87-.2,3.74-.23,5.66-.32.28-1.39.31-1.77-.12l-.09-.87c-.16-1.38-.45-2.41-1.48-2.89-1.33-.65-5.1-1.05-9.19-1.32l-12.82-.86c-2.78-.19-3.59-.19-4.32.07-.89.35-1.54,1.01-1.91,2.76l-.3,1.4c-.43.33-1.64.19-1.75-.32.26-2.37.48-4.89.62-6.96.11-1.72.16-3.18.13-4.25,2.31-.35,6.36-3.38,12.07-7.56l5.28-3.91c2.77-2.05,4.64-3.39,5.88-4.48-.49-.24-1.35-.29-2.26-.35l-6.97-.47c-4.09-.27-7.89-.32-9.29.14-1.09.38-1.52,1.47-1.81,2.82l-.29,1.35c-.43.38-1.48.21-1.77-.12.28-2.72.47-4.69.6-6.76.12-1.87.2-3.69.23-5.67.32-.28,1.39-.31,1.77.12l.09.92c.11,1.33.45,2.31,1.48,2.84,1.33.65,5.1,1.1,9.19,1.37l12.07.81Z"/>
    <path class="cls-5" d="M184.82,424.58c2.09.39,3.1.48,3.48-.43.24-.16,1.07.05,1.17.37,0,.87-.1,2.19.09,3.62.22,1.84.06,6.24-.46,9.03-.64,3.38-1.53,6.2-3.58,9.47-3.43,5.38-9.7,8.32-16.86,6.97-6.22-1.17-11.16-4.98-13.37-11.58-1.2-3.73-1.24-7.91-.45-12.13,1.04-5.52,2.75-8.03,3.05-9.62,1.52.13,5.01.74,8.14.81.51.3.31,1.65-.26,1.91-4.97.71-7.9,3.41-8.77,8.03-1.49,7.91,4.36,12.97,12.21,14.45,7.11,1.34,11.8-.3,14.59-3.12,2.04-2.09,2.82-4.62,3.17-6.46.53-2.83.1-3.53-3.13-4.14l-3.13-.59c-2.69-.51-3.04-.26-3.84,2.06l-.71,2.13c-.4.49-1.54.28-1.74-.33.76-3.51,1.27-5.94,1.73-8.38.45-2.39.86-4.83,1.08-6.54.37-.34,1.52-.13,1.74.33l-.02,1.18c-.03,1.54.41,1.93,3.09,2.44l2.78.52Z"/>
    <path class="cls-5" d="M180.48,402.24c-.63,1.98-.6,2.04.75,2.47l6.94,2.23c4.48,1.44,5.01,1.29,5.99-.79l.69-1.48c.41-.29,1.52.06,1.69.54-.98,2.71-1.8,5.11-2.5,7.27-.74,2.31-1.47,4.74-2.16,7.22-.41.29-1.52-.06-1.69-.54l.23-1.2c.42-2.31.02-2.7-4.46-4.14l-17.92-5.76c-4.48-1.44-5.04-1.35-6.04.77l-.52,1.11c-.41.29-1.52-.06-1.69-.54.85-2.33,1.71-4.82,2.45-7.13.7-2.17,1.42-4.59,2.01-6.74.41-.29,1.52.06,1.69.54l-.18,1.06c-.38,2.16.01,2.61,4.49,4.05l5.59,1.79c1.4.45,1.46.42,2.1-1.56l3.22-10.02c.65-2.02.6-2.04-.8-2.49l-5.59-1.79c-4.48-1.44-4.94-1.32-5.99.79l-.61,1.24c-.41.29-1.52-.06-1.69-.54.95-2.62,1.75-4.96,2.5-7.28.76-2.36,1.42-4.59,2.04-6.84.41-.29,1.52.06,1.69.54l-.17,1.01c-.37,2.32-.03,2.75,4.45,4.19l17.92,5.76c4.48,1.44,4.91,1.26,6.01-.83l.56-1.09c.41-.29,1.52.06,1.69.55-.87,2.38-1.68,4.72-2.39,6.94-.77,2.41-1.48,4.78-2.13,7.12-.41.29-1.52-.06-1.69-.54l.2-1.11c.42-2.31.02-2.7-4.46-4.14l-6.94-2.23c-1.35-.43-1.4-.45-2.05,1.57l-3.22,10.02Z"/>
    <path class="cls-5" d="M197.9,368.19c-.5,1.11-.52,1.26.23,1.94l4.53,4.23c.8.69,1.14.91,1.51,1.08.28.13.82-.35,1.64-1.53l.86-1.28c.45-.13,1.55.26,1.57.83-.83,1.57-1.58,3.23-2.5,5.14-.71,1.57-1.06,2.69-2.02,4.81-.51.38-1.45-.1-1.68-.59l.43-1.31c.36-1.17.41-2.26-1.03-3.86-1.49-1.62-3.3-3.5-6.05-6.25l-9.33-9.3c-2.42-2.38-3.68-3.89-5.08-4.36.5-2.44-.98-5.17-.94-5.26.27-.6.63-.77,1.4-.64,1.5.24,3.46.46,7.25.79l20.91,1.94c3.2.29,4.45.36,5.5-1.22l1.07-1.62c.36-.17,1.5.24,1.59.78-1.1,2.17-2.27,4.64-3.36,7.03-1.05,2.3-1.82,4.12-2.69,6.28-.51.38-1.52.03-1.65-.64l.44-1.58c.3-1.14.06-1.47-.22-1.6-.32-.15-1.57-.33-3.53-.55l-4.53-.56c-.84-.1-1.1.22-1.83,1.83l-2.49,5.48ZM197.84,361.83c.48-1.06.45-1.35-.92-1.53l-4.28-.5c-2.27-.26-5.14-.56-6.29-.58.89.85,2.96,2.9,4.77,4.56l2.93,2.72c1.06.98,1.3.81,1.82-.34l1.97-4.33Z"/>
    <path class="cls-5" d="M217.3,338.5c4.16,2.31,4.61,2.21,6.1.38l.91-1.12c.46-.21,1.45.4,1.52.9-1.41,2.34-2.66,4.48-3.82,6.56-1.18,2.12-2.36,4.36-3.6,6.8-.46.21-1.48-.36-1.55-.86l.47-1.36c.78-2.23.61-2.67-3.54-4.98l-16.28-9.03c-4.16-2.31-4.62-2.21-6.1-.38l-.91,1.12c-.46.21-1.48-.36-1.55-.86,1.41-2.34,2.69-4.53,3.86-6.65,1.15-2.08,2.34-4.32,3.57-6.75.46-.21,1.48.36,1.55.86l-.47,1.36c-.78,2.23-.61,2.67,3.54,4.98l16.28,9.03Z"/>
    <path class="cls-5" d="M225.6,280.4c.74.54,4.09,2.8,6.73,4.16.37.52-.27,1.74-.85,1.76-4.61-1.67-8.56-.55-11.45,3.42-3.31,4.54-2.98,12.23,5.15,18.17s15.93,4.43,19.51-.47c3.61-4.94,1.73-9.83-.25-12.96-.09-.57.75-1.46,1.42-1.34,2.81,2.49,4.76,4.98,5.28,6.24-1,2.65-2.22,6.21-4.54,9.4-2.92,4-6.85,7.4-11.13,8.73-4.4,1.3-9.43,1.07-14.49-2.63-4.98-3.64-6.95-8.33-7.22-12.85-.29-4.66,1.52-9.72,4.63-13.97,3.04-4.17,6.23-6.48,7.21-7.64Z"/>
    <path class="cls-5" d="M267.14,258.27c8.08,7.51,7.91,17.43.5,25.4-6.92,7.45-16.84,8.31-24.59,1.12-7.34-6.82-7.91-17.57-.71-25.32,7.16-7.71,17.28-8.19,24.8-1.2ZM243.77,261.35c-4.24,4.56-2.25,10.97,3.94,16.72,4.52,4.2,13.27,9.36,18.88,3.32,4.51-4.86,1.52-11.15-4.48-16.73-6.34-5.89-14.07-7.9-18.34-3.3Z"/>
    <path class="cls-5" d="M285.73,253.3c1.55,1.8,2.77,2.89,3.79,3.08,1.06.22,2.01-.07,4.81-2.48,3.49-3.01,4.46-4.05,2.88-10.44-.02-.65.99-1.25,1.65-1.03,1.53,2.16,3.35,6.13,3.71,7.63-2.1,1.68-5.81,4.81-8.95,7.52l-5.13,4.43c-1.76,1.52-3.64,3.21-5.95,5.34-.54.07-1.38-.75-1.27-1.24l1.29-1.45c1.52-1.72,1.49-2.22-1.58-5.78l-12.3-14.25c-3.08-3.56-3.6-3.71-5.52-2.45l-1.24.81c-.58.1-1.34-.78-1.08-1.41,2.06-1.64,4.01-3.26,5.84-4.85,1.84-1.59,3.72-3.28,5.57-5.01.5-.03,1.27.85,1.16,1.34l-.86,1.01c-1.49,1.76-1.46,2.26,1.62,5.82l11.57,13.4Z"/>
    <path class="cls-5" d="M309.81,234.19c1.38,1.94,2.48,3.14,3.49,3.42,1.03.32,2.01.12,5.02-2.02,3.75-2.67,4.82-3.62,3.85-10.13.04-.65,1.1-1.16,1.74-.87,1.32,2.29,2.77,6.42,2.98,7.94-2.24,1.47-6.23,4.25-9.61,6.65l-5.52,3.93c-1.9,1.35-3.93,2.86-6.43,4.76-.55.02-1.3-.87-1.15-1.35l1.42-1.32c1.68-1.57,1.69-2.07-1.04-5.91l-10.92-15.34c-2.73-3.83-3.24-4.03-5.27-2.96l-1.31.69c-.59.05-1.26-.9-.94-1.5,2.2-1.44,4.29-2.87,6.27-4.28,1.98-1.41,4.01-2.92,6.01-4.47.51.01,1.18.96,1.03,1.44l-.95.93c-1.65,1.61-1.66,2.11,1.07,5.95l10.27,14.43Z"/>
    <path class="cls-5" d="M329.66,207.15c.71,1.23.8,1.29,1.99.61l3.02-1.75c2.28-1.32,2.63-1.93,1.85-4.28l-.41-1.22c.1-.53,1.2-1.16,1.65-.89.72,1.45,1.59,3.05,2.55,4.72s1.92,3.22,2.81,4.57c0,.52-1.06,1.2-1.6.98l-.85-.97c-1.65-1.85-2.38-1.9-4.66-.58l-3.02,1.75c-1.18.68-1.2.75-.44,2.07l3.01,5.21c1.16,2.02,2.15,3.32,3.11,3.76,1.03.46,2.06.33,5.26-1.52,3.81-2.2,5.22-3.19,4.77-9.54.07-.68,1.27-1.14,1.75-.72,1.14,2.38,2.14,6.54,2.21,8.07-2.37,1.25-6.6,3.64-10.2,5.72l-5.7,3.29c-2.1,1.22-4.22,2.5-7.46,4.49-.5-.06-1.11-1.11-.89-1.53l1.88-1.5c1.79-1.45,1.91-1.86-.42-5.89l-9.44-16.34c-2.3-3.99-2.72-4.1-4.92-3.35l-1.22.41c-.55-.04-1.08-1.07-.8-1.58,2.11-1.1,4.28-2.3,6.38-3.51l9.29-5.37c2.8-1.62,5.28-3.11,5.79-3.52.45.68,2.58,3.65,4.49,6.46.1.58-.85,1.25-1.52,1.11-1.37-1.25-2.74-2.21-3.66-2.5-1.31-.35-2.93-.12-5.08,1.12l-3.5,2.03c-1.45.84-1.4.92-.46,2.54l4.43,7.67Z"/>
    <path class="cls-5" d="M383.19,196.99c.86,1.94,1.36,2.83,2.32,2.62.27.1.57.91.35,1.17-.73.49-1.87,1.16-2.93,2.13-1.39,1.23-5.11,3.59-7.7,4.73-3.15,1.39-5.97,2.26-9.83,2.42-6.38.22-12.35-3.28-15.3-9.94-2.56-5.78-2.22-12.02,1.96-17.58,2.39-3.1,5.81-5.5,9.74-7.24,5.14-2.27,8.17-2.29,9.65-2.94.75,1.33,2.23,4.54,3.94,7.16.04.59-1.19,1.19-1.72.87-3.41-3.69-7.28-4.58-11.59-2.67-7.36,3.26-8.22,10.94-4.98,18.25,2.93,6.62,6.94,9.54,10.84,10.25,2.88.5,5.4-.29,7.12-1.05,2.64-1.17,2.97-1.92,1.64-4.93l-1.29-2.91c-1.11-2.5-1.51-2.65-3.87-1.99l-2.16.62c-.63-.05-1.1-1.12-.72-1.62,3.33-1.36,5.61-2.32,7.88-3.32,2.22-.98,4.47-2.03,6-2.82.49.11.96,1.18.72,1.62l-.98.66c-1.29.85-1.36,1.43-.25,3.93l1.15,2.59Z"/>
    <path class="cls-5" d="M399.2,189.84c1.53,4.5,1.93,4.74,4.26,4.38l1.42-.22c.48.16.81,1.28.52,1.69-2.62.78-4.98,1.53-7.24,2.3-2.3.78-4.68,1.64-7.23,2.62-.48-.16-.85-1.26-.57-1.68l1.26-.69c2.07-1.13,2.25-1.56.72-6.07l-5.99-17.63c-1.53-4.5-1.93-4.74-4.26-4.38l-1.42.22c-.48-.16-.85-1.26-.57-1.68,2.62-.78,5.03-1.55,7.33-2.33,2.25-.76,4.63-1.63,7.19-2.6.48.16.85,1.26.57,1.68l-1.26.7c-2.07,1.13-2.25,1.56-.72,6.07l5.99,17.63Z"/>
    <path class="cls-5" d="M414.57,181.02c-1.18.3-1.31.38-1.37,1.39l-.48,6.17c-.05,1.06,0,1.46.1,1.85.07.29.79.43,2.22.33l1.53-.12c.38.27.76,1.37.33,1.74-1.74.33-3.51.78-5.58,1.25-1.67.42-2.76.85-5.02,1.42-.61-.16-.82-1.2-.58-1.68l1.29-.48c1.14-.44,2.02-1.08,2.38-3.21.34-2.17.68-4.76,1.12-8.63l1.45-13.1c.35-3.38.75-5.3.25-6.69,2.22-1.13,3.43-3.99,3.53-4.02.64-.16.99.01,1.38.7.75,1.32,1.8,2.99,3.9,6.17l11.51,17.56c1.77,2.69,2.5,3.7,4.39,3.54l1.94-.17c.36.17.75,1.32.38,1.73-2.38.49-5.04,1.11-7.59,1.75-2.45.62-4.35,1.15-6.59,1.81-.61-.16-.97-1.16-.53-1.69l1.51-.64c1.08-.48,1.19-.87,1.12-1.17-.09-.34-.73-1.43-1.77-3.1l-2.39-3.89c-.44-.72-.86-.72-2.58-.29l-5.84,1.47ZM419.51,177.01c1.13-.28,1.34-.49.62-1.67l-2.28-3.65c-1.22-1.94-2.77-4.36-3.47-5.28-.11,1.23-.42,4.12-.59,6.57l-.3,3.99c-.11,1.44.17,1.52,1.4,1.21l4.61-1.16Z"/>
    <path class="cls-5" d="M446.84,155.68c-.17-1.2-.21-1.45-1.41-1.28l-3.1.45c-3.66.53-4.42,2.69-5.39,6.56-.56.39-1.52.43-1.92-.18.55-3.61.35-6.75.42-8.75.18-.18.41-.32.67-.35.25-.04.51-.02.73.1.37.81.55.99,4.36.44l18.63-2.7c3.31-.48,4.05-.64,4.35-1.76.19-.13.33-.2.63-.24s.68.11.8.24c-.25,1.78-.02,5.88.5,8.72-.19.49-1.52.78-1.83.42-1.32-3.08-2.36-5.33-6.11-4.79l-3,.44c-1.2.17-1.33.35-1.14,1.65l3.2,22.08c.68,4.66,1.03,5.01,3.33,4.99l2.04-.04c.39.25.56,1.4.25,1.75-3.27.37-5.78.69-8.03,1.01-2.4.35-5,.78-8.49,1.39-.44-.24-.61-1.39-.25-1.75l2.22-.58c2.22-.58,2.45-1.07,1.78-5.73l-3.2-22.08Z"/>
    <path class="cls-5" d="M483.12,161.37c.06,1.42.12,1.51,1.48,1.45l3.49-.16c2.63-.12,3.22-.5,3.62-2.95l.2-1.27c.34-.42,1.6-.48,1.87-.03-.03,1.62,0,3.44.09,5.37.09,1.92.22,3.74.39,5.35-.23.47-1.49.57-1.87.13l-.31-1.25c-.61-2.4-1.24-2.78-3.87-2.66l-3.49.16c-1.36.06-1.41.11-1.34,1.63l.27,6.02c.1,2.33.38,3.93,1.02,4.77.7.88,1.68,1.24,5.37,1.08,4.4-.2,6.11-.43,8.63-6.26.38-.57,1.65-.43,1.88.17-.08,2.64-1.11,6.79-1.76,8.18-2.68.02-7.54.19-11.68.37l-6.57.3c-2.43.11-4.9.27-8.69.54-.42-.29-.47-1.5-.08-1.77l2.36-.46c2.26-.46,2.55-.77,2.34-5.42l-.85-18.86c-.21-4.6-.52-4.89-2.82-5.24l-1.28-.2c-.47-.28-.47-1.45.02-1.77,2.38,0,4.86-.07,7.29-.18l10.72-.48c3.24-.15,6.11-.33,6.77-.46.09.81.6,4.43,1.01,7.81-.18.56-1.34.72-1.86.29-.64-1.74-1.41-3.23-2.1-3.91-1-.92-2.55-1.46-5.02-1.34l-4.04.18c-1.67.07-1.66.18-1.58,2.05l.4,8.85Z"/>
    <path class="cls-5" d="M529.28,152.73c.11-1.21.13-1.46-1.08-1.57l-3.12-.29c-3.68-.34-4.92,1.58-6.77,5.12-.63.25-1.58.06-1.82-.62,1.38-3.38,1.92-6.48,2.45-8.41.22-.13.48-.21.73-.19.25.02.5.1.69.27.17.88.31,1.09,4.14,1.45l18.74,1.72c3.33.31,4.08.32,4.64-.69.21-.08.37-.12.67-.09.3.03.64.26.72.42-.66,1.67-1.39,5.72-1.55,8.6-.29.43-1.66.41-1.88-.02-.56-3.3-1.05-5.74-4.83-6.08l-3.02-.28c-1.21-.11-1.37.03-1.49,1.34l-2.04,22.22c-.43,4.69-.16,5.12,2.08,5.63l1.99.44c.33.33.22,1.49-.16,1.76-3.27-.4-5.78-.68-8.05-.89-2.42-.22-5.04-.41-8.58-.63-.38-.34-.27-1.5.16-1.76l2.29-.04c2.29-.04,2.63-.47,3.06-5.16l2.04-22.22Z"/>
    <path class="cls-5" d="M587.23,175.15c-2.27,10.79-10.86,15.76-21.5,13.53-9.95-2.09-15.81-10.14-13.64-20.49,2.06-9.8,10.98-15.84,21.32-13.67,10.3,2.16,15.92,10.58,13.82,20.63ZM572.54,156.71c-6.09-1.28-10.55,3.73-12.29,12-1.27,6.04-1.17,16.19,6.9,17.89,6.49,1.36,10.34-4.45,12.03-12.47,1.78-8.47-.49-16.13-6.63-17.42Z"/>
    <path class="cls-5" d="M599.95,169.37c1.53-4.45,1.34-4.84-.67-6.01l-1.11-.65c-.28-.42.03-1.49.65-1.59,2.26.88,4.64,1.75,6.94,2.54,2.34.81,4.71,1.56,7.04,2.25.28.42-.08,1.47-.56,1.63l-1.21-.2c-2.28-.36-2.7-.07-4.23,4.38l-3.8,11.05c-1.92,5.6-3.42,11.99,3.85,14.48,6.12,2.1,9.83-2.62,12.08-9.17l1.99-5.79c1.33-3.88,2.39-7.58,2.29-9-.09-1.15-1.04-1.8-2.25-2.48l-1.21-.68c-.25-.51.17-1.44.56-1.63,2.55.98,4.4,1.67,6.36,2.35,1.77.61,3.56,1.17,5.41,1.7.19.39-.04,1.38-.56,1.63l-.93-.1c-1.34-.14-2.35-.17-3.13.69-.95,1.06-2.39,4.63-3.73,8.51l-1.84,5.36c-1.54,4.5-3.39,8.47-7.02,10.48-2.88,1.53-6.78,1.52-10.66.19-3.64-1.25-6.69-2.94-8.55-5.93-1.78-2.91-1.62-6.81.17-12.03l4.11-11.96Z"/>
    <path class="cls-5" d="M642.85,196.79c-1.86-.91-1.93-.89-2.55.38l-3.21,6.54c-2.07,4.23-2,4.77-.09,6.04l1.36.9c.23.45-.28,1.5-.78,1.59-2.55-1.36-4.8-2.52-6.84-3.52-2.18-1.07-4.48-2.14-6.84-3.18-.23-.45.28-1.5.78-1.59l1.16.4c2.22.75,2.67.41,4.75-3.82l8.29-16.9c2.07-4.23,2.07-4.79.11-6.09l-1.02-.67c-.23-.45.28-1.5.78-1.59,2.18,1.18,4.52,2.39,6.7,3.46,2.04,1,4.34,2.07,6.38,2.96.23.45-.28,1.5-.78,1.59l-1.02-.33c-2.09-.69-2.58-.36-4.65,3.86l-2.58,5.27c-.65,1.32-.62,1.39,1.24,2.3l9.45,4.63c1.91.94,1.93.89,2.58-.43l2.58-5.27c2.07-4.23,2.02-4.7.09-6.04l-1.14-.78c-.23-.45.28-1.5.78-1.59,2.45,1.32,4.66,2.45,6.84,3.52,2.23,1.09,4.34,2.07,6.47,3,.23.45-.28,1.5-.78,1.59l-.98-.31c-2.25-.71-2.72-.43-4.79,3.79l-8.29,16.9c-2.07,4.23-1.96,4.68-.04,6.07l1,.72c.23.45-.28,1.5-.78,1.59-2.23-1.2-4.43-2.34-6.52-3.37-2.27-1.11-4.52-2.16-6.75-3.14-.23-.45.28-1.5.78-1.59l1.07.35c2.22.75,2.67.41,4.75-3.82l3.21-6.54c.62-1.27.65-1.32-1.26-2.25l-9.45-4.63Z"/>
    <path class="cls-5" d="M700.13,229.6c-6.08,9.2-15.9,10.66-24.98,4.65-8.48-5.61-10.96-15.25-5.13-24.08,5.53-8.36,16.04-10.68,24.86-4.85,8.78,5.81,10.91,15.7,5.24,24.27ZM693.27,207.05c-5.19-3.43-11.19-.42-15.85,6.63-3.4,5.15-7.06,14.62-.18,19.17,5.53,3.66,11.25-.32,15.78-7.16,4.77-7.22,5.49-15.18.25-18.64Z"/>
    <path class="cls-5" d="M714.05,228.86c3.05-3.58,3.02-4.01,1.58-5.83l-.8-1.01c-.11-.49.57-1.37,1.19-1.24,1.78,1.65,3.67,3.33,5.52,4.91,1.89,1.61,3.8,3.18,5.72,4.68.11.49-.61,1.34-1.12,1.31l-1.06-.63c-1.99-1.17-2.49-1.06-5.54,2.52l-7.59,8.89c-3.84,4.5-7.58,9.89-1.73,14.89,4.93,4.21,10.11,1.18,14.61-4.1l3.98-4.66c2.66-3.12,5-6.17,5.43-7.54.34-1.1-.31-2.06-1.18-3.14l-.88-1.08c-.04-.57.69-1.27,1.12-1.31,2.01,1.85,3.48,3.17,5.06,4.52,1.42,1.22,2.88,2.39,4.41,3.56.03.43-.55,1.26-1.12,1.31l-.82-.44c-1.2-.62-2.13-1.02-3.16-.5-1.28.64-3.93,3.43-6.59,6.55l-3.68,4.31c-3.09,3.62-6.26,6.63-10.38,7.17-3.24.36-6.87-1.07-9.99-3.73-2.92-2.5-5.15-5.19-5.78-8.66-.59-3.36,1-6.93,4.58-11.13l8.21-9.62Z"/>
    <path class="cls-5" d="M745.74,278.9c-.8-.92-.94-1-1.86-.59l-5.72,2.37c-.96.44-1.3.66-1.61.93-.23.2-.03.9.71,2.13l.81,1.31c-.07.46-.88,1.3-1.4,1.09-1.09-1.4-2.28-2.78-3.64-4.41-1.13-1.3-2.01-2.07-3.54-3.83-.14-.62.7-1.28,1.24-1.28l1.01.93c.91.82,1.88,1.31,3.93.67,2.09-.68,4.55-1.55,8.2-2.91l12.33-4.64c3.17-1.22,5.07-1.73,6.07-2.81,2.01,1.47,5.11,1.25,5.18,1.32.43.5.44.89,0,1.54-.84,1.27-1.85,2.96-3.73,6.27l-10.43,18.22c-1.59,2.8-2.17,3.9-1.17,5.51l1.03,1.65c0,.4-.84,1.27-1.37,1.13-1.52-1.9-3.28-3.99-5-5.98-1.66-1.91-3-3.36-4.6-5.05-.14-.62.6-1.39,1.27-1.24l1.25,1.05c.92.74,1.32.66,1.55.46.27-.23.95-1.3,1.96-2.98l2.38-3.89c.44-.72.25-1.09-.91-2.43l-3.96-4.54ZM751.55,281.48c.76.88,1.04.97,1.77-.2l2.23-3.68c1.17-1.96,2.64-4.44,3.14-5.49-1.14.46-3.87,1.49-6.12,2.45l-3.69,1.54c-1.33.55-1.28.84-.45,1.8l3.12,3.59Z"/>
    <path class="cls-5" d="M757.19,312.47c-2.73-3.77-3.35-6.88-3.48-8.1.34-1.43,2.91-4.1,5.69-6.12.74-.1,1.46.81,1.25,1.47-2.07,2.75-3.86,8.22-1.33,11.71,2.19,3.03,5.29,2.92,7.34,1.43,3.32-2.4,3.03-6.94,2.48-10.29-.66-4.02-.54-9.04,3.52-11.98,4.6-3.39,10.41-2.1,14.71,3.85.98,1.35,2.03,3.15,2.73,5.15.22.65.41,1.08.68,1.63-.66.98-2.58,2.99-5.33,4.98-.64.15-1.42-.84-1.28-1.51,1.59-2.21,3.3-6.14,1.17-9.09-1.96-2.71-4.79-2.91-6.84-1.42-1.89,1.36-2.39,4.29-1.97,7.11l.52,3.74c.49,3.52.45,8.48-4.06,11.74-5.04,3.65-11.32,1.88-15.8-4.31Z"/>
    <path class="cls-5" d="M771.58,333.96c-2.41-3.98-2.78-7.13-2.82-8.35.45-1.4,3.23-3.85,6.17-5.63.75-.04,1.39.93,1.13,1.57-2.29,2.57-4.51,7.88-2.28,11.56,1.94,3.2,5.04,3.34,7.2,2.02,3.51-2.12,3.59-6.67,3.31-10.06-.33-4.06.19-9.05,4.48-11.65,4.86-3.01,10.55-1.25,14.35,5.03.87,1.43,1.77,3.31,2.3,5.35.17.67.32,1.11.55,1.68-.74.92-2.82,2.77-5.72,4.53-.65.1-1.35-.96-1.15-1.61,1.76-2.07,3.79-5.85,1.9-8.96-1.73-2.86-4.54-3.29-6.7-1.97-1.99,1.21-2.73,4.08-2.55,6.93l.22,3.77c.2,3.55-.24,8.49-5,11.37-5.32,3.23-11.43.95-15.39-5.58Z"/>
    <path class="cls-5" d="M811.55,372.95c-9.98,4.7-19.12.85-23.76-8.99-4.34-9.2-1.45-18.73,8.12-23.24,9.06-4.27,19.25-.8,23.76,8.76,4.49,9.52,1.17,19.08-8.12,23.46ZM817.4,350.11c-2.65-5.63-9.34-6.17-16.98-2.56-5.58,2.63-13.62,8.83-10.11,16.29,2.83,5.99,9.78,5.57,17.2,2.07,7.83-3.69,12.57-10.12,9.89-15.8Z"/>
    <path class="cls-5" d="M838.72,403.04c-.86.29-4.66,1.71-7.3,3.07-.64,0-1.26-1.23-.94-1.71,4.04-2.78,5.42-6.65,3.87-11.31-1.77-5.33-8.23-9.53-17.79-6.35s-12.86,10.41-10.94,16.17c1.93,5.81,7,7.11,10.7,7.32.51.26.75,1.46.27,1.94-3.67.85-6.82.99-8.15.68-1.58-2.35-3.77-5.41-5.02-9.16-1.56-4.71-2.06-9.88-.64-14.13,1.49-4.33,4.6-8.3,10.55-10.28,5.86-1.95,10.82-.82,14.66,1.58,3.97,2.47,7.04,6.89,8.7,11.88,1.63,4.9,1.66,8.83,2.04,10.31Z"/>
    <path class="cls-5" d="M818.2,426.93c-4.62,1.11-4.9,1.48-4.75,3.84l.08,1.44c-.2.46-1.34.69-1.73.36-.54-2.68-1.07-5.1-1.62-7.42-.57-2.36-1.2-4.81-1.94-7.44.2-.46,1.33-.74,1.72-.41l.58,1.32c.94,2.17,1.35,2.38,5.98,1.27l18.11-4.33c4.63-1.11,4.9-1.48,4.75-3.84l-.08-1.44c.2-.46,1.33-.74,1.72-.41.54,2.68,1.08,5.15,1.64,7.51.55,2.31,1.19,4.76,1.93,7.4-.2.46-1.33.74-1.72.41l-.58-1.32c-.94-2.17-1.35-2.38-5.98-1.27l-18.11,4.33Z"/>
    <path class="cls-5" d="M825.57,443.01c-.19-1.2-.26-1.34-1.26-1.49l-6.1-1.05c-1.05-.14-1.45-.13-1.85-.07-.3.05-.5.74-.53,2.18l-.02,1.54c-.3.35-1.44.63-1.77.17-.17-1.77-.45-3.57-.73-5.67-.27-1.7-.59-2.83-.95-5.13.21-.6,1.27-.71,1.73-.42l.36,1.33c.34,1.18.89,2.11,2.98,2.66,2.13.54,4.68,1.11,8.49,1.9l12.91,2.65c3.33.66,5.21,1.24,6.64.86.92,2.31,3.66,3.78,3.68,3.88.1.65-.1.99-.82,1.31-1.39.63-3.14,1.51-6.5,3.32l-18.54,9.86c-2.84,1.52-3.92,2.15-3.93,4.04v1.95c-.21.34-1.39.63-1.76.22-.27-2.42-.64-5.12-1.05-7.72-.39-2.5-.74-4.44-1.2-6.72.21-.6,1.25-.86,1.73-.37l.5,1.56c.38,1.12.76,1.26,1.06,1.22.35-.05,1.5-.59,3.25-1.48l4.09-2.02c.76-.38.8-.79.53-2.54l-.93-5.95ZM829.11,448.3c.18,1.15.37,1.38,1.61.77l3.85-1.93c2.04-1.04,4.6-2.36,5.58-2.97-1.21-.22-4.07-.8-6.49-1.19l-3.95-.67c-1.42-.24-1.53.03-1.34,1.28l.73,4.7Z"/>
    <path class="cls-5" d="M847.84,477.47c1.21-.06,1.46-.08,1.4-1.29l-.17-3.13c-.19-3.69-2.27-4.64-6.04-5.96-.33-.59-.28-1.56.36-1.89,3.54.88,6.69.96,8.68,1.21.16.19.28.44.29.69.01.25-.02.51-.16.72-.85.3-1.04.46-.84,4.3l.99,18.79c.18,3.33.27,4.09,1.35,4.49.11.2.17.35.19.65.02.3-.17.67-.31.78-1.74-.41-5.86-.55-8.73-.3-.47-.23-.64-1.59-.25-1.86,3.19-1.03,5.52-1.86,5.32-5.65l-.16-3.03c-.06-1.21-.22-1.36-1.54-1.29l-22.28,1.18c-4.7.25-5.09.57-5.27,2.86l-.15,2.03c-.28.37-1.45.43-1.77.1-.07-3.29-.16-5.82-.28-8.09-.13-2.43-.32-5.05-.61-8.58.28-.42,1.44-.48,1.77-.09l.37,2.26c.37,2.26.84,2.54,5.54,2.29l22.28-1.18Z"/>
    <path class="cls-5" d="M826.09,512.28c-4.75-.13-5.12.16-5.59,2.48l-.29,1.41c-.31.4-1.48.31-1.77-.1.18-2.73.29-5.21.36-7.58.07-2.43.09-4.96.06-7.69.31-.4,1.48-.36,1.77.05l.21,1.42c.34,2.34.69,2.65,5.44,2.78l18.61.51c4.75.13,5.12-.16,5.59-2.48l.29-1.41c.31-.4,1.48-.36,1.77.05-.18,2.73-.3,5.26-.36,7.69-.07,2.38-.08,4.91-.06,7.64-.32.4-1.48.36-1.77-.05l-.21-1.42c-.34-2.34-.69-2.65-5.44-2.78l-18.61-.51Z"/>
    <path class="cls-5" d="M831.2,557.82c-10.95-1.32-16.65-9.45-15.34-20.25,1.22-10.1,8.73-16.63,19.23-15.36,9.95,1.2,16.74,9.56,15.47,20.06-1.26,10.45-9.16,16.78-19.36,15.55ZM848.29,541.58c.75-6.18-4.63-10.19-13.02-11.2-6.13-.74-16.23.23-17.22,8.42-.79,6.58,5.33,9.92,13.46,10.9,8.59,1.04,16.03-1.89,16.78-8.12Z"/>
    <path class="cls-5" d="M814.45,592.44c-3.19-.79-6.29-1.56-7.93-1.87-.5-.49-.7-2-.41-3.18.01-.05,2.92-1.05,6.34-2.64l16.87-7.85c4.2-1.98,6.66-3.09,7.62-3.79-.43-.37-1.26-.58-3.08-1.03l-9.53-2.37c-3.98-.99-7.71-1.71-9.17-1.5-1.14.19-1.77,1.23-2.28,2.46l-.54,1.33c-.49.3-1.5-.06-1.72-.43.76-2.63,1.3-4.58,1.79-6.54.45-1.82.85-3.65,1.22-5.54.37-.22,1.42-.06,1.72.43l-.06.87c-.08,1.39.02,2.45.95,3.1,1.19.87,4.84,1.93,8.82,2.92l12.47,3.1c2.7.67,3.5.82,4.26.7.93-.18,1.69-.73,2.37-2.38l.54-1.33c.48-.25,1.64.1,1.67.62-.67,2.28-1.33,4.73-1.83,6.74-.42,1.67-.72,3.11-.88,4.16-2.33-.06-6.86,2.2-13.21,5.32l-5.89,2.92c-3.09,1.52-5.16,2.52-6.57,3.37.44.32,1.28.53,2.16.75l6.78,1.69c3.98.99,7.71,1.71,9.17,1.5,1.14-.19,1.75-1.18,2.28-2.46l.53-1.28c.49-.29,1.5.06,1.72.43-.76,2.63-1.28,4.53-1.79,6.54-.45,1.82-.84,3.6-1.22,5.53-.37.22-1.42.06-1.72-.43l.07-.92c.12-1.33-.04-2.36-.96-3.05-1.19-.87-4.83-1.98-8.8-2.97l-11.74-2.92Z"/>
  </g>
  <g>
    <g>
      <path class="cls-8" d="M572.79,442.65c-3.1,1.08-6.08,1.09-8.99.13-1.23-.41-2.04-.47-2.63.93-7.51,17.72-21.05,29.31-38.04,37.4-.14.07-.21.28-.32.42,3.25,1.6,10.06-.47,19.47-5.91-3.17,6.83-17.62,16.81-24.42,16.83.69-1.3,1.5-2.54,2.02-3.89.41-1.06.65-2.1.51-3.19-.12-.91-.47-1.53-.61-1.81-1.11-2.29.26-5.55,1.07-8.3,1.07-3.59,1.24-6.48,1.39-9,.25-4.2-.27-5.88.41-10.51.26-1.79.4-2.69.75-3.72,1.07-3.06,2.77-4.39,5.57-7.84,2.25-2.76,1.48-2.3,3.88-5.31,0,0,7.02-10.68,8.65-13.13,0,0,.5-.82,1.53-1.96,1.87-2.05,2.4-1.91,3.25.7,1.12,3.42,3.14,6.18,6.03,8.25.46-.25.38-.54.19-.71-5.21-4.71-6.05-10.89-5.16-17.26.75-5.32-.81-9.58-4.03-13.53-1.48-1.82-2.91-3.68-4.57-5.37.92,2.71,2.25,5.18,4.01,7.38,3.29,4.13,3.84,8.53,1.18,13.08-2.54,4.35-6.73,5.89-12.02,6.36,1.31-1.83,2.99-2.8,3.71-5.27-5.04,2.85-10.03,4.28-15.63,4.53,2.24-2.09,4.36-3.89,6.26-5.89,3.21-3.38,3.24-4.67.59-8.51-1.57-2.27-1.7-4.62-.3-7,.7-1.19,1.48-2.33,2.2-3.51.7-1.13,2.02-1.88,2.22-4.3-3.3,3.42-7.01,5.31-9.56,8.53-1.53,1.93-.73,4,.44,5.92,2.58,4.26,2.08,6.18-1.9,9.28-3.65,2.84-7.64,4.72-12.2,5.4-1,.15-1.99.38-3.26-.17.81-.55,1.5-1,2.17-1.47,3.44-2.44,4.58-5,3.37-9-.8-2.63-.18-4.58,1.39-6.63,2.68-3.5,5.56-6.89,7.22-11.07,1.28-3.21,1.66-6.46.44-9.94.25,7.98-5.94,12.17-10.06,17.54-2.48,3.23-4.19,6.46-2.83,10.67.51,1.59-.36,2.8-1.65,3.78-3.19,2.43-6.93,2.83-10.73,2.87-5.16.05-10.28.26-15.33,1.6-2.62.69-5.1,1.53-7.41,3.19,1.61-3.03,2.17-6.48,4.48-9.18,5.36-6.26,11.51-11.65,17.8-16.92,4.04-3.38,7.68-7.16,10.68-11.52.76-1.11,1.47-2.25,1.47-3.7-4.25,7.5-10.74,12.84-17.26,18.09-7.97,6.41-14.43,14.18-20.62,22.21-1.93,2.51-3.36,5.29-3.87,8.45-.73,4.59,1.47,8.25,4.59,11.02,4.32,3.83,4.9,8.04,3.05,13.15-.9,2.48-1.32,5.1,1.62,6.79,1.05.6.79,1.32.1,2.01-1.1,1.11-2.08,2.42-3.38,3.24-5.7,3.6-12.06,5.2-19.07,5.75,9.38-7.26,13.96-15.79,8.28-27.29-.42-.08-.51.22-.47.47,1.71,9.45-3.12,15.82-9.98,21.24-4.5,3.55-9.29,6.66-14.48,9.08-6.7,3.12-10.23,8.56-12.3,15.43-2.67,8.84-.93,7.44-10.31,6.86-4.76-.3-8.4.66-11.36,4.53-2.38,3.11-5.52,5.65-7.34,9.55-5.52-8.1-6.52-16.72-4-25.85,1.53-5.55,4.25-10.55,7.41-15.35,6.54-9.94,10.12-20.72,11.45-32.71.92-8.31-1.24-15.6-3.23-23.18-2.15-8.2-2.92-16.47-1.39-24.85.66-3.64,2.35-6.91,4.31-10.07,4.27-6.89,10.5-11.84,16.71-16.69,15.95-12.45,34.23-19.54,54.12-22.72,8.29-1.32,16.59-2.34,25-1.7,7.76.59,14.86,2.7,19.88,9.24.62.81,1.32,1.41,2.53,1.34,8-.48,14.24,3.38,20.25,8.06,7.66,5.97,13.11,13.52,17.24,22.24,2.18,4.59,4.4,9.08,5.32,14.13,1.43,7.81-.52,15.13-3.04,22.38-.42,1.21-.78,2.47-1.39,3.58-5.27,9.67.93,18.35,7.7,21.73.39.19.79.35,1.19.52Z"/>
      <path class="cls-8" d="M403.5,428.33c-.86,7.58-3.73,13.49-9.71,17.45-6.93,4.58-13.76,9.24-19.15,15.67-6.98,8.35-10.61,17.76-8.72,28.81.34,2.02,1.13,3.85,2.19,5.62,6.01,10.01,2.26,19.49-8.92,22.92-4.49,1.38-6.34,5.27-7.55,9.24-2.82,9.26-1.65,18.16,3.36,26.5.12.2.15.46.31.95-4.61-1.55-8.6-3.69-11.98-6.85-12.4-11.59-20.22-25.22-20.08-42.83.15-19.12,8.15-34.01,23.22-45.32,8.85-6.65,19.08-10.64,29.27-14.65,4.45-1.75,8.87-3.57,13.12-5.78,7.64-3.98,9.13-5.12,14.64-11.72Z"/>
      <path class="cls-8" d="M404.9,441.27c-1.17,7.95-3.8,14.58-7.26,20.89-2.26,4.11-4.75,8.1-7.08,12.17-5.04,8.78-7.83,18.02-5.2,28.98-6.18-6.42-11.83-12.25-14.45-20.27-1.26-3.85-.49-7.4,1.35-10.89,4.43-8.4,11.46-14.27,18.82-19.91,4.44-3.4,9.36-6.2,13.83-10.98Z"/>
    </g>
    <g>
      <path class="cls-7" d="M447.06,556.87c-1.79,2.72-3.25,4.68-4.46,6.8-3.88,6.82-5.02,13.93-2.24,21.49,2.5,6.83,8.8,10.5,15.85,8.92,2.23-.5,2.81.93,3.2,2.43.67,2.59,1.76,5.04,2.53,7.58,1.19,3.96,3.54,7.01,6.63,9.63,4.31,3.65,9.86,3.03,13.1-1.53,2.16-3.04,4.41-3.16,6.34-.43.63.89.54,1.6.19,2.54-2.54,6.84-1.21,11.44,4.72,15.75,2.6,1.89,5.26,3.84,8.17,5.1,3.7,1.6,6.24,4.26,8.22,7.49,5.54,9.06,9.79,18.74,13.22,28.79.3.87.74,1.6-.46,2.3-8.75,5.17-12.66,13.53-14.82,22.95-.35,1.54-1.08,2.31-2.42,2.97-7.13,3.49-12.27,8.72-14.05,16.71-.35,1.56-.83,2.05-2.59,1.57-7.48-2.03-14.63-.79-21.33,2.88-1.69.93-2.56.57-3.75-.63-6.08-6.11-10.94-13.17-15.92-20.14-5.25-7.35-10.49-14.68-17.61-20.43-3.89-3.14-6.82-7.23-10.06-11-4.94-5.75-10.98-8.99-18.72-9.09-8.62-.11-16.08-3.48-22.66-8.94-3.8-3.16-6.92-6.94-9.31-11.21-8.96-15.98-14.43-32.9-14.35-51.49.03-6.93-.13-13.79,1.94-20.47,1.2-3.86,3.44-6.57,7.84-7.1,3.46-.42,6.89-1.16,10.29-1.93,4.06-.93,7.9-2.36,11.21-5.07,1.4-1.15,3.15-1.91,4.82-2.65,2.96-1.3,5.2-.77,7.5,1.56.58.59,1.17,1.18,1.74,1.77,4.69,4.83,10.12,6.75,16.79,4.58,4.48-1.46,8.8-.95,13.05,1.34,2.32,1.25,5.1,1.52,7.76.55,2.98-1.09,5.95-2.23,9.62-3.6Z"/>
      <path class="cls-7" d="M464.06,730.88c-8.24-.11-14.96-2.55-19.16-9.95-3.27-5.76-4.51-12.22-6.54-18.41-.4-1.22-.72-2.48-1.19-3.67-.9-2.28-2.39-3.33-4.97-2.46-7.32,2.47-12.32.91-18.31-6.82-3.68-4.75-5.89-10.4-8.95-15.53-2.15-3.61-4.86-5.61-9.2-5.13-17.43,1.92-28.47-10.15-33.91-22.29-2.8-6.24-4.61-12.8-6.38-19.38-.51-1.91-.96-3.23-3.49-2.35-2.11.74-3.64-.74-4.82-2.37-3.84-5.29-4.8-11.46-5.21-17.74-.27-4.22-.27-8.46.15-12.66.17-1.72-.57-2.49-2.05-2.53-2.24-.07-2.72-1.54-2.93-3.28-.67-5.62.74-10.79,3.66-15.55.97-1.57,2.33-3.17,4.41-2.74,2.16.45,2.87,2.35,3.15,4.4.87,6.38-.41,12.65-.98,18.94-.6,6.69-1.2,13.38-1.32,20.1-.01.6-.25,1.29.38,1.89.2-.07.55-.08.64-.24.77-1.39,1.52-2.88,3.42-2.73,2.05.16,2.76,1.81,3.58,3.41,3.62,7.08,5.87,14.68,8.47,22.14,2.93,8.4,6.62,16.4,12.99,22.84,3.74,3.78,8.08,6.71,13.13,8.43,1.02.35,2.83,1.52,2.3-1.47-.39-2.22,2.22-3.41,4.9-2.44,4.17,1.5,7.54,4.14,10.53,7.36,4.14,4.48,7.33,9.69,11.18,14.39,2.84,3.47,6.16,6.25,10.41,7.83.79-1.2-.21-2.05-.21-3.02,0-1.36-.45-2.87.94-3.8,1.48-.99,2.63.17,3.72.92,2.33,1.61,3.86,3.95,5.18,6.38,2.9,5.34,5.5,10.83,7.24,16.68.92,3.1,2.19,6.05,3.79,8.86,2.78,4.91,6.73,8.45,12.09,10.38,1.08.39,2.34.49,3.37,1.62Z"/>
      <path class="cls-7" d="M383.58,528.84c3.5,3.28,6.99,6.22,11.23,8.14,2.25,1.02,4.46.46,6.43-.36,6.88-2.86,13.84-5.48,21-7.57.88-.26,1.71-.73,2.6-.9,1.85-.36,3.51.1,4.64,1.71,1.1,1.57-.11,2.78-.83,4-.37.62-.94,1.13-1.41,1.69-.83,1-2.72,1.56-1.96,3.25.77,1.73,2.29,2.75,4.31,3.04,8.37,1.22,15.62-1.67,22.3-6.25,6.69-4.59,12.77-9.97,18.62-15.6,2.24-2.15,4.56-3.69,7.88-2.73,2.53.74,4.17,3.32,3.18,5.72-1.42,3.41-3.34,6.54-6.14,9.05-1.21,1.08-2.13,1.13-3.16-.24-1.05-1.4-2.22-2.71-3.41-3.98-1.16-1.24-2.21-1.49-3.61.02-3.37,3.66-7.1,6.95-11.11,9.93-5.74,4.26-12.01,7.1-19.17,7.82-7.17.72-14.94-3.36-18.13-9.78-.98-1.97-1.98-2.07-3.64-.99-2.08,1.36-4.25,2.58-6.36,3.88-6.85,4.21-13.4,3.04-19.6-1.33-4.09-2.88-7.5-6.47-10.17-10.78-1.87-3.02-2.39-6.3-2.63-9.7-.04-.64-.18-1.36.44-1.78.83-.57,1.39.21,1.9.62,1.67,1.34,3.53,2.32,5.46,3.2,5.13,2.32,8.79,1.69,12.83-2.25,1.52-1.48,3.07-2.93,4.5-4.48,3.57-3.88,7.85-6.18,13.16-6.82,6.54-.79,10.36-5.19,12.98-10.79,3.11-6.64,8.17-11.25,14.61-14.5,3.55-1.79,7.46-1.88,11.29-2.32,2.12-.25,4.27-.22,6.45-.05-2.45,1.55-5.15,2.41-7.91,2.7-9.73,1.01-16.18,6.86-20.06,15.01-3.99,8.38-10.1,12.5-18.97,13.38-2.55.25-4.86,1.29-6.68,3.04-3.18,3.05-6.73,5.75-9.19,9.51-.5.77-1.17,1.42-1.77,2.12-2.59,2.96-5.31,5.67-9.87,5.39Z"/>
      <path class="cls-7" d="M494.26,623.25c1.55,2.78,4.23,3.7,7.02,4.12,1.84.27,2.21.77,1.84,2.61-.47,2.34-1.67,1.23-2.82.98-5.27-1.15-8.25-4.87-10.63-9.31-1.57-2.92.13-5.43,1.23-7.83.91-1.97.54-3.05-1.08-4.08-.15-.1-.28-.24-.42-.36q-5.05-4.17-9.05,1.11c-2.97,3.92-6.98,4.4-10.82,1.35-4.17-3.31-5.5-8.13-6.92-12.91-.57-1.94-1.01-3.92-1.62-5.85-.61-1.93-1.94-2.52-3.89-1.87-5.04,1.69-10.56-.54-13.3-5.39-2.99-5.31-3.05-11.01-1.33-16.59,1.75-5.66,5.36-10.23,9.97-13.98.61-.5,1.42-1.32,2.15-.52.6.65-.31,1.31-.71,1.85-2.51,3.42-4.9,6.93-6.52,10.87-2.41,5.87-2.41,11.82-.1,17.74.33.84.83,1.66,1.4,2.36.78.95,2.06,1.09,3.05.82,1.37-.37.41-1.61.29-2.35-.32-1.95-.14-3.86.21-5.75.4-2.17,1.22-4.11,3.87-4.38.35-.04.74-.2,1.01-.42,4.14-3.33,8.07-1.96,11.95.51,4.03,2.57,7.89,5.56,13.18,5.06-1.49,2.41-4.98,3.4-7.96,2.36-2.95-1.03-5.19-3.1-7.48-5.1-1.9-1.66-3.85-3.19-6.61-2.86-1.52.18-2.65.37-1.19,2.28,2.28,2.98,3.08,6.65,4.3,10.11,1.89,5.36,3.52,10.81,5.54,16.12,1.13,2.97,3.28,5.27,6.56,6.84-.67-2.26-1.37-4.2-1.81-6.19-1.59-7.18,2.32-11.09,9.53-9.61q6.79,1.39,10.43.17c-1.93,3.14-2.72,5.36-13.12,2.55,1.34.92,2.69,1.83,4.02,2.76,1.43,1.01,2.81,2.09,4.27,3.06,4.53,3.01,8.18,7.12,12.73,10.12,1.55,1.02,2.61,2.59,3.2,4.4,1.15,3.57-.86,6.19-4.64,6.23-1.96.02-3.74-.65-5.7-1.06Z"/>
      <path class="cls-7" d="M562.76,453.97c-1.5,4.54-4.41,8.15-7.54,11.75,1.25.77,1.95-.05,2.67-.41,3.94-2.01,7.9-3.96,12.07-5.45,1.16-.41,2.33-.83,3.24.42.94,1.29.1,2.36-.69,3.19-2.15,2.26-4.42,4.4-7.21,7.13,3.92-1.38,7.07-2.5,10.24-3.6,1.16-.4,2.38-.79,3.19.56.77,1.28.02,2.29-.78,3.22-2.48,2.89-5.54,5.14-8.59,7.35-12.58,9.15-25.23,18.21-37.87,27.29-2.14,1.54-4.35,2.98-6.93,3.84,11.94-13.51,27.26-22.91,41.13-34.2-2.99,1.62-5.98,3.25-8.98,4.85-2.36,1.25-4.71,2.51-7.11,3.67-1.15.56-2.49,1.17-3.48-.22-1.06-1.49.14-2.44,1.12-3.22,5.15-4.17,10.36-8.27,15.53-12.41,1.11-.89,2.19-1.83,2.94-3.27-4.03,1.91-8.01,3.92-12.1,5.69-1.36.59-3.1,2.47-4.39.62-1.22-1.74.99-2.9,1.98-4.04,3.76-4.33,7.97-8.25,11.57-12.76Z"/>
      <path class="cls-7" d="M369.62,521.91c-3.72,2.73-5.12,5.72-4.84,9.52.31,4.16,3.37,6.3,7.2,4.72,2.55-1.06,4.34-.48,5.46,1.93,2.44,5.27,6.51,6.79,11.99,5.63,1.78-.37,3.66-.29,5.5-.36,3.52-.12,6.56,1.03,8.78,3.82,2.86,3.6,6.49,4.18,10.66,3.04,1.24-.34,2.52-.58,3.72-1.01,4.18-1.5,7.92-1.7,11.9,1.27,4.05,3.02,8.69,1.8,12.69-.76,3.05-1.95,5.89-2.7,9.29-.96,1.47.76,3.23.36,4.88-.03,4.12-1,8.03-2.64,12.06-3.92,4.45-1.42,7.63-4.25,10.13-8.08,2.21-3.39,4.19-6.94,7.04-9.88,2.83-2.92,4.67-2.7,6.54.88,1.97,3.78,1.62,7.64.16,11.47-.29.76-.69,2.07-1.78,1.65-1.03-.39-.21-1.47-.05-2.2.75-3.52,1.5-7.02.53-10.63-.25-.92-.48-1.86-1.5-2.14-1.07-.29-1.7.54-2.28,1.25-1.81,2.22-3.24,4.69-4.6,7.21-1.45,2.68-3.1,5.23-5.06,7.56-2.69,3.21-6.17,5-10.35,5.02-2.44.01-4.52.65-6.42,2.06-3.46,2.57-7.14,3.15-11.17,1.4-1.53-.67-3-.37-4.42.62-1.5,1.05-3.05,2.12-4.74,2.79-4.89,1.94-9.6,1.53-13.75-1.9-1.82-1.51-3.59-1.57-5.62-.66-2.6,1.17-5.22,2.3-8.02,2.94-4.83,1.11-9.07-.01-12.13-3.91-2.22-2.83-4.85-3.69-8.21-3.29-1.91.23-3.87.17-5.77.48-5.55.9-9.53-1.29-12.15-6.06-.89-1.62-1.71-1.9-3.47-1.24-3.87,1.44-8.04-.61-9.32-4.53-1.3-3.98-.72-7.85,1.6-11.34,1.04-1.56,2.52-2.62,5.53-2.36Z"/>
      <path class="cls-7" d="M509.47,505.51c.58-4.03,5.31-7.4,8.96-6.71,2.55.48,3.99,2.82,3.48,5.97-.6,3.74-2.51,6.9-4.87,9.76-3.1,3.76-6.41,7.35-9.52,11.1-3.04,3.66-5.23,7.76-5.86,12.58-.43,3.36,1.21,4.74,4.34,3.6,1.21-.44,2.36-1.03,3.56-1.48,1.11-.41,1.84-1.54,3.21-1.69.77,2.33.25,4.09-1.99,5.24-1.3.67-2.53,1.55-3.9,2.03-5.54,1.93-9.86-1.44-9.44-7.28.41-5.72,2.92-10.61,6.36-15,3.23-4.12,6.8-7.98,10.13-12.02,1.58-1.92,2.9-4.03,3.61-6.46.36-1.25.85-2.67-.25-3.61-1.21-1.03-2.43,0-3.49.67-1.52.97-2.99,2.03-4.33,3.31Z"/>
      <path class="cls-7" d="M506.4,707.36c-5.52,3.49-7.59,8.91-8.34,15.04-.16,1.33-.05,2.73,1.26,3.4,1.45.73,2.35-.54,3.31-1.36.14-.12.24-.29.39-.39.89-.64,1.44-2.57,2.72-1.63,1.52,1.11.19,2.73-.62,3.58-2.93,3.09-5.82,6.35-9.24,8.83-3.29,2.38-7.05,1.15-10.5-.5-2.77-1.33-5.11-3.27-7.46-5.19-.93-.76-1.49-.97-2.4.2-1.36,1.74-7.84,2.51-9.61,1.38-1.94-1.24-1.5-4.53.88-5.67,2.69-1.29,5.54-1.17,8.36-.41,3.14.84,5.92,2.47,8.72,4.08,3.55,2.05,7.28,3.55,11.52,2.76.8-.15,1.57-.49,2.31-.84.81-.39,1.25-.95.1-1.5-3.32-1.59-3.55-4.5-3.05-7.53.96-5.74,4.27-10.08,8.68-13.67.91-.74,1.26-.71,2.97-.57Z"/>
      <path class="cls-7" d="M469.07,483.37c3.25,2.29,4.56,5.41,4.01,9.13-.67,4.5,1.05,7.62,4.85,9.91,2.86,1.72,5.27,4.03,7.39,6.6,2.3,2.78,2.71,5.96,1.58,9.35-.27.81-.78,1.6-1.76,1.46-.74-.11-.83-.94-.83-1.56-.03-5.66-3.51-9.25-7.45-12.58-1.4-1.19-2.86-2.33-4.11-3.67-1.91-2.06-2.85-4.53-2.16-7.36.96-3.96,1.31-7.8-1.52-11.27Z"/>
    </g>
    <g>
      <g>
        <g>
          <path class="cls-5" d="M676,517.34c-.61,7.05-1.15,13.71-1.76,20.36-1.03,11.26-2.1,22.53-3.15,33.79-1.45,15.57-2.89,31.14-4.34,46.71-1.5,16.03-3.05,32.05-4.47,48.08-.21,2.32-1.02,3.79-3.01,5.11-19.41,12.87-38.74,25.85-58.1,38.8-14.69,9.82-29.4,19.62-44.03,29.52-1.62,1.1-2.63.97-4.08-.11-1.64-1.22-.27-2.11.13-3.03,3.47-8.12,3.63-16.65,3.06-25.23-.32-4.86-1.16-9.66-2.33-14.42-.9-3.64.15-7.33.53-10.97,2.53-23.97,5.11-47.93,7.69-71.9.73-6.77,1.49-13.53,2.19-20.3.15-1.49.75-2.48,2.04-3.34,14.65-9.72,29.24-19.52,43.87-29.28,15.54-10.37,31.1-20.71,46.65-31.08,5.59-3.73,11.16-7.48,16.75-11.22.66-.44,1.35-.85,2.36-1.49Z"/>
          <path class="cls-5" d="M661.72,456.01c-.64,6.5-1.2,12.45-1.8,18.38-.51,5.03-1.15,10.05-1.55,15.09-.17,2.11-.91,3.54-2.69,4.76-25.69,17.55-51.34,35.14-76.99,52.75-12.59,8.65-25.15,17.35-37.73,26.02-.28.19-.59.35-1.27.74.56-6.37,1.07-12.36,1.62-18.35.47-5.13,1.13-10.24,1.42-15.38.12-2.09.88-3.31,2.56-4.45,19.18-13.04,38.31-26.15,57.44-39.25,18.76-12.84,37.51-25.68,56.27-38.52.74-.51,1.5-.99,2.7-1.78Z"/>
          <path class="cls-5" d="M659.03,453.6c-.47,1.37-1.24,1.74-1.91,2.2-10.1,6.91-20.22,13.8-30.32,20.72-10.33,7.08-20.61,14.21-30.95,21.28-13.45,9.2-26.93,18.35-40.39,27.53-4.56,3.11-9.14,6.21-13.63,9.42-1.69,1.21-2.93,1.21-4.63-.14-5.26-4.18-10.66-8.2-16.07-12.18-1.56-1.15-1.32-1.73.13-2.71,17-11.52,33.97-23.07,50.93-34.64,19.09-13.03,38.15-26.09,57.23-39.13,2.81-1.92,5.68-3.76,8.48-5.7.89-.62,1.55-.68,2.45-.02,5.86,4.31,11.76,8.57,17.65,12.84.37.27.82.43,1.02.54Z"/>
          <path class="cls-5" d="M673.85,513.87c-8.93,6.08-17.45,11.87-25.95,17.67-17.03,11.62-34.03,23.28-51.08,34.86-10.58,7.19-21.26,14.23-31.83,21.42-1.66,1.13-2.84,1.02-4.42-.1-5.42-3.81-10.9-7.53-16.43-11.19-1.98-1.31-1.66-2.09.11-3.31,24.03-16.53,48.03-33.11,72.04-49.67,11.36-7.84,22.75-15.64,34.12-23.47.92-.63,1.69-1.29,2.93-.42,6.69,4.69,13.43,9.31,20.52,14.21Z"/>
          <path class="cls-5" d="M526.67,670.24c-3.59-8.46-7.2-16.7-11.15-24.8-2.11-4.32-4.47-8.46-7.3-12.34-.76-1.04-1.01-2.06-.88-3.33,1.48-14.27,2.95-28.53,4.35-42.81,1.33-13.54,2.57-27.1,3.84-40.65.63-6.68,1.27-13.37,1.84-20.05.19-2.17.9-2.5,2.65-1.19,5.75,4.3,11.51,8.59,17.36,12.76,1.43,1.02,1.69,2.11,1.53,3.72-1.81,18.03-3.59,36.06-5.33,54.09-1.01,10.53-1.87,21.07-2.88,31.59-1.05,10.89-2.22,21.77-3.29,32.66-.34,3.44-.51,6.89-.75,10.34Z"/>
        </g>
        <path class="cls-5" d="M551.41,690.11c-3.07-5.4-6.52-9.54-11.07-12.65-2.75-1.88-5.63-3.57-9.1-3.57-1.63,0-1.77-.8-1.63-2.1,1.12-10.69,2.24-21.39,3.28-32.09,1.12-11.52,2.15-23.06,3.25-34.58.86-8.97,1.82-17.92,2.62-26.89.21-2.32.97-2.18,2.51-1.06,6.31,4.62,12.63,9.23,19,13.76,1.27.9,1.46,1.96,1.31,3.32-1.36,12.61-2.73,25.22-4.06,37.84-1.62,15.36-3.19,30.72-4.79,46.09-.39,3.73-.82,7.45-1.32,11.94Z"/>
      </g>
      <path class="cls-5" d="M552.22,713.94c-.09,3.24.22,13.34-4.56,21.35-1.04,1.74-2.15,3.27-3.71,4.64-1.13.99-4.42,3.78-9.37,4.05-4.53.25-7.82-1.74-9.62-2.82-1.4-.85-3.03-2.1-4.88-4.11-6.59-7.19-8.07-16.6-8.83-21.46-1.19-7.65-.77-15.24,1.41-22.67,1.57-5.33,4.24-9.99,8.99-13.17,5.09-3.41,10.98-3.03,15.92.68,5.03,3.78,8.36,8.75,10.7,14.46,2.65,6.45,4.11,13.16,3.96,19.06Z"/>
    </g>
    <path class="cls-5" d="M479.79,480.46c-7.82-3.77-8.65-5.92-5.37-14.1,1.09-2.73,2.5-5.33,3.52-8.08.45-1.2,1.05-1.92,1.8-2.27,1.14-.54,2.39-.17,3.25.15,3.56,1.3,5.85,3.49,10.11,6.56,2.62,1.89,3.37,2.22,4.33,2.23,1.39,0,2.73-1.07,5.35-3.12.09-.07.46-.37,1.14-.9,1.35-1.07,2.36-1.87,2.43-1.93.93-.73,8.76-6.51,11.78-4.31.71.52.93,1.54,1.35,3.6.33,1.59.18,3.88-.13,8.4-.08,1.12-.15,1.98-.51,3.1-.11.35-.55,1.62-1.61,3.08-.85,1.18-1.87,2.15-3.47,3.66-1.15,1.08-1.74,1.57-1.67,2.25.04.33.22.64,1.28,1.54,1.11.94,1.91,1.43,2.32,1.72,1.11.8,2.73,2.61,2.76,4.57.02,1.23-.83,2.47-2.52,4.57-.1.13-.46.62-1.03,1.3-2.24,2.67-3.36,4.01-4.59,4.32-1.81.45-3.57-.9-6.28-2.98-1.46-1.12-2.87-2.48-3.9-3.48-2.24-2.16-3.12-3.3-4.19-3.09-.57.11-.74.52-1.76,1.73-.62.74-1.58,1.66-3.51,3.52-1.63,1.57-2.58,2.48-3.91,3.34-1.55,1-4.92,3.18-7.51,1.98-1.22-.56-2.23-1.51-2.8-3.92-.63-2.68-1.15-5.39-1.57-8.11-.29-1.87.69-3.14,2.37-3.93.81-.38,1.85-.28,2.54-1.38Z"/>
    <path class="cls-5" d="M526.21,319.72c0,6.63-.05,13.27.03,19.9.02,1.76-.15,2.29-2.08,1.47-11.98-5.05-24.56-5.82-37.37-5.11-11.4.63-22.42,2.96-33.14,6.81-11.23,4.03-16.49,9.66-29.06,16.59-.25.14-1.88,1.11-4.04,1.1-.66,0-2.09-.03-3.04-1-.62-.64-.78-1.42-.84-1.79-.66-3.81-.98-20.68-1.09-23.43-.26-6.25-.28-12.51-.71-18.75-.22-3.15.9-5.24,3.37-7,8.86-6.32,18.84-9.9,29.34-12.27,11.62-2.62,23.41-3.83,35.27-4.14,13.63-.35,27.11,1.31,40.41,4.34,1.08.24,1.85.61,2.34,1.24.75.95.68,2.15.65,2.69-.02.44-.01,4.01,0,11.16,0,1.5.05,2.81,0,5.47-.02,1.38-.06,2.35-.06,2.72Z"/>
    <path class="cls-5" d="M390.48,304.33c4.01-2.29,8.03-3.58,11.9-5.18,24-9.88,48.07-19.62,72.03-29.58,3.54-1.47,6.72-1.56,10.28-.47,1.68.52,33.65,10.3,38.6,11.51.51.13,1.92.45,2.65,1.62.4.64.35,1.13.3,3.47-.04,1.83-.1,3.65-.13,5.48-.04,2.32.03,2.74-.37,3.11-.72.67-1.95.24-4.43-.37-2.37-.58-4.78-.93-7.17-1.42,0,0-1.87-.38-6.21-1.03-25.57-3.85-50.46.75-50.46.75-16.89,3.12-33.28,10.22-38.02,13.18-2.65,1.66-5.17,3.53-7.77,5.27-1.25.84-2.54,1.38-4.12.71-5.57-2.34-11.16-4.61-17.09-7.04Z"/>
    <path class="cls-5" d="M385.76,382.08c-1.81-4.94-.86-9.46,1.35-13.88,1.79-3.59,4.68-5.64,8.47-6.43,5.04-1.05,10.1-1.97,15.16-2.92,1.27-.24,2.35.01,3.03,1.31.68,1.3,1.7,2.53.56,4.04-.72.95-1.44,1.92-2.28,2.76-5.85,5.87-11.74,11.7-17.61,17.55-4.85,4.83-14.26,2.75-16.78-3.69-.6-1.54-.28-3.02.05-4.59.32-1.5.19-3.11.21-4.67,0-.46-.12-.98-.67-1.05-.57-.07-.69.45-.87.88-1.02,2.47-2.1,4.91-3.09,7.38-2.49,6.24-4.9,12.5-7.43,18.73-.79,1.95-.96,3.8.36,5.48,6.78,8.65,14.47,16.4,23.28,23,.04.03.17-.06.4-.15-.84-6.88.77-13.38,3.6-19.64.92-2.03,2.1-3.94,3.88-5.3,1.34-1.03,2.59-1.16,2.71,1.16.06,1.09.22,2.21.52,3.26,2.73,9.59-1.76,17.4-6.29,25.14-1.3,2.22-3.36,1.49-5.08.37-4.33-2.83-8.25-6.16-11.86-9.88-4.43-4.57-8.55-9.39-12.22-14.59-2.38-3.37-2.79-6.66-1.09-10.6,3.51-8.1,7.51-16,10.55-24.3,1.51-4.14.7-7.28-2.6-10.23-.27-.25-.54-.54-.86-.69-6.73-3.16-7-9.02-6.31-15.23,1.29-11.59,4.52-22.69,8.64-33.55.8-2.11,2.14-4.11,3.6-5.85,2.06-2.44,5.04-1.86,7.74-1.49,2.21.31,4.16,1.42,5.86,2.92,5.66,5.01,12.45,7.3,19.79,8.28,1.06.14,2.52-.11,2.31,1.57-.18,1.49-1.59.96-2.47.92-7.28-.33-13.85-2.67-19.69-7.05-1.76-1.32-3.38-3-5.58-3.49-4.83-1.09-6.32-.29-7.59,3.72-2.44,7.72-4.42,15.56-6.57,23.36-1.38,5-1.65,10.15-2.02,15.28-.2,2.73,1.06,4.7,3.34,6.17,4.13,2.67,6.81,6.31,7.75,11.26.39,2.05.31,3.98-.06,6-.76,4.17,1.46,7.55,5.86,8.75Z"/>
    <path class="cls-5" d="M388.7,302.95c-.21-6.95-.25-7.05,5.63-9.63,24.84-10.88,49.71-21.69,74.56-32.52,2.53-1.1,5.06-2.19,7.56-3.36,1.1-.52,1.41-.36,1.41.9,0,2.47.15,4.95.28,7.42.07,1.32-1.05,1.39-1.82,1.71-8.76,3.61-17.52,7.22-26.3,10.77-19.94,8.08-39.89,16.12-59.84,24.18-.41.17-.83.3-1.48.53Z"/>
    <path class="cls-5" d="M549.1,357.53c-.91-.69-5.14-3.88-8.17-6.83-.6-.59-1.51-1.51-2.01-2.96-.5-1.43-.36-2.68-.32-3.06.33-3.27.27-10.99.21-18.19-.06-7.14.31-14.29.15-21.43,0-.38-.04-1.66.63-2.01.13-.07.42-.17,1.94.46.82.34,1.17.55,2.41,1.18.95.48,1.2.58,1.89.96,1.12.61,1.49.9,1.78,1.3,0,0,.39.5.55,1.23,1.05,4.72.56,27.31.56,27.31-.02,1.11.04,4.55.16,11.43.08,4.49.17,8.18.23,10.61Z"/>
    <path class="cls-5" d="M479.72,261.58c0-.22,0-.43,0-.43,0-.28,0-.45,0-1.2-.02-2.43-.07-2.62.14-2.8.26-.22.61-.15,3.53.63.74.2,1.11.3,1.15.31,13.05,3.76,25.91,8.14,38.9,12.12.78.24,1.32.54,1.68.98.55.66.64,1.43.68,1.86.57,5.74.55,6.29.09,6.57-.44.26-.87.02-2.65-.61-1.5-.53-3.05-.89-4.55-1.42-2.18-.76-4.39-1.4-6.59-2.1-3.6-1.15-6.24-1.93-10.14-3.08-3.54-1.05-6-1.74-10.42-2.99-3.58-1.01-5.37-1.52-5.97-1.66-1.14-.26-2.26-.64-3.4-.91,0,0-.33-.08-1.09-.35-.9-.32-1.04-.45-1.13-.6-.11-.17-.12-.47-.15-1.07-.01-.3,0-.48-.01-.74-.04-1.62-.05-2.26-.06-2.51Z"/>
    <path class="cls-5" d="M571.12,295.01c.03.12-.2.27-1.09.75-.87.47-1.37.72-1.37.72-.75.37-1.25.61-1.48.72-1.01.49-1.55.8-2.27,1.18-1.32.7-1.99.96-3.47,1.66-3.27,1.53-4,2.08-7.53,3.59-2.21.94-3.01,1.17-4.03,1.09-.71-.05-.88-.2-3.5-1.23-1.55-.61-2.75-1.05-4.52-1.88-1.29-.61-1.97-.99-2.41-1.77-.35-.63-.39-1.23-.41-1.84-.09-2.19-.02-3.77,0-4.72.05-2.38.16-3.6.37-6.03.03-.31.1-1.11.55-1.29.21-.09.42,0,.94.19.47.16.96.27,1.42.44,1.1.42,2.99,1.03,5.96,1.98.33.11.64.2.94.3,1.42.43,2.38.69,3.04.88.68.19,1.72.52,3.8,1.17,2.42.76,2.23.72,3.71,1.18,1.31.41,3.1.92,6.69,1.94.52.15,1.08.31,1.84.47.78.16,1.17.25,1.59.3.81.11,1.18.09,1.21.23Z"/>
    <path class="cls-5" d="M571.97,289.83c-.14,1.96-.21,2.94-.49,3.22-.79.81-2.38.27-6.81-1.11-2.7-.85-5.41-1.66-8.1-2.51-2.09-.66-3.91-1.23-6.19-1.94-2.33-.72-3.49-1.08-3.72-1.14-.38-.1-2.33-.62-4.64-1.39-1.05-.35-1.72-.6-2.22-1.26-.46-.61-.63-1.37-.76-1.92-.08-.36-.09-.53-.19-1.65-.11-1.19-.1-2.39-.23-3.57-.07-.67-.14-1.07.08-1.23.24-.17.62.07,1.29.37.72.32,1.5.46,2.22.75.69.28.85.29,2.5.79,2.01.6,7.78,2.39,12.59,3.94,5.47,1.77,5.06,1.76,6.93,2.25.85.22,1.86.55,3.87,1.21,2.71.88,3.4,1.19,3.8,1.91.26.46.2,1.41.07,3.28Z"/>
    <g>
      <path class="cls-5" d="M528.79,312.18c.03-2.67-.04-7.22-.16-16.2-.06-4.54-.12-8.31-.16-10.92h0c0-5.74-.77-10.06-.62-10.09.18-.03-.02,5.95,3.45,8.16,1.49.95,3.81,1.29,4.95.3.81-.7.75-2.33.93-2.31.07,0,.09.24.11.49.18,2.23.18,2.66.18,2.66,0,1.23,0,1.62,0,1.62-.09,4.08-.06,3.64-.1,4.89-.07,1.8-.11,1.78-.16,3.51-.04,1.34-.02,1.24-.06,2.76,0,0,0,.02,0,.03-.07,2.43-.08,2.62-.08,2.9,0,.51,0,1.2,0,1.2h0c-.45,24.64-.79,42.81-.83,43.38-.05.76-.42,1.01-.42,1.01-.17.14-.45.34-.84.42-.5.11-.93-.02-1.22-.13-1.11-.41-1.65-.9-3-1.82-1.75-1.19-2.11-1.47-2.31-2.05-.04-.13-.05-.18-.01-1.82.03-1.14.06-2.64.07-3.09.06-1.9.03-2.65.02-5.3,0-1.27.02-2.98.05-6.39.07-6.87.18-8.74.22-13.23Z"/>
      <path class="cls-5" d="M537.28,281.4s.01.21,0,.39c-.03.26-.11.51-.24.78,0,0-.45.96-1.58,1.45-1.98.87-5.42-.74-6.5-3.14-.28-.63-.44-1.48-.74-3.2-.13-.72-.19-1.21-.3-2.19,0,0-.09-.97-.07-2.33,0-.58.04-.99.31-1.18.21-.14.54-.12,1.06.07,2.06.74,4.12,1.48,6.2,2.16.39.13.68.32.88.56.31.38.36.81.38,1.03.2,1.8.37,3.61.59,5.4,0,.02.01.09.02.19Z"/>
    </g>
  </g>
</svg>