<?xml version="1.0" encoding="UTF-8"?>
<svg id="_图层_1" data-name="图层_1" xmlns="http://www.w3.org/2000/svg" xmlns:xlink="http://www.w3.org/1999/xlink" viewBox="0 0 900 900">
  <defs>
    <style>
      .cls-1 {
        fill: none;
      }

      .cls-2 {
        stroke: #903;
        stroke-miterlimit: 10;
        stroke-width: .5px;
      }

      .cls-2, .cls-3 {
        fill: #903;
      }

      .cls-4 {
        fill: #fff;
      }
    </style>
  </defs>
  <circle class="cls-4" cx="450" cy="450" r="411"/>
  <g>
    <circle class="cls-1" cx="450" cy="450" r="300.84"/>
    <path class="cls-2" d="M155.21,669.12l11.72,15.66c.75,1,.81,1.73.2,2.19-.58.43-1.18.22-1.81-.62l-22.54-30.11c-.63-.84-.66-1.48-.08-1.91.61-.46,1.35-.11,2.21,1.04l9.61,12.84c.12-.15.34-.38.66-.68,2.7-2.8,10.47-9.01,23.33-18.63,11.92-8.8,20.51-14.96,25.77-18.49.84-.39,1.35-.47,1.52-.24s.03.64-.43,1.22c-2.2,1.94-4.6,4.01-7.21,6.21.09.12.17.23.26.34l5,6.68c1.9,2.53,4.38,4.41,7.46,5.64.29.38.18.76-.32,1.14l-.81-.12c-3.05,0-5.71-1.51-7.98-4.54l-5.08-6.79c-.2-.27-.39-.52-.56-.75-4.35,3.55-9.59,7.63-15.73,12.22-14.08,10.54-22.28,16.35-24.59,17.42-.22.1-.42.2-.6.27Z"/>
    <path class="cls-2" d="M231.99,678.61c.29.25.54.58.75,1.01l3.23,7.57c.27.42.23.85-.14,1.29l-16.29,19.47c-2.83,3.38-6.18,6.08-10.05,8.09-4.85,2.44-9.29,3.85-13.3,4.25-.47.11-.77.1-.92-.02-.22-.18-.21-.42.04-.72,7.72-1.54,15.08-5.88,22.07-13.04l15.51-18.53c.25-.29.28-.64.11-1.03l-2.65-6.81c-.08-.57,0-1,.24-1.3.34-.4.81-.48,1.41-.23ZM229.9,737.25l-18.75-15.69c-.74-.62-.78-1.31-.13-2.08,3.56-.96,7.54-3.22,11.96-6.78,3.85-3.03,8.55-7.72,14.12-14.07.74-.88,1.4-1.71,1.98-2.47l-3.14-2.63c-.7-.58-.79-1.19-.26-1.81.34-.4,1.08-.25,2.24.46l2.65,2.22c1.07-1.35,2.08-2.67,3.02-3.94.9-.93,1.78-1.45,2.62-1.56l.75-.12c.32.52.45,1,.38,1.45l-.13.27.06.05,14.23,11.91c.99.83,1.12,1.69.38,2.57l-3.55,4.25,2.04,1.71c.76.89.97,1.53.63,1.93-.52.63-1.17.61-1.94-.03l-2.21-1.85-16.8,20.07c-2.09,2.5-4.17,4.64-6.22,6.42l3.03,2.54c.77.65.93,1.24.47,1.8-.52.63-1.21.58-2.05-.12l-3.25-2.72c-3.71,2.64-7.38,4.08-11,4.3-.31-.07-.58-.2-.8-.39-.15-.12-.11-.31.1-.57,3.19-.83,6.39-2.53,9.6-5.09ZM241.33,698.05c-.95,1.14-1.98,2.37-3.09,3.7-5.66,6.76-10.26,11.29-13.8,13.58-4.44,2.84-7.67,4.68-9.67,5.5-.25.29-.22.56.07.81l6.95,5.81c2.49-1.41,4.94-3.14,7.35-5.2,2.81-2.39,5.32-4.9,7.5-7.51l10.15-12.13-5.46-4.57ZM254.62,709.17l-5.96-4.98-9.97,11.91c-3.29,3.93-6.21,6.75-8.75,8.43-2.43,1.71-4.73,2.92-6.88,3.62l8.64,7.6c1.98-1.84,3.97-3.96,5.97-6.35l16.94-20.24ZM239.5,672.89c1.66,3.32,2.78,6.24,3.38,8.74.05.54-.07.98-.34,1.31-.37.44-.77.48-1.22.11-1.61-3.16-2.75-6.27-3.43-9.34-.1-.33.02-.7.36-1.1.32-.23.74-.13,1.25.3ZM251.45,685.05c.07.06.15.12.22.18l15.11,12.64c.76.89.94,1.57.54,2.04-.49.59-1.11.57-1.84-.04l-15.83-13.24-.06-.05c-.77.54-1.64.95-2.6,1.2-1.83.47-3.77.1-5.82-1.12-.4-.34-.48-.65-.24-.95l.69-.27c1.31.16,2.5.19,3.58.09,1.78-.26,3.4-.93,4.87-2.02,1.4-1.08,2.95-1.28,4.64-.62l.72.6c-.12.15-.46.25-1,.29-1.04.19-2.04.61-3,1.24ZM246.01,692.12c-.82,1.13-1.91,2.5-3.26,4.12l5.52,4.61,1.85-2.21c.68-.74,1.26-1.29,1.74-1.63l-5.79-4.85-.06-.05ZM253.29,698.21c-.26.53-.69,1.2-1.3,2l-1.85,2.21,5.96,4.98,2.81-3.36c.37-.44.31-.86-.16-1.26l-5.46-4.57Z"/>
    <path class="cls-2" d="M290.26,735.41c4.91,1.65,9.7,3.65,14.37,5.99,4.76,2.38,9.35,4.98,13.79,7.79.54-.54,1.06-1.1,1.58-1.7.41-.28.76-.34,1.06-.19.13.06.15.18.06.35-3.37,5.66-6.81,12-10.34,19.03-1.57,3.45-2.91,7.04-4.03,10.77-1.25,4.09-2.35,8.71-3.32,13.86-.17.34-.37.46-.58.35-.3-.15-.43-.43-.39-.84-.21-4.18.24-8.56,1.36-13.15.82-3.67,2.28-7.76,4.38-12.28,2.85-5.7,5.76-10.49,8.72-14.37-4.35-2.55-8.88-5.01-13.6-7.37-4.42-2.21-8.97-4.2-13.66-5.96-.28.99-.71,2.06-1.29,3.21l-6.83,13.63c-4.57,8.7-9.75,14.5-15.54,17.39-.77.47-1.31.63-1.61.48-.26-.13-.26-.45,0-.96,5.58-4.07,10.44-10.13,14.58-18.19l6.7-13.37c1.7-3.38,2.84-6,3.45-7.84.19-.39.42-.51.68-.39.3.15.44.46.42.93.13.92.14,1.87.03,2.83ZM296.81,745.45c1.54.56,3.04,1.2,4.5,1.93,1.5.75,2.94,1.58,4.31,2.48.79-1.26,1.51-1.74,2.16-1.41.81.41.66,1.73-.45,3.96l-10.14,20.25c-3.54,6.64-7.41,8.91-11.61,6.81-4.5-2.25-4.97-6.99-1.41-14.21l9.66-19.29c1.2-2.4,2.17-3.42,2.9-3.05.6.3.63,1.15.09,2.54ZM286.47,777.34c2.96,1.27,5.73-.69,8.33-5.88l9.89-19.74c-1.42-.92-2.87-1.76-4.37-2.51-1.41-.71-2.87-1.33-4.37-1.87l-9.53,19.03c-2.83,5.66-2.81,9.31.06,10.97ZM311.72,723.72l.68-1.35c.41-.81,1.02-1.12,1.83-.93.6.3.7.96.29,1.99l-.68,1.35,13.5,6.76c1.07.54,1.45,1.13,1.12,1.77-.37.73-1,.87-1.9.42l-28.42-14.23c-.86-.43-1.1-1.01-.74-1.74.32-.64,1.06-.67,2.22-.09l12.09,6.05ZM302.65,725.93c2.66.9,5.25,1.99,7.78,3.25,2.66,1.33,5.23,2.83,7.71,4.51.13-.15.24-.31.32-.48.54-.86,1.17-1.21,1.9-1.06.64.54.7,1.34.16,2.41-1.12,2.23-2.28,3.9-3.48,5.01-2.17,2.29-5.93,2.1-11.29-.59-4.84-2.43-7.12-5.36-6.84-8.82-.02-1.14.6-2.97,1.87-5.5.62-1.03,1.19-1.41,1.71-1.16.6.3.72.92.35,1.87-.09.17-.15.35-.19.55ZM306.79,736.61c3.94,1.98,6.63,2.38,8.07,1.23.54-.21,1.3-1.04,2.29-2.47-2.53-1.48-5.12-2.89-7.78-4.22-2.44-1.22-4.93-2.36-7.46-3.41-.52,1.46-.72,2.56-.61,3.31.41,2.08,2.24,3.94,5.5,5.57Z"/>
    <path class="cls-2" d="M367.08,749.9c-.18,1.19-.39,2.42-.64,3.69,2.43,1.41,3.57,3.45,3.44,6.12-.37,6.41-2.17,16.53-5.41,30.34-1.53,6.54-3.06,12.31-4.57,17.32-.35,1.49-.76,2.19-1.22,2.08-.47-.11-.53-.91-.18-2.4.91-5.35,2.08-11.11,3.53-17.27,2.96-12.65,4.7-22.68,5.2-30.1-.04-1.73-.47-2.92-1.31-3.56-1.17,6.03-2.67,12.96-4.5,20.81-4.24,18.11-6.91,28.44-8,30.99-.41.89-.73,1.31-.96,1.25-.14-.23-.2-.83-.17-1.81.36-4.05,2.49-14.41,6.39-31.07,1.92-8.21,3.63-15.2,5.13-20.96-1.08.39-2.08,1.33-3.03,2.84-2.88,7.05-5.88,16.89-8.98,29.51-1.31,5.6-2.79,11.29-4.44,17.05-.31,1.31-.69,1.91-1.16,1.8-.42-.1-.55-.72-.38-1.86.9-5.55,2.06-11.31,3.46-17.29,3.42-14.17,6.43-24.19,9.04-30.08,1.43-2.77,3.44-4.17,6.01-4.21.34-1.25.67-2.45.99-3.61l-6.37-1.49c-.89-.21-1.25-.66-1.08-1.36.17-.75.92-.97,2.22-.66l5.88,1.38c.26-1.12.53-2.17.81-3.13.4-.89.75-1.3,1.03-1.24.14.03.22.44.23,1.23-.18,1.19-.35,2.35-.52,3.5l5.39,1.26c1.07.25,1.52.75,1.35,1.5-.16.7-.69.95-1.58.74l-5.6-1.31ZM378.12,784.09c-.4-1.23-.86-2.42-1.38-3.57-1.32-4.05-1.72-8.94-1.21-14.69.14-.61.35-.88.63-.81.33.08.49.34.48.78.39,4.62,1.42,9.29,3.07,14.01.33.67.68,1.32,1.02,1.94,2.29-2.02,4.23-4.1,5.82-6.24,2.2-2.68,3.81-5.36,4.83-8.03.22-.93.63-1.33,1.24-1.19.33.08.38.58.16,1.51-.65,2.75-1.95,5.6-3.92,8.54-1.73,2.75-4.08,5.45-7.07,8.09,1.49,3.3,2.73,6.55,3.7,9.73,2.15,7.2,2.91,13.97,2.26,20.32-.22.93-.52,1.36-.89,1.27-.23-.05-.38-.58-.44-1.58-.38-6.98-1.56-13.29-3.54-18.92-1.21-2.84-2.39-5.66-3.56-8.44-2.66,2.73-5.05,5.59-7.18,8.58-3.15,4.83-5.55,9.41-7.21,13.75-.59,1.04-1.07,1.52-1.44,1.43-.42-.1-.5-.71-.24-1.83,1.69-5.12,3.72-9.57,6.08-13.35,2.55-4.38,5.48-8.14,8.78-11.31ZM389.43,751.88l8.82,2.07c1.17.27,1.66.81,1.47,1.6-.17.75-.75,1-1.73.78l-5.04-1.18-.05.21c-.52,3.67,1.01,7.89,4.57,12.67-.09.37-.32.52-.69.43-.09-.02-.35-.18-.77-.48-2.25-1.76-3.76-3.71-4.54-5.86-.82-2.16-.93-4.55-.32-7.16l.05-.21-7-1.64c-.74,3.17-1.96,5.55-3.66,7.12-1.5,1.57-3.67,2.54-6.51,2.91-.75-.17-1.08-.45-.99-.82.09-.37.48-.7,1.19-.98,1.56-.37,3.06-1.4,4.49-3.08,1.37-1.45,2.53-3.32,3.46-5.62l-4.55-1.07c-.93-.22-1.31-.7-1.14-1.45.19-.79.93-1.04,2.24-.73l8.19,1.92.38-1.61c.27-1.17.87-1.74,1.81-1.72.7.16.94.93.71,2.31l-.38,1.61Z"/>
    <path class="cls-2" d="M451.87,758.88c.06.91.15,1.96.27,3.16,3.64-.06,7.29-.02,10.93.11,0-.19.02-.29.07-.29.08-1.2.47-1.88,1.19-2.03.91.13,1.38.79,1.4,1.99.07,4.22-.24,7.48-.92,9.8-1.08,4.43-5.04,6.87-11.89,7.31,0,.38.01.79.02,1.22.14,0,.29.09.44.28,2.71,1.25,4.87,3.42,6.51,6.51,1.48,2.47,2.86,6.38,4.15,11.73.74,4.4,1.74,8,2.98,10.81,2.14,4.81,4.98,8.52,8.52,11.15,0,.38-.11.58-.35.58-.72.01-1.18-.27-1.38-.84-3.14-1.67-6.02-4.5-8.62-8.49-1.82-2.85-3.23-7.24-4.24-13.16-.61-5.02-1.75-9.13-3.44-12.31-1.33-2.33-2.85-4.03-4.54-5.1.08,2.3.15,4.58.18,6.83.3,18.79.21,29.55-.27,32.3-.18.96-.41,1.44-.7,1.45-.14,0-.32-.47-.53-1.43-.64-4.21-1.11-14.96-1.39-32.27-.04-2.44-.08-4.82-.12-7.12-2,1.14-3.67,3.08-5.01,5.83-1.58,3.05-2.62,7-3.12,11.84-.77,5.72-2.09,9.96-3.96,12.72-2.53,3.88-5.38,6.68-8.57,8.41-.19.43-.64.66-1.36.67-.24,0-.36-.21-.37-.64,3.6-2.5,6.42-6.07,8.46-10.71,1.15-2.7,2.06-6.17,2.71-10.4,1.16-5.2,2.44-9.05,3.84-11.57,1.53-2.95,3.61-5.09,6.22-6.43.48-.2.88-.4,1.21-.59,0-.43-.01-.84-.02-1.22-6.81-.22-11.07-2.43-12.76-6.62-.84-1.76-1.3-4.73-1.37-8.9.12-1.39.49-2.09,1.12-2.1.58,0,.96.39,1.17,1.2,3.88-.25,7.83-.41,11.86-.48-.02-1.2-.01-2.25.02-3.17l-15.96.26c-1.05.02-1.59-.38-1.6-1.2-.01-.72.7-1.19,2.13-1.4l15.46-.25c-.01-.62,0-1.13.05-1.51.18-.91.38-1.37.62-1.38.19,0,.39.35.59,1.07.06.57.11,1.17.17,1.79l14.45-.23c1.25.17,1.88.62,1.89,1.34.01.82-.51,1.23-1.56,1.25l-14.6.24ZM438.85,767.65l11.29-.18c-.02-1.1-.01-2.25.02-3.45-3.88.06-7.74.22-11.57.48.07,1.2.16,2.25.27,3.16ZM450.14,776.67c0-2.49,0-4.79-.04-6.9l-10.86.18c.26,1.2.58,2.08.98,2.65,1.82,2.61,5.12,3.97,9.92,4.08ZM463.03,764.38c-3.55-.33-7.13-.46-10.72-.4.07,1.2.13,2.35.2,3.45l10.28-.17c.08-.77.16-1.73.24-2.88ZM462.54,769.56l-9.92.16c.08,2.11.17,4.41.25,6.9,5.03-.27,7.98-1.83,8.84-4.67.28-.39.56-1.18.82-2.39Z"/>
    <path class="cls-2" d="M518.86,752.61l-15.25,3.63c-.98.23-1.55,0-1.72-.7-.19-.79.39-1.35,1.75-1.67l17.49-4.16-.32-1.33c-.32-1.35-.06-2.13.78-2.33.84-.2,1.47.37,1.88,1.7l.32,1.33,18.19-4.33c1.12-.27,1.77,0,1.96.79.17.7-.22,1.16-1.15,1.38l-22.39,5.33c-2.08,2.66-3.08,5.88-3.02,9.66.14-.23.35-.38.63-.45l18.4-4.38c1.3-.31,2.11.16,2.41,1.42l6.99,29.38c2.14,9,1.23,15.72-2.74,20.17-.18.49-.41.76-.69.83-.14.03-.26-.16-.36-.58,2.57-5.15,2.92-11.63,1.06-19.47l-6.78-28.47c-.13-.56-.53-.76-1.18-.61l-16.44,3.91c-.51.12-.94.1-1.27-.07.12,1.35.35,2.7.67,4.05l3.18,15.21c2.84,15.68.72,26.54-6.37,32.56-.28.26-.56.43-.84.5-.14.03-.23-.04-.28-.23,5.55-6.3,7.06-16.91,4.55-31.83l-3.17-16.1c-1.06-5.27.18-10.32,3.71-15.15Z"/>
    <path class="cls-2" d="M582.64,727.77c3.95,6.44,9.04,15.82,15.26,28.14,8.11,16.05,12.52,25.31,13.24,27.79.26.94.26,1.48,0,1.61-.26-.08-.71-.5-1.36-1.25-2.33-3.33-7.17-12.28-14.52-26.83-2.85-5.65-5.29-10.57-7.3-14.76l-6.35,3.21,7.55,14.31c5.3,10.59,8.01,18.35,8.14,23.28l5.26-4.27c.68-.34,1.1-.37,1.25-.07.28.56.04,1.03-.73,1.42l-8.01,7.59c-.64.32-1.06.29-1.25-.09-.15-.3-.04-.76.35-1.38-.13-.36-.15-.57-.07-.61,1.53-3.35-.78-11.21-6.92-23.58l-12.81-26.16c-.67-1.54-.75-2.44-.24-2.7.47-.24,1.08.29,1.84,1.57l.87,1.57,6.68-3.37c-.91-1.9-1.63-3.5-2.17-4.78l-11.36,5.74c-.81.41-1.38.29-1.71-.35-.37-.73,0-1.37,1.12-1.93l14.44-7.29c.94-.48,1.6-.35,1.96.38.32.64.1,1.16-.67,1.55l-2.5,1.26ZM580.74,743.96l6.35-3.21c-1-2.08-1.9-3.98-2.72-5.71l-6.61,3.34,2.98,5.58ZM593.15,728.02c.04-.24.15-.4.32-.48.62-1.44,1.12-2.66,1.53-3.67.38-.84.39-1.62.02-2.35-.22-.32-.4-.52-.55-.61-.09-.17-.07-.4.06-.68.3-.15.6-.19.9-.13.84.17,1.57.87,2.2,2.11.24.68.05,1.75-.57,3.19-.79,1.63-1.72,3.61-2.81,5.93-.53.86-.97,1.59-1.31,2.19-.1.75-.07,1.3.1,1.64.15.3.51.52,1.06.67.43-.22,1.39-.7,2.89-1.46,1.84-.93,2.82-1.64,2.95-2.13.32-.54.35-1.06.09-1.58-.28-.56-.98-.88-2.09-.96-.15-.3-.1-.62.16-.97.26-.13.62-.21,1.09-.23,1.44-.13,2.42.33,2.96,1.4.58,1.16.59,2.23.01,3.22-.47,1.1-1.88,2.24-4.23,3.43-2.22,1.12-3.87,1.63-4.95,1.53-1.03.09-1.85-.46-2.45-1.66-.45-.9-.46-2.08-.01-3.54.53-1.18,1.09-2.35,1.69-3.51-.88.28-1.79.45-2.73.49-1.03.09-1.77-.31-2.22-1.21-.15-.3-.12-.82.09-1.58.27-.84.69-1.72,1.24-2.64.96-1.29,1.26-2.3.89-3.03-.09-.17-.32-.37-.71-.61-.07-.34,0-.57.22-.68.13-.07.33-.09.61-.07.82.23,1.41.71,1.77,1.44.32.64.34,1.47.04,2.48-.27,1.05-.71,1.94-1.31,2.67-.24.28-.39.55-.48.81.17.34.5.5.97.48.96.21,1.81.24,2.54.09ZM605.7,745.21l-2.34-4.94c-1.04-2.48-1.26-3.88-.66-4.18.51-.26,1.42.68,2.71,2.82l2.72,5.07c6.03,11.94,9.06,20.48,9.08,25.62.04,4.76-.77,8.95-2.42,12.58-.21.54-.36.83-.45.87-.21.11-.41,0-.58-.35.99-3.99,1.25-8.42.78-13.28-.53-4.89-2.94-11.83-7.22-20.84-.04.02-.09.04-.13.07l-6.74,3.4c-.64.32-1.09.23-1.35-.28.06-.94-.13-2.16-.56-3.66-.28-1.09-.88-2.59-1.79-4.5-.35-.68-.55-1.36-.62-2.02-.41-1.03-.57-1.92-.46-2.67l.26-.45c.47-.02.89.12,1.26.41-.08.26.6,1.82,2.04,4.69.78,1.54,1.31,2.8,1.59,3.79.22.96.3,1.54.23,1.74.17.34.41.44.71.29l4.75-2.4c-.2-.49-.47-1.08-.81-1.76ZM605,723.24c.4-.79.86-1.54,1.37-2.22.57-1.42,1.08-2.64,1.53-3.67.38-.84.39-1.62.02-2.35-.26-.3-.46-.49-.61-.58-.09-.17-.04-.41.13-.71.21-.11.49-.14.83-.1.84.17,1.57.87,2.2,2.11.28.66.14,1.7-.44,3.12-.83,1.65-1.77,3.63-2.81,5.93-.45.82-.84,1.53-1.18,2.13-.06.73,0,1.27.17,1.61.15.3.42.46.81.48.43-.22,1.35-.68,2.76-1.39,1.8-.91,2.79-1.6,2.98-2.07.34-.39.38-.84.12-1.35-.28-.56-1.06-.83-2.35-.83-.15-.3-.1-.62.16-.97.26-.13.6-.19,1.03-.2,1.65-.24,2.75.17,3.29,1.24.5.98.46,1.97-.12,2.96-.47,1.1-1.86,2.23-4.17,3.39-2.18,1.1-3.74,1.68-4.69,1.72-1.09-.14-1.89-.71-2.39-1.69-.45-.9-.46-2.08-.01-3.54.26-.34.49-.78.7-1.32-.71.09-1.4.09-2.09,0-.86,0-1.53-.49-2.03-1.47-.28-.56-.3-1.19-.07-1.9.34-.82.8-1.82,1.37-3.03.87-1.67,1.12-2.88.76-3.6-.09-.17-.32-.37-.71-.61-.07-.34,0-.57.22-.68.17-.09.4-.12.67-.1.81.23,1.41.71,1.77,1.44.41.81.48,1.85.21,3.12-.42,1.07-.92,2.05-1.5,2.93-.13.49-.26.91-.41,1.26.17.34.52.6,1.03.77.49.13.98.18,1.45.15ZM616.56,743.91c1.45,2.65,3.04,5.69,4.76,9.11,5.71,11.3,8.78,17.91,9.21,19.84.24,1.01.23,1.57-.03,1.7-.17.09-.61-.36-1.32-1.34-1.88-2.22-5.42-8.49-10.62-18.8-4.67-9.46-7.86-16.3-9.57-20.54-.2-.81-.17-1.29.09-1.42.17-.09.53.19,1.06.83,1.62,2.35,3.42,5.28,5.41,8.79l3.27-1.65c.64-.32.89-.64.74-.94-.17-.34-.55-.93-1.13-1.76-.67-.9-1.23-1.8-1.68-2.69-.58-1.16-.9-2.69-.95-4.59-.11-1.07-.02-1.68.28-1.83.3-.15.59.05.87.61.87,1.93,1.69,3.66,2.47,5.2.97,1.6,1.97,3.22,3.01,4.84.45.9.1,1.64-1.05,2.22l-4.81,2.43Z"/>
    <path class="cls-2" d="M645.74,682.24c.37-.31.86-.5,1.48-.59,9.75-.63,16.7-.72,20.84-.26,4.88.21,7.49.52,7.83.92.65.77.79,1.31.42,1.62-.51.43-1.1.52-1.76.26-11.67-.38-19.93-.44-24.79-.18-.87.23-1.45.47-1.75.72-.18.15-.49.79-.93,1.91-1.39,6.69-2.74,15.13-4.05,25.32.15.62.04,1.09-.32,1.4-.26.22-.63.03-1.13-.56-1.15-2.85,0-12.64,3.48-29.35.11-.53.34-.94.67-1.22ZM647.42,697.28l13.36-11.26c1.04-.62,1.82-.63,2.35,0,.49.59.36,1.2-.41,1.85l-14.02,11.81c-.73.62-1.35.63-1.84.05-.53-.62-.34-1.44.57-2.45ZM651.35,706.75c2.72-2.73,5.58-5.36,8.58-7.89,2.9-2.44,5.94-4.66,9.14-6.67-1.04-1.38-1.25-2.33-.62-2.86.73-.62,1.92.04,3.56,1.99l16.31,19.36c7.44,9.28,7.88,16.68,1.32,22.21-7.66,6.46-15.55,4.95-23.65-4.52l-15.38-18.26c-1.88-2.24-2.54-3.72-1.97-4.46.59-.49,1.49-.13,2.71,1.1ZM687.86,731c5.3-4.72,4.68-10.96-1.87-18.74l-15.43-18.31c-3.2,2.01-6.27,4.24-9.2,6.71-2.97,2.5-5.8,5.14-8.48,7.9l15.2,18.04c6.8,8.07,13.39,9.53,19.78,4.4Z"/>
    <path class="cls-2" d="M694.61,645.02c-.86,3.72-2.64,7.57-5.34,11.53-.23.31-.42.41-.57.29-.19-.14-.15-.56.12-1.25,2.76-7.57,4.09-14.82,3.99-21.76.07-1.62.16-2.51.28-2.66.29-.38.93-.65,1.94-.8,7.43-1.23,13.95-4.98,19.57-11.26.74-.76,1.19-1.08,1.35-.97.31.23-.44,1.55-2.24,3.98-2.14,2.89-4.95,5.25-8.41,7.1.43.38.42.88-.04,1.5l-10.64,14.31ZM695.83,649.52c2.15-3.78,4.53-7.42,7.13-10.92,2.63-3.54,5.42-6.96,8.35-10.28-.5-.61-.64-1.07-.41-1.38.54-.73,2.21-.12,5,1.83l.98.73c5.54,4.12,5.35,10.16-.57,18.12-6.32,8.5-12.42,10.57-18.31,6.19l-1.1-.81c-2.15-1.6-2.96-2.77-2.42-3.5.17-.23.62-.23,1.34,0ZM702.93,630.33c-1.89.69-3.87,1.31-5.95,1.85l-2.43.25c.24,1.37.31,3.04.22,5,.2,1.1.31,2.23.35,3.39l7.81-10.5ZM713.5,646.97c-.83-.08-2.35-.94-4.54-2.57-1.94-1.56-3.27-2.79-3.99-3.68-.12-.15-.26-.29-.42-.4-2.43,3.27-4.71,6.66-6.83,10.15.15.12.38.29.69.51l.87.64c4.46,3.32,9.2,1.76,14.22-4.66ZM700.89,648.98c.17-.23.57-.44,1.19-.64l4.69-1.98c.41-.23.87-.16,1.37.21.46.34.48.8.05,1.38-.26.35-.65.56-1.19.64l-4.38,2.03c-.65.23-1.13.24-1.44,0-.5-.37-.6-.92-.29-1.65ZM712.99,629.93c-2.74,3.04-5.37,6.26-7.88,9.64l.27.11c1.38.31,3.07,1.21,5.07,2.7,2.19,1.63,3.51,2.76,3.94,3.38,4.69-6.31,4.98-11,.86-14.05l-.98-.73c-.58-.43-1-.78-1.28-1.04ZM726.3,640.36c-.77-.81-1.03-1.39-.77-1.74.51-.69,2.09-.12,4.72,1.72l10.91,8.11c10,7.43,12.23,14.88,6.68,22.35-5.83,7.85-14.08,7.81-24.74-.11l-11.02-8.19c-2-1.49-2.72-2.61-2.14-3.38,0-.41.61-.29,1.8.35,2.31-3.36,4.72-6.71,7.21-10.06,2.32-3.12,4.77-6.13,7.35-9.05ZM711.87,634.21c.43-.58.94-.74,1.52-.48.31.23.52.59.62,1.09.16,2.03.08,4.19-.23,6.46-.49.41-.96.45-1.42.11-.5-.37-.78-.84-.83-1.42-.14-1.66-.03-3.58.33-5.75ZM731.52,644.42l-2.77-2.06c-.27-.2-.48-.36-.63-.47-2.6,2.85-5.07,5.85-7.41,9.01-2.4,3.23-4.71,6.5-6.93,9.81l3.64,2.7,14.11-18.99ZM719.26,664.78l5.31,3.95c9.27,6.89,16.33,7.09,21.16.58,4.57-6.16,2.55-12.44-6.07-18.84l-6.29-4.67-14.11,18.99Z"/>
  </g>
  <g>
    <circle class="cls-1" cx="450" cy="450" r="303.09"/>
    <path class="cls-3" d="M143.66,533.99c1.21,4.5.69,7.62.38,8.8-.83,1.22-4.17,2.8-7.49,3.69-.73-.17-1.08-1.28-.65-1.82,2.91-1.83,6.53-6.31,5.41-10.47-.97-3.62-3.91-4.61-6.35-3.95-3.96,1.06-5.3,5.41-5.98,8.73-.81,3.99-2.71,8.64-7.54,9.94-5.51,1.53-10.48-1.74-12.38-8.83-.43-1.61-.78-3.67-.72-5.78.02-.69,0-1.15-.06-1.77.97-.68,3.48-1.88,6.75-2.76.65.09,1.03,1.29.66,1.87-2.27,1.5-5.27,4.56-4.32,8.08.87,3.22,3.44,4.42,5.88,3.76,2.25-.6,3.76-3.16,4.37-5.94l.84-3.68c.8-3.46,2.59-8.08,7.97-9.53,6.01-1.62,11.25,2.27,13.23,9.65Z"/>
    <path class="cls-3" d="M120.5,507.68c.32,2.05.38,2.09,1.78,1.87l7.2-1.14c4.65-.73,5.05-1.1,5-3.4l-.05-1.63c.24-.45,1.39-.63,1.75-.27.35,2.87.69,5.37,1.05,7.62.38,2.4.82,4.89,1.33,7.42-.24.45-1.39.63-1.75.28l-.34-1.18c-.66-2.25-1.2-2.42-5.85-1.69l-18.6,2.93c-4.65.73-5.11,1.06-5.05,3.41l.04,1.22c-.24.45-1.39.63-1.75.28-.29-2.46-.65-5.07-1.03-7.47-.35-2.25-.8-4.74-1.25-6.93.24-.45,1.39-.63,1.75-.28l.32,1.03c.64,2.1,1.19,2.32,5.83,1.59l5.8-.92c1.45-.23,1.49-.29,1.17-2.34l-1.64-10.4c-.33-2.1-.38-2.09-1.83-1.86l-5.8.92c-4.65.73-5.01,1.05-5,3.4v1.38c-.22.45-1.37.63-1.74.28-.33-2.77-.67-5.22-1.05-7.62-.39-2.45-.8-4.74-1.26-7.03.24-.45,1.39-.63,1.75-.28l.31.98c.71,2.24,1.21,2.47,5.86,1.74l18.6-2.94c4.65-.73,4.95-1.09,4.99-3.45v-1.23c.25-.45,1.4-.63,1.76-.27.29,2.52.63,4.97.99,7.27.39,2.5.83,4.94,1.31,7.32-.24.45-1.39.63-1.75.28l-.32-1.08c-.66-2.25-1.2-2.42-5.85-1.69l-7.2,1.14c-1.4.22-1.45.23-1.12,2.33l1.64,10.4Z"/>
    <path class="cls-3" d="M120.71,469.46c.05,1.21.11,1.36,1.08,1.63l5.95,1.73c1.02.26,1.43.29,1.83.28.3-.01.58-.68.77-2.11l.19-1.53c.34-.32,1.5-.47,1.77.03-.03,1.77.05,3.59.09,5.72.07,1.72.27,2.88.37,5.2-.28.57-1.34.56-1.76.23l-.21-1.36c-.2-1.21-.65-2.2-2.66-2.98-2.06-.77-4.52-1.63-8.22-2.85l-12.53-4.08c-3.23-1.03-5.04-1.81-6.5-1.6-.66-2.4-3.21-4.17-3.22-4.27-.03-.66.21-.97.96-1.21,1.45-.47,3.29-1.15,6.83-2.57l19.53-7.71c2.99-1.19,4.13-1.69,4.36-3.58l.22-1.93c.24-.31,1.45-.47,1.77-.02,0,2.43.06,5.16.17,7.79.11,2.53.24,4.5.44,6.82-.28.57-1.34.71-1.76.18l-.32-1.61c-.25-1.15-.61-1.34-.92-1.33-.35.01-1.55.42-3.4,1.1l-4.29,1.55c-.8.29-.88.7-.81,2.46l.25,6.02ZM117.79,463.81c-.05-1.16-.21-1.41-1.51-.95l-4.04,1.49c-2.14.8-4.84,1.82-5.88,2.32,1.18.36,3.95,1.25,6.31,1.91l3.84,1.1c1.38.4,1.52.14,1.47-1.13l-.2-4.75Z"/>
    <path class="cls-3" d="M124.7,413.85c3.28.22,6.46.43,8.14.44.58.39,1.04,1.84.96,3.06,0,.05-2.69,1.54-5.78,3.72l-15.22,10.7c-3.78,2.69-6.01,4.21-6.83,5.07.49.29,1.35.34,3.21.47l9.8.65c4.09.27,7.89.32,9.29-.14,1.09-.38,1.52-1.52,1.81-2.82l.3-1.4c.43-.38,1.48-.21,1.77.12-.28,2.72-.47,4.74-.6,6.76-.12,1.87-.2,3.74-.23,5.66-.32.28-1.39.31-1.77-.12l-.09-.87c-.16-1.38-.45-2.41-1.48-2.89-1.33-.65-5.1-1.05-9.19-1.32l-12.82-.86c-2.78-.19-3.59-.19-4.32.07-.89.35-1.54,1.01-1.91,2.76l-.3,1.4c-.43.33-1.64.19-1.75-.32.26-2.37.48-4.89.62-6.96.11-1.72.16-3.18.13-4.25,2.31-.35,6.36-3.38,12.07-7.56l5.28-3.91c2.77-2.05,4.64-3.39,5.88-4.48-.49-.24-1.35-.29-2.26-.35l-6.97-.47c-4.09-.27-7.89-.32-9.29.14-1.09.38-1.52,1.47-1.81,2.82l-.29,1.35c-.43.38-1.48.21-1.77-.12.28-2.72.47-4.69.6-6.76.12-1.87.2-3.69.23-5.67.32-.28,1.39-.31,1.77.12l.09.92c.11,1.33.45,2.31,1.48,2.84,1.33.65,5.1,1.1,9.19,1.37l12.07.81Z"/>
    <path class="cls-3" d="M134.27,375.04c2.09.39,3.1.48,3.48-.43.24-.16,1.07.05,1.17.37,0,.87-.1,2.19.09,3.62.22,1.84.06,6.24-.46,9.03-.64,3.38-1.53,6.2-3.58,9.47-3.43,5.38-9.7,8.32-16.86,6.97-6.22-1.17-11.16-4.98-13.37-11.58-1.2-3.73-1.24-7.91-.45-12.13,1.04-5.52,2.75-8.03,3.05-9.62,1.52.13,5.01.74,8.14.81.51.3.31,1.65-.26,1.91-4.97.71-7.9,3.41-8.77,8.03-1.49,7.91,4.36,12.97,12.21,14.45,7.11,1.34,11.8-.3,14.59-3.12,2.04-2.09,2.82-4.62,3.17-6.46.53-2.83.1-3.53-3.13-4.14l-3.13-.59c-2.69-.51-3.04-.26-3.84,2.06l-.71,2.13c-.4.49-1.54.28-1.74-.33.76-3.51,1.27-5.94,1.73-8.38.45-2.39.86-4.83,1.08-6.54.37-.34,1.52-.13,1.74.33l-.02,1.18c-.03,1.54.41,1.93,3.09,2.44l2.78.52Z"/>
    <path class="cls-3" d="M129.93,352.7c-.63,1.98-.6,2.04.75,2.47l6.94,2.23c4.48,1.44,5.01,1.29,5.99-.79l.69-1.48c.41-.29,1.52.06,1.69.54-.98,2.71-1.8,5.11-2.5,7.27-.74,2.31-1.47,4.74-2.16,7.22-.41.29-1.52-.06-1.69-.54l.23-1.2c.42-2.31.02-2.7-4.46-4.14l-17.92-5.76c-4.48-1.44-5.04-1.35-6.04.77l-.52,1.11c-.41.29-1.52-.06-1.69-.54.85-2.33,1.71-4.82,2.45-7.13.7-2.17,1.42-4.59,2.01-6.74.41-.29,1.52.06,1.69.54l-.18,1.06c-.38,2.16.01,2.61,4.49,4.05l5.59,1.79c1.4.45,1.46.42,2.1-1.56l3.22-10.02c.65-2.02.6-2.04-.8-2.49l-5.59-1.79c-4.48-1.44-4.94-1.32-5.99.79l-.61,1.24c-.41.29-1.52-.06-1.69-.54.95-2.62,1.75-4.96,2.5-7.28.76-2.36,1.42-4.59,2.04-6.84.41-.29,1.52.06,1.69.54l-.17,1.01c-.37,2.32-.03,2.75,4.45,4.19l17.92,5.76c4.48,1.44,4.91,1.26,6.01-.83l.56-1.09c.41-.29,1.52.06,1.69.55-.87,2.38-1.68,4.72-2.39,6.94-.77,2.41-1.48,4.78-2.13,7.12-.41.29-1.52-.06-1.69-.54l.2-1.11c.42-2.31.02-2.7-4.46-4.14l-6.94-2.23c-1.35-.43-1.4-.45-2.05,1.57l-3.22,10.02Z"/>
    <path class="cls-3" d="M147.35,318.65c-.5,1.11-.52,1.26.23,1.94l4.53,4.23c.8.69,1.14.91,1.51,1.08.28.13.82-.35,1.64-1.53l.86-1.28c.45-.13,1.55.26,1.57.83-.83,1.57-1.58,3.23-2.5,5.14-.71,1.57-1.06,2.69-2.02,4.81-.51.38-1.45-.1-1.68-.59l.43-1.31c.36-1.17.41-2.26-1.03-3.86-1.49-1.62-3.3-3.5-6.05-6.25l-9.33-9.3c-2.42-2.38-3.68-3.89-5.08-4.36.5-2.44-.98-5.17-.94-5.26.27-.6.63-.77,1.4-.64,1.5.24,3.46.46,7.25.79l20.91,1.94c3.2.29,4.45.36,5.5-1.22l1.07-1.62c.36-.17,1.5.24,1.59.78-1.1,2.17-2.27,4.64-3.36,7.03-1.05,2.3-1.82,4.12-2.69,6.28-.51.38-1.52.03-1.65-.64l.44-1.58c.3-1.14.06-1.47-.22-1.6-.32-.15-1.57-.33-3.53-.55l-4.53-.56c-.84-.1-1.1.22-1.83,1.83l-2.49,5.48ZM147.29,312.29c.48-1.06.45-1.35-.92-1.53l-4.28-.5c-2.27-.26-5.14-.56-6.29-.58.89.85,2.96,2.9,4.77,4.56l2.93,2.72c1.06.98,1.3.81,1.82-.34l1.97-4.33Z"/>
    <path class="cls-3" d="M166.75,288.96c4.16,2.31,4.61,2.21,6.1.38l.91-1.12c.46-.21,1.45.4,1.52.9-1.41,2.34-2.66,4.48-3.82,6.56-1.18,2.12-2.36,4.36-3.6,6.8-.46.21-1.48-.36-1.55-.86l.47-1.36c.78-2.23.61-2.67-3.54-4.98l-16.28-9.03c-4.16-2.31-4.62-2.21-6.1-.38l-.91,1.12c-.46.21-1.48-.36-1.55-.86,1.41-2.34,2.69-4.53,3.86-6.65,1.15-2.08,2.34-4.32,3.57-6.75.46-.21,1.48.36,1.55.86l-.47,1.36c-.78,2.23-.61,2.67,3.54,4.98l16.28,9.03Z"/>
    <path class="cls-3" d="M175.05,230.86c.74.54,4.09,2.8,6.73,4.16.37.52-.27,1.74-.85,1.76-4.61-1.67-8.56-.55-11.45,3.42-3.31,4.54-2.98,12.23,5.15,18.17s15.93,4.43,19.51-.47c3.61-4.94,1.73-9.83-.25-12.96-.09-.57.75-1.46,1.42-1.34,2.81,2.49,4.76,4.98,5.28,6.24-1,2.65-2.22,6.21-4.54,9.4-2.92,4-6.85,7.4-11.13,8.73-4.4,1.3-9.43,1.07-14.49-2.63-4.98-3.64-6.95-8.33-7.22-12.85-.29-4.66,1.52-9.72,4.63-13.97,3.04-4.17,6.23-6.48,7.21-7.64Z"/>
    <path class="cls-3" d="M216.59,208.73c8.08,7.51,7.91,17.43.5,25.4-6.92,7.45-16.84,8.31-24.59,1.12-7.34-6.82-7.91-17.57-.71-25.32,7.16-7.71,17.28-8.19,24.8-1.2ZM193.22,211.81c-4.24,4.56-2.25,10.97,3.94,16.72,4.52,4.2,13.27,9.36,18.88,3.32,4.51-4.86,1.52-11.15-4.48-16.73-6.34-5.89-14.07-7.9-18.34-3.3Z"/>
    <path class="cls-3" d="M235.18,203.75c1.55,1.8,2.77,2.89,3.79,3.08,1.06.22,2.01-.07,4.81-2.48,3.49-3.01,4.46-4.05,2.88-10.44-.02-.65.99-1.25,1.65-1.03,1.53,2.16,3.35,6.13,3.71,7.63-2.1,1.68-5.81,4.81-8.95,7.52l-5.13,4.43c-1.76,1.52-3.64,3.21-5.95,5.34-.54.07-1.38-.75-1.27-1.24l1.29-1.45c1.52-1.72,1.49-2.22-1.58-5.78l-12.3-14.25c-3.08-3.56-3.6-3.71-5.52-2.45l-1.24.81c-.58.1-1.34-.78-1.08-1.41,2.06-1.64,4.01-3.26,5.84-4.85,1.84-1.59,3.72-3.28,5.57-5.01.5-.03,1.27.85,1.16,1.34l-.86,1.01c-1.49,1.76-1.46,2.26,1.62,5.82l11.57,13.4Z"/>
    <path class="cls-3" d="M259.26,184.64c1.38,1.94,2.48,3.14,3.49,3.42,1.03.32,2.01.12,5.02-2.02,3.75-2.67,4.82-3.62,3.85-10.13.04-.65,1.1-1.16,1.74-.87,1.32,2.29,2.77,6.42,2.98,7.94-2.24,1.47-6.23,4.25-9.61,6.65l-5.52,3.93c-1.9,1.35-3.93,2.86-6.43,4.76-.55.02-1.3-.87-1.15-1.35l1.42-1.32c1.68-1.57,1.69-2.07-1.04-5.91l-10.92-15.34c-2.73-3.83-3.24-4.03-5.27-2.96l-1.31.69c-.59.05-1.26-.9-.94-1.5,2.2-1.44,4.29-2.87,6.27-4.28,1.98-1.41,4.01-2.92,6.01-4.47.51.01,1.18.96,1.03,1.44l-.95.93c-1.65,1.61-1.66,2.11,1.07,5.95l10.27,14.43Z"/>
    <path class="cls-3" d="M279.11,157.61c.71,1.23.8,1.29,1.99.61l3.02-1.75c2.28-1.32,2.63-1.93,1.85-4.28l-.41-1.22c.1-.53,1.2-1.16,1.65-.89.72,1.45,1.59,3.05,2.55,4.72s1.92,3.22,2.81,4.57c0,.52-1.06,1.2-1.6.98l-.85-.97c-1.65-1.85-2.38-1.9-4.66-.58l-3.02,1.75c-1.18.68-1.2.75-.44,2.07l3.01,5.21c1.16,2.02,2.15,3.32,3.11,3.76,1.03.46,2.06.33,5.26-1.52,3.81-2.2,5.22-3.19,4.77-9.54.07-.68,1.27-1.14,1.75-.72,1.14,2.38,2.14,6.54,2.21,8.07-2.37,1.25-6.6,3.64-10.2,5.72l-5.7,3.29c-2.1,1.22-4.22,2.5-7.46,4.49-.5-.06-1.11-1.11-.89-1.53l1.88-1.5c1.79-1.45,1.91-1.86-.42-5.89l-9.44-16.34c-2.3-3.99-2.72-4.1-4.92-3.35l-1.22.41c-.55-.04-1.08-1.07-.8-1.58,2.11-1.1,4.28-2.3,6.38-3.51l9.29-5.37c2.8-1.62,5.28-3.11,5.79-3.52.45.68,2.58,3.65,4.49,6.46.1.58-.85,1.25-1.52,1.11-1.37-1.25-2.74-2.21-3.66-2.5-1.31-.35-2.93-.12-5.08,1.12l-3.5,2.03c-1.45.84-1.4.92-.46,2.54l4.43,7.67Z"/>
    <path class="cls-3" d="M332.64,147.44c.86,1.94,1.36,2.83,2.32,2.62.27.1.57.91.35,1.17-.73.49-1.87,1.16-2.93,2.13-1.39,1.23-5.11,3.59-7.7,4.73-3.15,1.39-5.97,2.26-9.83,2.42-6.38.22-12.35-3.28-15.3-9.94-2.56-5.78-2.22-12.02,1.96-17.58,2.39-3.1,5.81-5.5,9.74-7.24,5.14-2.27,8.17-2.29,9.65-2.94.75,1.33,2.23,4.54,3.94,7.16.04.59-1.19,1.19-1.72.87-3.41-3.69-7.28-4.58-11.59-2.67-7.36,3.26-8.22,10.94-4.98,18.25,2.93,6.62,6.94,9.54,10.84,10.25,2.88.5,5.4-.29,7.12-1.05,2.64-1.17,2.97-1.92,1.64-4.93l-1.29-2.91c-1.11-2.5-1.51-2.65-3.87-1.99l-2.16.62c-.63-.05-1.1-1.12-.72-1.62,3.33-1.36,5.61-2.32,7.88-3.32,2.22-.98,4.47-2.03,6-2.82.49.11.96,1.18.72,1.62l-.98.66c-1.29.85-1.36,1.43-.25,3.93l1.15,2.59Z"/>
    <path class="cls-3" d="M348.65,140.3c1.53,4.5,1.93,4.74,4.26,4.38l1.42-.22c.48.16.81,1.28.52,1.69-2.62.78-4.98,1.53-7.24,2.3-2.3.78-4.68,1.64-7.23,2.62-.48-.16-.85-1.26-.57-1.68l1.26-.69c2.07-1.13,2.25-1.56.72-6.07l-5.99-17.63c-1.53-4.5-1.93-4.74-4.26-4.38l-1.42.22c-.48-.16-.85-1.26-.57-1.68,2.62-.78,5.03-1.55,7.33-2.33,2.25-.76,4.63-1.63,7.19-2.6.48.16.85,1.26.57,1.68l-1.26.7c-2.07,1.13-2.25,1.56-.72,6.07l5.99,17.63Z"/>
    <path class="cls-3" d="M364.02,131.47c-1.18.3-1.31.38-1.37,1.39l-.48,6.17c-.05,1.06,0,1.46.1,1.85.07.29.79.43,2.22.33l1.53-.12c.38.27.76,1.37.33,1.74-1.74.33-3.51.78-5.58,1.25-1.67.42-2.76.85-5.02,1.42-.61-.16-.82-1.2-.58-1.68l1.29-.48c1.14-.44,2.02-1.08,2.38-3.21.34-2.17.68-4.76,1.12-8.63l1.45-13.1c.35-3.38.75-5.3.25-6.69,2.22-1.13,3.43-3.99,3.53-4.02.64-.16.99.01,1.38.7.75,1.32,1.8,2.99,3.9,6.17l11.51,17.56c1.77,2.69,2.5,3.7,4.39,3.54l1.94-.17c.36.17.75,1.32.38,1.73-2.38.49-5.04,1.11-7.59,1.75-2.45.62-4.35,1.15-6.59,1.81-.61-.16-.97-1.16-.53-1.69l1.51-.64c1.08-.48,1.19-.87,1.12-1.17-.09-.34-.73-1.43-1.77-3.1l-2.39-3.89c-.44-.72-.86-.72-2.58-.29l-5.84,1.47ZM368.96,127.47c1.13-.28,1.34-.49.62-1.67l-2.28-3.65c-1.22-1.94-2.77-4.36-3.47-5.28-.11,1.23-.42,4.12-.59,6.57l-.3,3.99c-.11,1.44.17,1.52,1.4,1.21l4.61-1.16Z"/>
    <path class="cls-3" d="M396.29,106.13c-.17-1.2-.21-1.45-1.41-1.28l-3.1.45c-3.66.53-4.42,2.69-5.39,6.56-.56.39-1.52.43-1.92-.18.55-3.61.35-6.75.42-8.75.18-.18.41-.32.67-.35.25-.04.51-.02.73.1.37.81.55.99,4.36.44l18.63-2.7c3.31-.48,4.05-.64,4.35-1.76.19-.13.33-.2.63-.24s.68.11.8.24c-.25,1.78-.02,5.88.5,8.72-.19.49-1.52.78-1.83.42-1.32-3.08-2.36-5.33-6.11-4.79l-3,.44c-1.2.17-1.33.35-1.14,1.65l3.2,22.08c.68,4.66,1.03,5.01,3.33,4.99l2.04-.04c.39.25.56,1.4.25,1.75-3.27.37-5.78.69-8.03,1.01-2.4.35-5,.78-8.49,1.39-.44-.24-.61-1.39-.25-1.75l2.22-.58c2.22-.58,2.45-1.07,1.78-5.73l-3.2-22.08Z"/>
    <path class="cls-3" d="M432.57,111.82c.06,1.42.12,1.51,1.48,1.45l3.49-.16c2.63-.12,3.22-.5,3.62-2.95l.2-1.27c.34-.42,1.6-.48,1.87-.03-.03,1.62,0,3.44.09,5.36.09,1.92.22,3.74.39,5.35-.23.47-1.49.57-1.87.13l-.31-1.25c-.61-2.4-1.24-2.78-3.87-2.66l-3.49.16c-1.36.06-1.41.11-1.34,1.63l.27,6.02c.1,2.33.38,3.93,1.02,4.77.7.88,1.68,1.24,5.37,1.08,4.4-.2,6.11-.43,8.63-6.26.38-.57,1.65-.43,1.88.17-.08,2.64-1.11,6.79-1.76,8.18-2.68.02-7.54.19-11.68.37l-6.57.3c-2.43.11-4.9.27-8.69.54-.42-.29-.47-1.5-.08-1.77l2.36-.46c2.26-.46,2.55-.77,2.34-5.42l-.85-18.86c-.21-4.6-.52-4.89-2.82-5.24l-1.28-.2c-.47-.28-.47-1.45.02-1.77,2.38,0,4.86-.07,7.29-.18l10.72-.48c3.24-.15,6.11-.33,6.77-.46.09.81.6,4.43,1.01,7.81-.18.56-1.34.72-1.86.29-.64-1.74-1.41-3.23-2.1-3.91-1-.92-2.55-1.46-5.02-1.34l-4.04.18c-1.67.08-1.66.18-1.58,2.05l.4,8.85Z"/>
    <path class="cls-3" d="M478.73,103.18c.11-1.21.13-1.46-1.08-1.57l-3.12-.29c-3.68-.34-4.92,1.58-6.77,5.12-.63.25-1.58.06-1.82-.62,1.38-3.38,1.92-6.48,2.45-8.41.22-.13.48-.21.73-.19.25.02.5.1.69.27.17.88.31,1.09,4.14,1.45l18.74,1.72c3.33.31,4.09.32,4.64-.69.21-.08.37-.12.67-.09s.64.26.72.42c-.66,1.67-1.39,5.72-1.55,8.6-.29.43-1.66.41-1.88-.02-.56-3.3-1.05-5.74-4.83-6.08l-3.02-.28c-1.21-.11-1.37.03-1.49,1.34l-2.04,22.22c-.43,4.69-.16,5.12,2.08,5.63l1.99.44c.32.33.22,1.49-.16,1.76-3.27-.4-5.78-.68-8.05-.89-2.42-.22-5.04-.41-8.58-.63-.38-.34-.27-1.5.16-1.76l2.29-.04c2.29-.04,2.63-.47,3.06-5.16l2.04-22.22Z"/>
    <path class="cls-3" d="M536.68,125.61c-2.27,10.79-10.86,15.76-21.5,13.53-9.95-2.09-15.81-10.14-13.64-20.49,2.06-9.8,10.98-15.84,21.32-13.67,10.3,2.16,15.93,10.58,13.82,20.63ZM521.99,107.17c-6.09-1.28-10.55,3.73-12.29,12-1.27,6.04-1.18,16.19,6.9,17.89,6.49,1.36,10.34-4.45,12.03-12.47,1.78-8.47-.49-16.13-6.63-17.42Z"/>
    <path class="cls-3" d="M549.4,119.82c1.53-4.45,1.34-4.84-.67-6.01l-1.11-.65c-.28-.42.03-1.49.65-1.59,2.26.88,4.64,1.75,6.94,2.54,2.34.81,4.71,1.56,7.04,2.25.28.42-.08,1.47-.56,1.63l-1.21-.2c-2.29-.36-2.7-.07-4.23,4.38l-3.8,11.05c-1.92,5.6-3.42,11.99,3.85,14.48,6.12,2.1,9.83-2.62,12.08-9.17l1.99-5.79c1.33-3.88,2.39-7.58,2.29-9-.09-1.15-1.04-1.8-2.25-2.48l-1.21-.68c-.25-.51.17-1.44.56-1.63,2.55.98,4.4,1.67,6.36,2.35,1.77.61,3.56,1.17,5.41,1.7.19.39-.04,1.38-.56,1.63l-.93-.1c-1.34-.14-2.35-.17-3.13.69-.95,1.06-2.39,4.63-3.73,8.51l-1.84,5.36c-1.54,4.5-3.39,8.47-7.02,10.48-2.88,1.53-6.78,1.52-10.66.19-3.64-1.25-6.69-2.94-8.55-5.93-1.78-2.91-1.62-6.81.17-12.03l4.11-11.96Z"/>
    <path class="cls-3" d="M592.3,147.25c-1.86-.91-1.93-.89-2.55.38l-3.21,6.54c-2.07,4.23-2,4.77-.09,6.04l1.37.9c.23.45-.28,1.5-.78,1.59-2.54-1.36-4.79-2.52-6.84-3.52-2.18-1.07-4.48-2.14-6.84-3.18-.23-.45.28-1.5.78-1.59l1.16.4c2.22.75,2.67.41,4.75-3.82l8.29-16.9c2.07-4.23,2.07-4.79.11-6.09l-1.02-.67c-.23-.45.28-1.5.78-1.59,2.18,1.18,4.52,2.39,6.7,3.46,2.04,1,4.34,2.07,6.38,2.96.23.45-.28,1.5-.78,1.59l-1.02-.33c-2.09-.69-2.58-.36-4.66,3.86l-2.58,5.27c-.65,1.32-.62,1.39,1.24,2.3l9.45,4.63c1.91.94,1.93.89,2.58-.43l2.58-5.27c2.07-4.23,2.02-4.7.09-6.04l-1.14-.78c-.23-.45.28-1.5.78-1.59,2.46,1.32,4.66,2.45,6.84,3.52,2.23,1.09,4.34,2.07,6.47,3,.23.45-.28,1.5-.78,1.59l-.98-.31c-2.25-.71-2.72-.43-4.79,3.79l-8.29,16.9c-2.07,4.23-1.96,4.68-.04,6.07l1,.72c.23.45-.28,1.5-.78,1.59-2.23-1.2-4.43-2.34-6.52-3.37-2.27-1.11-4.52-2.16-6.75-3.14-.23-.45.28-1.5.78-1.59l1.07.35c2.22.75,2.67.41,4.75-3.82l3.21-6.54c.62-1.27.65-1.32-1.26-2.25l-9.45-4.63Z"/>
    <path class="cls-3" d="M649.58,180.06c-6.08,9.2-15.9,10.66-24.98,4.65-8.48-5.61-10.96-15.25-5.13-24.08,5.53-8.36,16.04-10.68,24.86-4.85,8.78,5.81,10.91,15.7,5.24,24.27ZM642.72,157.5c-5.19-3.43-11.19-.42-15.85,6.63-3.41,5.15-7.06,14.62-.18,19.17,5.53,3.66,11.25-.32,15.77-7.16,4.77-7.22,5.49-15.18.25-18.64Z"/>
    <path class="cls-3" d="M663.5,179.32c3.05-3.58,3.02-4.01,1.58-5.83l-.8-1.01c-.11-.49.57-1.37,1.19-1.24,1.78,1.65,3.67,3.33,5.52,4.91,1.89,1.61,3.8,3.18,5.72,4.68.11.49-.61,1.34-1.12,1.31l-1.06-.63c-1.99-1.17-2.49-1.06-5.54,2.52l-7.59,8.89c-3.84,4.5-7.58,9.89-1.73,14.89,4.93,4.21,10.11,1.18,14.61-4.1l3.97-4.66c2.66-3.12,5-6.17,5.43-7.54.34-1.1-.31-2.06-1.18-3.14l-.88-1.08c-.04-.57.69-1.27,1.12-1.31,2.01,1.85,3.48,3.17,5.06,4.52,1.42,1.22,2.88,2.39,4.41,3.56.03.43-.55,1.26-1.12,1.31l-.82-.44c-1.2-.62-2.13-1.02-3.16-.5-1.28.64-3.93,3.43-6.59,6.55l-3.68,4.31c-3.09,3.62-6.26,6.63-10.38,7.17-3.24.36-6.87-1.07-9.99-3.73-2.92-2.5-5.15-5.19-5.78-8.66-.59-3.36,1-6.93,4.58-11.13l8.21-9.62Z"/>
    <path class="cls-3" d="M695.19,229.35c-.8-.92-.94-1-1.86-.59l-5.72,2.37c-.96.44-1.3.66-1.61.93-.23.2-.03.9.71,2.13l.81,1.31c-.07.46-.88,1.3-1.4,1.09-1.09-1.4-2.28-2.78-3.64-4.41-1.13-1.3-2.01-2.07-3.54-3.83-.14-.62.7-1.28,1.24-1.28l1.01.93c.91.82,1.88,1.31,3.93.67,2.09-.68,4.55-1.55,8.2-2.91l12.33-4.64c3.17-1.22,5.07-1.73,6.07-2.81,2.01,1.47,5.11,1.25,5.18,1.32.43.5.44.89,0,1.54-.84,1.27-1.85,2.96-3.73,6.27l-10.43,18.22c-1.59,2.8-2.17,3.9-1.17,5.51l1.03,1.65c0,.4-.84,1.27-1.37,1.13-1.52-1.9-3.28-3.99-5-5.98-1.66-1.91-3-3.36-4.6-5.05-.14-.62.6-1.39,1.27-1.24l1.25,1.05c.92.74,1.32.66,1.55.46.27-.23.95-1.3,1.96-2.98l2.38-3.89c.44-.72.25-1.09-.91-2.43l-3.96-4.54ZM701,231.94c.76.88,1.04.97,1.77-.2l2.23-3.68c1.17-1.96,2.64-4.44,3.14-5.49-1.14.46-3.87,1.49-6.12,2.45l-3.69,1.54c-1.33.55-1.28.84-.45,1.8l3.12,3.59Z"/>
    <path class="cls-3" d="M706.64,262.92c-2.73-3.77-3.35-6.88-3.48-8.1.34-1.43,2.9-4.1,5.69-6.12.74-.1,1.46.81,1.25,1.47-2.07,2.75-3.86,8.22-1.33,11.71,2.2,3.03,5.29,2.92,7.34,1.43,3.32-2.4,3.04-6.94,2.49-10.29-.66-4.02-.54-9.04,3.52-11.98,4.6-3.39,10.41-2.1,14.71,3.85.98,1.35,2.03,3.15,2.73,5.15.22.65.41,1.08.68,1.63-.67.98-2.58,2.99-5.33,4.98-.64.15-1.42-.84-1.28-1.51,1.59-2.21,3.3-6.14,1.17-9.09-1.96-2.71-4.79-2.91-6.84-1.42-1.89,1.36-2.39,4.29-1.97,7.11l.52,3.74c.49,3.52.45,8.48-4.06,11.74-5.04,3.65-11.32,1.88-15.8-4.31Z"/>
    <path class="cls-3" d="M721.03,284.42c-2.41-3.98-2.78-7.13-2.82-8.35.45-1.4,3.23-3.85,6.17-5.63.75-.04,1.39.93,1.13,1.57-2.29,2.57-4.51,7.88-2.28,11.56,1.94,3.2,5.04,3.34,7.2,2.02,3.51-2.12,3.59-6.67,3.31-10.06-.33-4.06.19-9.05,4.48-11.65,4.86-3.01,10.55-1.25,14.35,5.03.87,1.43,1.77,3.31,2.3,5.35.17.67.32,1.11.55,1.68-.74.92-2.82,2.77-5.72,4.53-.65.1-1.35-.96-1.15-1.61,1.76-2.07,3.79-5.85,1.9-8.96-1.73-2.86-4.54-3.29-6.7-1.97-1.99,1.21-2.73,4.08-2.55,6.93l.22,3.77c.2,3.55-.24,8.49-5,11.37-5.32,3.23-11.43.95-15.39-5.58Z"/>
    <path class="cls-3" d="M761,323.4c-9.98,4.7-19.12.85-23.76-8.99-4.34-9.2-1.45-18.73,8.12-23.24,9.06-4.27,19.25-.8,23.76,8.76,4.49,9.52,1.17,19.08-8.12,23.46ZM766.85,300.56c-2.65-5.63-9.34-6.17-16.98-2.56-5.58,2.63-13.62,8.83-10.11,16.29,2.83,5.99,9.78,5.57,17.2,2.07,7.83-3.69,12.57-10.12,9.89-15.8Z"/>
    <path class="cls-3" d="M788.17,353.49c-.86.29-4.66,1.71-7.3,3.07-.64,0-1.26-1.23-.94-1.71,4.04-2.78,5.42-6.65,3.87-11.31-1.77-5.33-8.23-9.53-17.79-6.35s-12.86,10.41-10.94,16.17c1.93,5.81,7,7.11,10.7,7.32.51.26.75,1.46.27,1.94-3.67.85-6.82.99-8.15.68-1.58-2.35-3.77-5.41-5.02-9.16-1.56-4.71-2.06-9.88-.64-14.13,1.49-4.33,4.6-8.3,10.55-10.28,5.86-1.95,10.82-.82,14.66,1.58,3.97,2.47,7.04,6.89,8.7,11.88,1.63,4.9,1.66,8.83,2.04,10.31Z"/>
    <path class="cls-3" d="M767.65,377.39c-4.62,1.11-4.9,1.48-4.75,3.84l.08,1.44c-.2.46-1.34.69-1.73.36-.54-2.68-1.07-5.1-1.62-7.42-.57-2.36-1.2-4.81-1.94-7.44.2-.46,1.33-.74,1.72-.41l.58,1.32c.94,2.17,1.35,2.38,5.98,1.27l18.11-4.33c4.63-1.11,4.9-1.49,4.75-3.84l-.08-1.44c.2-.46,1.33-.74,1.72-.41.54,2.68,1.08,5.15,1.64,7.51.55,2.31,1.19,4.76,1.93,7.4-.2.46-1.33.74-1.72.41l-.58-1.32c-.94-2.17-1.35-2.38-5.98-1.27l-18.11,4.33Z"/>
    <path class="cls-3" d="M775.02,393.47c-.19-1.2-.26-1.34-1.26-1.49l-6.1-1.05c-1.05-.14-1.45-.13-1.85-.07-.3.05-.5.74-.53,2.18l-.02,1.54c-.3.35-1.44.63-1.77.17-.17-1.77-.45-3.57-.73-5.67-.26-1.7-.59-2.83-.95-5.13.21-.6,1.27-.71,1.73-.42l.36,1.33c.34,1.18.89,2.11,2.98,2.66,2.13.54,4.68,1.11,8.49,1.9l12.91,2.65c3.33.66,5.21,1.24,6.64.86.92,2.31,3.66,3.78,3.68,3.88.1.65-.1.99-.82,1.31-1.39.63-3.14,1.51-6.5,3.32l-18.54,9.86c-2.84,1.52-3.92,2.15-3.93,4.04v1.95c-.21.34-1.39.63-1.76.22-.27-2.42-.64-5.12-1.05-7.72-.39-2.5-.74-4.44-1.2-6.72.21-.6,1.25-.86,1.73-.37l.5,1.56c.38,1.12.76,1.26,1.06,1.22.35-.05,1.5-.59,3.25-1.48l4.09-2.02c.76-.38.8-.79.53-2.54l-.93-5.95ZM778.56,398.75c.18,1.15.37,1.38,1.61.77l3.85-1.93c2.04-1.04,4.6-2.36,5.58-2.97-1.21-.22-4.07-.8-6.49-1.19l-3.95-.67c-1.42-.24-1.53.03-1.34,1.28l.73,4.7Z"/>
    <path class="cls-3" d="M797.29,427.92c1.21-.06,1.46-.08,1.4-1.29l-.17-3.13c-.19-3.69-2.27-4.64-6.04-5.96-.33-.59-.28-1.56.36-1.89,3.54.88,6.69.96,8.68,1.21.16.19.28.44.29.69.01.25-.02.51-.17.72-.85.3-1.04.46-.84,4.3l.99,18.79c.18,3.33.27,4.09,1.35,4.49.11.2.17.35.19.65.02.3-.17.67-.31.78-1.75-.41-5.86-.55-8.73-.3-.47-.23-.64-1.59-.25-1.86,3.19-1.03,5.52-1.86,5.32-5.65l-.16-3.03c-.06-1.21-.22-1.36-1.54-1.29l-22.28,1.18c-4.7.25-5.09.57-5.27,2.86l-.15,2.03c-.28.37-1.45.43-1.77.1-.07-3.29-.16-5.82-.28-8.09-.13-2.43-.32-5.05-.61-8.58.28-.42,1.44-.48,1.77-.09l.37,2.26c.37,2.26.84,2.54,5.54,2.29l22.28-1.18Z"/>
    <path class="cls-3" d="M775.54,462.73c-4.75-.13-5.12.16-5.59,2.48l-.29,1.41c-.31.4-1.48.31-1.77-.1.18-2.73.29-5.21.36-7.58.07-2.43.09-4.96.06-7.69.31-.4,1.48-.36,1.77.05l.21,1.42c.34,2.34.69,2.65,5.44,2.78l18.61.51c4.75.13,5.12-.16,5.59-2.48l.29-1.41c.31-.4,1.48-.36,1.77.05-.18,2.73-.3,5.26-.36,7.69-.07,2.38-.08,4.91-.06,7.64-.31.4-1.48.36-1.77-.05l-.21-1.42c-.34-2.34-.69-2.65-5.44-2.78l-18.61-.51Z"/>
    <path class="cls-3" d="M780.65,508.3c-10.95-1.32-16.65-9.45-15.34-20.25,1.22-10.1,8.73-16.63,19.23-15.36,9.95,1.2,16.74,9.56,15.47,20.06-1.26,10.45-9.16,16.78-19.36,15.55ZM797.74,492.07c.75-6.18-4.63-10.19-13.02-11.2-6.13-.74-16.23.23-17.22,8.42-.79,6.58,5.33,9.92,13.46,10.9,8.59,1.04,16.03-1.89,16.78-8.12Z"/>
    <path class="cls-3" d="M763.9,542.9c-3.19-.79-6.29-1.56-7.93-1.87-.5-.49-.7-2-.41-3.18.01-.05,2.92-1.05,6.34-2.64l16.87-7.85c4.2-1.98,6.66-3.09,7.62-3.79-.43-.37-1.26-.58-3.08-1.03l-9.53-2.37c-3.98-.99-7.71-1.71-9.17-1.5-1.14.19-1.77,1.23-2.28,2.46l-.54,1.33c-.49.3-1.5-.06-1.72-.43.76-2.63,1.3-4.58,1.79-6.54.45-1.82.86-3.65,1.22-5.54.37-.22,1.42-.06,1.72.43l-.06.87c-.08,1.39.01,2.45.95,3.1,1.19.87,4.84,1.93,8.81,2.92l12.47,3.1c2.7.67,3.5.82,4.26.7.93-.18,1.69-.73,2.37-2.38l.54-1.33c.48-.25,1.64.1,1.67.62-.67,2.28-1.33,4.73-1.83,6.74-.42,1.67-.72,3.11-.88,4.16-2.33-.06-6.86,2.2-13.21,5.32l-5.89,2.92c-3.09,1.52-5.17,2.52-6.58,3.37.44.32,1.28.53,2.16.75l6.78,1.69c3.98.99,7.71,1.71,9.17,1.5,1.14-.19,1.75-1.18,2.28-2.46l.53-1.28c.49-.29,1.5.06,1.72.43-.76,2.63-1.28,4.53-1.78,6.54-.45,1.82-.84,3.6-1.22,5.53-.37.22-1.42.06-1.72-.43l.07-.92c.12-1.33-.04-2.36-.96-3.05-1.19-.87-4.83-1.98-8.8-2.97l-11.74-2.92Z"/>
  </g>
  <image width="5906" height="5906" transform="translate(24.77 24.77) scale(.14)" xlink:href="资源 1.png"/>
</svg>